Abonner.ufo
<glyph name="exclam" format="1">
  <advance width="319"/>
  <unicode hex="0021"/>
  <outline>
    <contour>
      <point x="233" y="652" type="curve"/>
      <point x="233" y="652"/>
      <point x="91" y="652"/>
      <point x="91" y="652" type="curve"/>
      <point x="97" y="553"/>
      <point x="120" y="354"/>
      <point x="131" y="190" type="curve"/>
      <point x="194" y="190" type="line"/>
      <point x="207" y="370"/>
      <point x="226" y="536"/>
    </contour>
    <contour>
      <point x="235" y="64" type="curve" smooth="yes"/>
      <point x="235" y="109"/>
      <point x="207" y="143"/>
      <point x="160" y="143" type="curve" smooth="yes"/>
      <point x="113" y="143"/>
      <point x="84" y="109"/>
      <point x="84" y="64" type="curve" smooth="yes"/>
      <point x="84" y="20"/>
      <point x="113" y="-13"/>
      <point x="160" y="-13" type="curve" smooth="yes"/>
      <point x="207" y="-13"/>
      <point x="235" y="20"/>
    </contour>
  </outline>
</glyph>
<glyph name="numbersign" format="1">
  <advance width="538"/>
  <unicode hex="0023"/>
  <outline>
    <contour>
      <point x="510" y="413" type="line"/>
      <point x="510" y="488" type="line"/>
      <point x="430" y="488" type="line"/>
      <point x="462" y="667" type="line"/>
      <point x="383" y="667" type="line"/>
      <point x="351" y="488" type="line"/>
      <point x="245" y="488" type="line"/>
      <point x="277" y="667" type="line"/>
      <point x="198" y="667" type="line"/>
      <point x="166" y="488" type="line"/>
      <point x="68" y="488" type="line"/>
      <point x="68" y="413" type="line"/>
      <point x="151" y="413" type="line"/>
      <point x="122" y="258" type="line"/>
      <point x="27" y="258" type="line"/>
      <point x="27" y="184" type="line"/>
      <point x="108" y="184" type="line"/>
      <point x="75" y="0" type="line"/>
      <point x="154" y="0" type="line"/>
      <point x="187" y="184" type="line"/>
      <point x="293" y="184" type="line"/>
      <point x="260" y="0" type="line"/>
      <point x="339" y="0" type="line"/>
      <point x="372" y="184" type="line"/>
      <point x="469" y="184" type="line"/>
      <point x="469" y="258" type="line"/>
      <point x="387" y="258" type="line"/>
      <point x="416" y="413" type="line"/>
    </contour>
    <contour>
      <point x="336" y="413" type="line"/>
      <point x="307" y="258" type="line"/>
      <point x="202" y="258" type="line"/>
      <point x="231" y="413" type="line"/>
    </contour>
  </outline>
</glyph>
<glyph name="percent" format="1">
  <advance width="725"/>
  <unicode hex="0025"/>
  <outline>
    <contour>
      <point x="330" y="505" type="curve" smooth="yes"/>
      <point x="330" y="620"/>
      <point x="282" y="682"/>
      <point x="185" y="682" type="curve" smooth="yes"/>
      <point x="88" y="682"/>
      <point x="37" y="620"/>
      <point x="37" y="505" type="curve" smooth="yes"/>
      <point x="37" y="388"/>
      <point x="86" y="328"/>
      <point x="183" y="328" type="curve" smooth="yes"/>
      <point x="280" y="328"/>
      <point x="330" y="391"/>
    </contour>
    <contour>
      <point x="686" y="163" type="curve" smooth="yes"/>
      <point x="686" y="278"/>
      <point x="638" y="339"/>
      <point x="541" y="339" type="curve" smooth="yes"/>
      <point x="444" y="339"/>
      <point x="393" y="277"/>
      <point x="393" y="163" type="curve" smooth="yes"/>
      <point x="393" y="46"/>
      <point x="442" y="-14"/>
      <point x="539" y="-14" type="curve" smooth="yes"/>
      <point x="636" y="-14"/>
      <point x="686" y="48"/>
    </contour>
    <contour>
      <point x="603" y="682" type="line"/>
      <point x="524" y="682" type="line"/>
      <point x="116" y="-15" type="line"/>
      <point x="196" y="-15" type="line"/>
    </contour>
    <contour>
      <point x="236" y="506" type="curve" smooth="yes"/>
      <point x="236" y="430"/>
      <point x="224" y="382"/>
      <point x="183" y="382" type="curve" smooth="yes"/>
      <point x="143" y="382"/>
      <point x="131" y="425"/>
      <point x="131" y="506" type="curve" smooth="yes"/>
      <point x="131" y="593"/>
      <point x="147" y="629"/>
      <point x="183" y="629" type="curve" smooth="yes"/>
      <point x="220" y="629"/>
      <point x="236" y="596"/>
    </contour>
    <contour>
      <point x="592" y="164" type="curve" smooth="yes"/>
      <point x="592" y="88"/>
      <point x="581" y="40"/>
      <point x="540" y="40" type="curve" smooth="yes"/>
      <point x="500" y="40"/>
      <point x="487" y="82"/>
      <point x="487" y="164" type="curve" smooth="yes"/>
      <point x="487" y="250"/>
      <point x="503" y="287"/>
      <point x="540" y="287" type="curve" smooth="yes"/>
      <point x="576" y="287"/>
      <point x="592" y="254"/>
    </contour>
  </outline>
</glyph>
<glyph name="quotesingle" format="1">
  <advance width="236"/>
  <unicode hex="0027"/>
  <outline>
    <contour>
      <point x="183" y="693" type="curve"/>
      <point x="162" y="711"/>
      <point x="132" y="719"/>
      <point x="92" y="719" type="curve"/>
      <point x="74" y="706"/>
      <point x="70" y="686"/>
      <point x="70" y="656" type="curve" smooth="yes"/>
      <point x="70" y="648"/>
      <point x="71" y="639"/>
      <point x="73" y="619" type="curve" smooth="yes"/>
      <point x="84" y="524" type="line" smooth="yes"/>
      <point x="87" y="495"/>
      <point x="95" y="480"/>
      <point x="107" y="467" type="curve"/>
      <point x="130" y="467"/>
      <point x="146" y="471"/>
      <point x="159" y="487" type="curve"/>
      <point x="175" y="619" type="line" smooth="yes"/>
      <point x="179" y="651"/>
      <point x="182" y="673"/>
    </contour>
  </outline>
</glyph>
<glyph name="parenleft" format="1">
  <advance width="330"/>
  <unicode hex="0028"/>
  <outline>
    <contour>
      <point x="302" y="-167" type="line"/>
      <point x="223" y="-114"/>
      <point x="182" y="47"/>
      <point x="182" y="265" type="curve" smooth="yes"/>
      <point x="182" y="530"/>
      <point x="251" y="650"/>
      <point x="302" y="697" type="curve"/>
      <point x="241" y="719" type="line"/>
      <point x="136" y="656"/>
      <point x="52" y="491"/>
      <point x="52" y="265" type="curve" smooth="yes"/>
      <point x="52" y="51"/>
      <point x="116" y="-131"/>
      <point x="241" y="-190" type="curve"/>
    </contour>
  </outline>
</glyph>
<glyph name="parenright" format="1">
  <advance width="330"/>
  <unicode hex="0029"/>
  <outline>
    <contour>
      <point x="10" y="696" type="line"/>
      <point x="89" y="643"/>
      <point x="130" y="483"/>
      <point x="130" y="265" type="curve" smooth="yes"/>
      <point x="130" y="0"/>
      <point x="61" y="-120"/>
      <point x="10" y="-168" type="curve"/>
      <point x="71" y="-190" type="line"/>
      <point x="176" y="-125"/>
      <point x="260" y="37"/>
      <point x="260" y="265" type="curve" smooth="yes"/>
      <point x="260" y="478"/>
      <point x="196" y="660"/>
      <point x="71" y="719" type="curve"/>
    </contour>
  </outline>
</glyph>
<glyph name="asterisk" format="1">
  <advance width="413"/>
  <unicode hex="002A"/>
  <outline>
    <contour>
      <point x="55" y="436" type="line"/>
      <point x="171" y="453" type="line"/>
      <point x="97" y="360" type="line"/>
      <point x="179" y="313" type="line"/>
      <point x="222" y="425" type="line"/>
      <point x="263" y="313" type="line"/>
      <point x="345" y="360" type="line"/>
      <point x="271" y="453" type="line"/>
      <point x="389" y="436" type="line"/>
      <point x="389" y="528" type="line"/>
      <point x="271" y="511" type="line"/>
      <point x="345" y="605" type="line"/>
      <point x="263" y="652" type="line"/>
      <point x="222" y="541" type="line"/>
      <point x="179" y="652" type="line"/>
      <point x="97" y="605" type="line"/>
      <point x="171" y="511" type="line"/>
      <point x="55" y="528" type="line"/>
    </contour>
  </outline>
</glyph>
<glyph name="plus" format="1">
  <advance width="550"/>
  <unicode hex="002B"/>
  <outline>
    <contour>
      <point x="507" y="198" type="line"/>
      <point x="507" y="294" type="line"/>
      <point x="325" y="294" type="line"/>
      <point x="325" y="486" type="line"/>
      <point x="225" y="486" type="line"/>
      <point x="225" y="294" type="line"/>
      <point x="42" y="294" type="line"/>
      <point x="42" y="198" type="line"/>
      <point x="225" y="198" type="line"/>
      <point x="225" y="5" type="line"/>
      <point x="325" y="5" type="line"/>
      <point x="325" y="198" type="line"/>
    </contour>
  </outline>
</glyph>
<glyph name="comma" format="1">
  <advance width="264"/>
  <unicode hex="002C"/>
  <outline>
    <contour>
      <point x="63" y="-165" type="line"/>
      <point x="140" y="-132"/>
      <point x="196" y="-58"/>
      <point x="212" y="30" type="curve"/>
      <point x="213" y="40"/>
      <point x="214" y="50"/>
      <point x="214" y="59" type="curve" smooth="yes"/>
      <point x="214" y="105"/>
      <point x="185" y="136"/>
      <point x="136" y="136" type="curve" smooth="yes"/>
      <point x="90" y="136"/>
      <point x="59" y="106"/>
      <point x="59" y="68" type="curve" smooth="yes"/>
      <point x="59" y="44"/>
      <point x="77" y="10"/>
      <point x="115" y="8" type="curve"/>
      <point x="107" y="-49"/>
      <point x="76" y="-101"/>
      <point x="20" y="-129" type="curve"/>
    </contour>
  </outline>
</glyph>
<glyph name="hyphen" format="1">
  <advance width="365"/>
  <unicode hex="002D"/>
  <outline>
    <contour>
      <point x="311" y="195" type="line"/>
      <point x="311" y="286" type="line"/>
      <point x="54" y="286" type="line"/>
      <point x="54" y="195" type="line"/>
    </contour>
  </outline>
</glyph>
<glyph name="slash" format="1">
  <advance width="378"/>
  <unicode hex="002F"/>
  <outline>
    <contour>
      <point x="382" y="688" type="line"/>
      <point x="269" y="688" type="line"/>
      <point x="1" y="-9" type="line"/>
      <point x="114" y="-9" type="line"/>
    </contour>
  </outline>
</glyph>
<glyph name="one" format="1">
  <advance width="538"/>
  <unicode hex="0031"/>
  <outline>
    <contour>
      <point x="447" y="0" type="line"/>
      <point x="446" y="62" type="line"/>
      <point x="414" y="64"/>
      <point x="378" y="64"/>
      <point x="353" y="76" type="curve"/>
      <point x="350" y="89"/>
      <point x="348" y="104"/>
      <point x="348" y="122" type="curve" smooth="yes"/>
      <point x="348" y="589" type="line"/>
      <point x="269" y="578"/>
      <point x="188" y="560"/>
      <point x="108" y="547" type="curve"/>
      <point x="108" y="481" type="line"/>
      <point x="176" y="485" type="line" smooth="yes"/>
      <point x="181" y="485"/>
      <point x="186" y="485"/>
      <point x="190" y="485" type="curve" smooth="yes"/>
      <point x="222" y="485"/>
      <point x="216" y="463"/>
      <point x="216" y="440" type="curve" smooth="yes"/>
      <point x="216" y="122" type="line" smooth="yes"/>
      <point x="216" y="87"/>
      <point x="219" y="70"/>
      <point x="174" y="67" type="curve" smooth="yes"/>
      <point x="103" y="62" type="line"/>
      <point x="103" y="0" type="line"/>
      <point x="259" y="0" type="line"/>
    </contour>
  </outline>
</glyph>
<glyph name="two" format="1">
  <advance width="538"/>
  <unicode hex="0032"/>
  <outline>
    <contour>
      <point x="44" y="0" type="line"/>
      <point x="474" y="0" type="line"/>
      <point x="474" y="114" type="line"/>
      <point x="474" y="114"/>
      <point x="412" y="114"/>
      <point x="373" y="114" type="curve" smooth="yes"/>
      <point x="204" y="114" type="line"/>
      <point x="377" y="245"/>
      <point x="474" y="296"/>
      <point x="474" y="412" type="curve" smooth="yes"/>
      <point x="474" y="505.723"/>
      <point x="403.55" y="589"/>
      <point x="270" y="589" type="curve" smooth="yes"/>
      <point x="165" y="589"/>
      <point x="123" y="556"/>
      <point x="70" y="523" type="curve"/>
      <point x="70" y="523"/>
      <point x="70" y="426"/>
      <point x="70" y="400" type="curve"/>
      <point x="166" y="400" type="line"/>
      <point x="172.193" y="475.349"/>
      <point x="191.857" y="517"/>
      <point x="256" y="517" type="curve" smooth="yes"/>
      <point x="308" y="517"/>
      <point x="345" y="478.341"/>
      <point x="345" y="406" type="curve" smooth="yes"/>
      <point x="345" y="312"/>
      <point x="226" y="253"/>
      <point x="44" y="99" type="curve"/>
    </contour>
  </outline>
</glyph>
<glyph name="three" format="1">
  <advance width="538"/>
  <unicode hex="0033"/>
  <outline>
    <contour>
      <point x="479" y="101" type="curve" smooth="yes"/>
      <point x="479" y="194"/>
      <point x="421" y="245"/>
      <point x="318" y="257" type="curve"/>
      <point x="318" y="260" type="line"/>
      <point x="396" y="275"/>
      <point x="454" y="332"/>
      <point x="454" y="420" type="curve" smooth="yes"/>
      <point x="454" y="528"/>
      <point x="368" y="589"/>
      <point x="246" y="589" type="curve" smooth="yes"/>
      <point x="141" y="589"/>
      <point x="82" y="543"/>
      <point x="58" y="490" type="curve"/>
      <point x="59" y="400" type="line"/>
      <point x="156" y="394" type="line"/>
      <point x="163" y="443" type="line" smooth="yes"/>
      <point x="169" y="486"/>
      <point x="191" y="514"/>
      <point x="235" y="514" type="curve" smooth="yes"/>
      <point x="287" y="514"/>
      <point x="319" y="480"/>
      <point x="319" y="408" type="curve" smooth="yes"/>
      <point x="319" y="326"/>
      <point x="273" y="287"/>
      <point x="206" y="287" type="curve" smooth="yes"/>
      <point x="147" y="287" type="line"/>
      <point x="147" y="213" type="line"/>
      <point x="191" y="213" type="line" smooth="yes"/>
      <point x="277" y="213"/>
      <point x="336" y="192"/>
      <point x="336" y="104" type="curve" smooth="yes"/>
      <point x="336" y="14"/>
      <point x="274" y="-12"/>
      <point x="217" y="-12" type="curve" smooth="yes"/>
      <point x="172" y="-12"/>
      <point x="141" y="9"/>
      <point x="101" y="31" type="curve"/>
      <point x="47" y="-10" type="line"/>
      <point x="79" y="-53"/>
      <point x="116" y="-95"/>
      <point x="224" y="-95" type="curve" smooth="yes"/>
      <point x="390" y="-95"/>
      <point x="479" y="0"/>
    </contour>
  </outline>
</glyph>
<glyph name="five" format="1">
  <advance width="538"/>
  <unicode hex="0035"/>
  <outline>
    <contour>
      <point x="491" y="262"/>
      <point x="384" y="325"/>
      <point x="262" y="325" type="curve" smooth="yes"/>
      <point x="222" y="325"/>
      <point x="186" y="318"/>
      <point x="152" y="305" type="curve"/>
      <point x="151" y="306"/>
      <point x="151" y="306"/>
      <point x="151" y="306" type="curve"/>
      <point x="170" y="457" type="line"/>
      <point x="459" y="457" type="line"/>
      <point x="489" y="665" type="line"/>
      <point x="432" y="665" type="line"/>
      <point x="397" y="599"/>
      <point x="381" y="575"/>
      <point x="369" y="575" type="curve"/>
      <point x="91" y="575" type="line"/>
      <point x="71" y="221" type="line"/>
      <point x="71" y="221"/>
      <point x="111" y="194"/>
      <point x="111" y="194" type="curve"/>
      <point x="167" y="223"/>
      <point x="205" y="232"/>
      <point x="243" y="232" type="curve" smooth="yes"/>
      <point x="319.275" y="232"/>
      <point x="363" y="171.363"/>
      <point x="363" y="100" type="curve" smooth="yes"/>
      <point x="363" y="15"/>
      <point x="283" y="-54"/>
      <point x="66" y="-90" type="curve"/>
      <point x="66" y="-90"/>
      <point x="77" y="-159"/>
      <point x="77" y="-159" type="curve"/>
      <point x="341" y="-149"/>
      <point x="491" y="-38"/>
      <point x="491" y="129" type="curve" smooth="yes"/>
    </contour>
  </outline>
</glyph>
<glyph name="eight" format="1">
  <advance width="538"/>
  <unicode hex="0038"/>
  <outline>
    <contour>
      <point x="265" y="-14" type="curve" smooth="yes"/>
      <point x="410" y="-14"/>
      <point x="503" y="57"/>
      <point x="503" y="174" type="curve" smooth="yes"/>
      <point x="503" y="266"/>
      <point x="444" y="327"/>
      <point x="354" y="357" type="curve"/>
      <point x="353" y="357"/>
      <point x="353" y="358"/>
      <point x="353" y="358" type="curve"/>
      <point x="353" y="359"/>
      <point x="354" y="361"/>
      <point x="354" y="362" type="curve" smooth="yes"/>
      <point x="354" y="363"/>
      <point x="354" y="363"/>
      <point x="353" y="363" type="curve" smooth="yes"/>
      <point x="437" y="385"/>
      <point x="484" y="442"/>
      <point x="484" y="517" type="curve" smooth="yes"/>
      <point x="484" y="616"/>
      <point x="418" y="681"/>
      <point x="269" y="681" type="curve" smooth="yes"/>
      <point x="127" y="681"/>
      <point x="53" y="611"/>
      <point x="53" y="510" type="curve" smooth="yes"/>
      <point x="53" y="434"/>
      <point x="86" y="374"/>
      <point x="180" y="338" type="curve"/>
      <point x="180" y="337"/>
      <point x="175" y="333"/>
      <point x="175" y="332" type="curve" smooth="yes"/>
      <point x="175" y="331"/>
      <point x="175" y="331"/>
      <point x="176" y="331" type="curve" smooth="yes"/>
      <point x="176" y="331"/>
      <point x="177" y="331"/>
      <point x="179" y="332" type="curve" smooth="yes"/>
      <point x="104" y="315"/>
      <point x="35" y="259"/>
      <point x="35" y="165" type="curve" smooth="yes"/>
      <point x="35" y="59"/>
      <point x="112" y="-14"/>
    </contour>
    <contour>
      <point x="160" y="172" type="curve" smooth="yes"/>
      <point x="160" y="251"/>
      <point x="207" y="295"/>
      <point x="252" y="306" type="curve"/>
      <point x="321" y="287"/>
      <point x="372" y="246"/>
      <point x="372" y="166" type="curve" smooth="yes"/>
      <point x="372" y="96"/>
      <point x="329" y="55"/>
      <point x="265" y="55" type="curve" smooth="yes"/>
      <point x="203" y="55"/>
      <point x="160" y="96"/>
    </contour>
    <contour>
      <point x="179" y="513" type="curve" smooth="yes"/>
      <point x="179" y="577"/>
      <point x="215" y="615"/>
      <point x="272" y="615" type="curve" smooth="yes"/>
      <point x="328" y="615"/>
      <point x="364" y="577"/>
      <point x="364" y="512" type="curve" smooth="yes"/>
      <point x="364" y="447"/>
      <point x="328" y="399"/>
      <point x="282" y="389" type="curve"/>
      <point x="221" y="405"/>
      <point x="179" y="447"/>
    </contour>
  </outline>
</glyph>
<glyph name="nine" format="1">
  <advance width="538"/>
  <unicode hex="0039"/>
  <outline>
    <contour>
      <point x="37" y="368" type="curve" smooth="yes"/>
      <point x="37" y="223"/>
      <point x="132" y="167"/>
      <point x="225" y="167" type="curve" smooth="yes"/>
      <point x="281" y="167"/>
      <point x="322" y="183"/>
      <point x="358" y="217" type="curve"/>
      <point x="350" y="62"/>
      <point x="305" y="-17"/>
      <point x="212" y="-17" type="curve" smooth="yes"/>
      <point x="167" y="-17"/>
      <point x="138" y="11"/>
      <point x="109" y="26" type="curve"/>
      <point x="58" y="-11" type="line"/>
      <point x="85" y="-38"/>
      <point x="110" y="-91"/>
      <point x="214" y="-91" type="curve" smooth="yes"/>
      <point x="224" y="-91"/>
      <point x="233" y="-91"/>
      <point x="244" y="-90" type="curve"/>
      <point x="418" y="-62"/>
      <point x="497" y="66"/>
      <point x="497" y="291" type="curve" smooth="yes"/>
      <point x="497" y="494"/>
      <point x="422" y="589"/>
      <point x="269" y="589" type="curve" smooth="yes"/>
      <point x="127" y="589"/>
      <point x="37" y="503"/>
    </contour>
    <contour>
      <point x="170" y="379" type="curve" smooth="yes"/>
      <point x="170" y="474"/>
      <point x="208" y="518"/>
      <point x="266" y="518" type="curve" smooth="yes"/>
      <point x="323" y="518"/>
      <point x="360" y="474"/>
      <point x="360" y="378" type="curve" smooth="yes"/>
      <point x="360" y="276"/>
      <point x="319" y="238"/>
      <point x="267" y="238" type="curve" smooth="yes"/>
      <point x="210" y="238"/>
      <point x="170" y="278"/>
    </contour>
  </outline>
</glyph>
<glyph name="colon" format="1">
  <advance width="264"/>
  <unicode hex="003A"/>
  <outline>
    <contour>
      <point x="206" y="64" type="curve" smooth="yes"/>
      <point x="206" y="109"/>
      <point x="178" y="143"/>
      <point x="131" y="143" type="curve" smooth="yes"/>
      <point x="84" y="143"/>
      <point x="56" y="109"/>
      <point x="56" y="64" type="curve" smooth="yes"/>
      <point x="56" y="20"/>
      <point x="84" y="-13"/>
      <point x="131" y="-13" type="curve" smooth="yes"/>
      <point x="178" y="-13"/>
      <point x="206" y="20"/>
    </contour>
    <contour>
      <point x="206" y="383" type="curve" smooth="yes"/>
      <point x="206" y="428"/>
      <point x="178" y="462"/>
      <point x="131" y="462" type="curve" smooth="yes"/>
      <point x="84" y="462"/>
      <point x="56" y="428"/>
      <point x="56" y="383" type="curve" smooth="yes"/>
      <point x="56" y="338"/>
      <point x="84" y="306"/>
      <point x="131" y="306" type="curve" smooth="yes"/>
      <point x="178" y="306"/>
      <point x="206" y="338"/>
    </contour>
  </outline>
</glyph>
<glyph name="semicolon" format="1">
  <advance width="264"/>
  <unicode hex="003B"/>
  <outline>
    <contour>
      <point x="207" y="386" type="curve" smooth="yes"/>
      <point x="207" y="431"/>
      <point x="179" y="465"/>
      <point x="132" y="465" type="curve" smooth="yes"/>
      <point x="85" y="465"/>
      <point x="56" y="431"/>
      <point x="56" y="386" type="curve" smooth="yes"/>
      <point x="56" y="341"/>
      <point x="85" y="308"/>
      <point x="132" y="308" type="curve" smooth="yes"/>
      <point x="179" y="308"/>
      <point x="207" y="341"/>
    </contour>
  </outline>
</glyph>
<glyph name="less" format="1">
  <advance width="550"/>
  <unicode hex="003C"/>
  <outline>
    <contour>
      <point x="506" y="43" type="line"/>
      <point x="172" y="247" type="line"/>
      <point x="506" y="442" type="line"/>
      <point x="420" y="484" type="line"/>
      <point x="62" y="284" type="line"/>
      <point x="36" y="226" type="line"/>
      <point x="420" y="1" type="line"/>
    </contour>
  </outline>
</glyph>
<glyph name="equal" format="1">
  <advance width="550"/>
  <unicode hex="003D"/>
  <outline>
    <contour>
      <point x="506" y="200" type="line"/>
      <point x="506" y="295" type="line"/>
      <point x="44" y="295" type="line"/>
      <point x="44" y="200" type="line"/>
    </contour>
    <contour>
      <point x="506" y="201" type="line"/>
      <point x="506" y="297" type="line"/>
      <point x="44" y="297" type="line"/>
      <point x="44" y="201" type="line"/>
    </contour>
  </outline>
</glyph>
<glyph name="greater" format="1">
  <advance width="550"/>
  <unicode hex="003E"/>
  <outline>
    <contour>
      <point x="42" y="442" type="line"/>
      <point x="377" y="239" type="line"/>
      <point x="42" y="43" type="line"/>
      <point x="128" y="1" type="line"/>
      <point x="486" y="202" type="line"/>
      <point x="512" y="260" type="line"/>
      <point x="129" y="484" type="line"/>
    </contour>
  </outline>
</glyph>
<glyph name="question" format="1">
  <advance width="447"/>
  <unicode hex="003F"/>
  <outline>
    <contour>
      <point x="406" y="618"/>
      <point x="329" y="682"/>
      <point x="210" y="682" type="curve" smooth="yes"/>
      <point x="119" y="682"/>
      <point x="72" y="645"/>
      <point x="46" y="622" type="curve"/>
      <point x="46" y="484" type="line"/>
      <point x="46" y="484"/>
      <point x="151" y="484"/>
      <point x="151" y="484" type="curve"/>
      <point x="151" y="564"/>
      <point x="184" y="589"/>
      <point x="208" y="589" type="curve" smooth="yes"/>
      <point x="246" y="589"/>
      <point x="272" y="569"/>
      <point x="276" y="513" type="curve" smooth="yes"/>
      <point x="276" y="437"/>
      <point x="114" y="312"/>
      <point x="114" y="312" type="curve"/>
      <point x="155" y="186" type="line"/>
      <point x="232" y="186" type="line"/>
      <point x="232" y="265" type="line"/>
      <point x="276" y="326"/>
      <point x="406" y="382"/>
      <point x="406" y="510" type="curve" smooth="yes"/>
    </contour>
    <contour>
      <point x="274" y="109"/>
      <point x="246" y="143"/>
      <point x="199" y="143" type="curve" smooth="yes"/>
      <point x="152" y="143"/>
      <point x="124" y="109"/>
      <point x="124" y="64" type="curve" smooth="yes"/>
      <point x="124" y="20"/>
      <point x="152" y="-13"/>
      <point x="199" y="-13" type="curve" smooth="yes"/>
      <point x="246" y="-13"/>
      <point x="274" y="20"/>
      <point x="274" y="64" type="curve" smooth="yes"/>
    </contour>
  </outline>
</glyph>
<glyph name="at" format="1">
  <advance width="826"/>
  <unicode hex="0040"/>
  <outline>
    <contour>
      <point x="776" y="510"/>
      <point x="628" y="635"/>
      <point x="428" y="635" type="curve" smooth="yes"/>
      <point x="220" y="635"/>
      <point x="49" y="490"/>
      <point x="49" y="260" type="curve" smooth="yes"/>
      <point x="49" y="79"/>
      <point x="185" y="-84"/>
      <point x="412" y="-84" type="curve" smooth="yes"/>
      <point x="473" y="-84"/>
      <point x="532" y="-66"/>
      <point x="581" y="-46" type="curve"/>
      <point x="579" y="4" type="line"/>
      <point x="536" y="-14"/>
      <point x="478" y="-27"/>
      <point x="416" y="-27" type="curve" smooth="yes"/>
      <point x="260" y="-27"/>
      <point x="132" y="85"/>
      <point x="132" y="264" type="curve" smooth="yes"/>
      <point x="132" y="463"/>
      <point x="263" y="581"/>
      <point x="428" y="581" type="curve" smooth="yes"/>
      <point x="602" y="581"/>
      <point x="715" y="463"/>
      <point x="715" y="314" type="curve" smooth="yes"/>
      <point x="715" y="214"/>
      <point x="663" y="132"/>
      <point x="599" y="132" type="curve" smooth="yes"/>
      <point x="576" y="132"/>
      <point x="565" y="144"/>
      <point x="565" y="167" type="curve" smooth="yes"/>
      <point x="565" y="180"/>
      <point x="594" y="348"/>
      <point x="595" y="349" type="curve" smooth="yes"/>
      <point x="595" y="349"/>
      <point x="604" y="422"/>
      <point x="604" y="422" type="curve" smooth="yes"/>
      <point x="604" y="422"/>
      <point x="543" y="422"/>
      <point x="543" y="422" type="curve" smooth="yes"/>
      <point x="543" y="422"/>
      <point x="516" y="391"/>
      <point x="516" y="391" type="curve"/>
      <point x="512" y="402"/>
      <point x="478" y="443"/>
      <point x="434" y="443" type="curve" smooth="yes"/>
      <point x="311.998" y="443"/>
      <point x="239" y="319.729"/>
      <point x="239" y="213" type="curve" smooth="yes"/>
      <point x="239" y="139"/>
      <point x="284" y="78"/>
      <point x="351" y="78" type="curve" smooth="yes"/>
      <point x="351" y="78"/>
      <point x="352" y="78"/>
      <point x="352" y="78" type="curve" smooth="yes"/>
      <point x="400" y="79"/>
      <point x="443" y="104"/>
      <point x="481" y="145" type="curve"/>
      <point x="492" y="121"/>
      <point x="520" y="78"/>
      <point x="585" y="78" type="curve" smooth="yes"/>
      <point x="687" y="78"/>
      <point x="776" y="173"/>
      <point x="776" y="318" type="curve" smooth="yes"/>
    </contour>
    <contour>
      <point x="509" y="361"/>
      <point x="483" y="248"/>
      <point x="483" y="248" type="curve"/>
      <point x="472" y="176"/>
      <point x="392" y="143"/>
      <point x="373" y="143" type="curve" smooth="yes"/>
      <point x="338" y="143"/>
      <point x="320" y="174"/>
      <point x="320" y="218" type="curve" smooth="yes"/>
      <point x="320" y="282.723"/>
      <point x="373.511" y="376"/>
      <point x="452" y="376" type="curve" smooth="yes"/>
      <point x="470" y="376"/>
      <point x="488" y="372"/>
      <point x="509" y="361" type="curve"/>
    </contour>
  </outline>
</glyph>
<glyph name="A" format="1">
  <advance width="722"/>
  <unicode hex="0041"/>
  <outline>
    <contour>
      <point x="447" y="201" type="line"/>
      <point x="474" y="125"/>
      <point x="482" y="107"/>
      <point x="490" y="82" type="curve"/>
      <point x="483" y="71"/>
      <point x="469" y="70"/>
      <point x="444" y="68" type="curve" smooth="yes"/>
      <point x="402" y="65" type="line"/>
      <point x="402" y="0" type="line"/>
      <point x="719" y="0" type="line"/>
      <point x="719" y="64" type="line"/>
      <point x="671" y="70"/>
      <point x="655" y="65"/>
      <point x="632" y="122" type="curve" smooth="yes"/>
      <point x="563" y="295"/>
      <point x="424" y="667"/>
      <point x="424" y="667" type="curve"/>
      <point x="287" y="667" type="line"/>
      <point x="266" y="607"/>
      <point x="138" y="258"/>
      <point x="77" y="107" type="curve" smooth="yes"/>
      <point x="72" y="94"/>
      <point x="65" y="83"/>
      <point x="58" y="74" type="curve"/>
      <point x="43" y="70"/>
      <point x="14" y="67"/>
      <point x="-7" y="64" type="curve"/>
      <point x="-7" y="0" type="line"/>
      <point x="256" y="0" type="line"/>
      <point x="256" y="65" type="line"/>
      <point x="204" y="68" type="line" smooth="yes"/>
      <point x="189" y="69"/>
      <point x="177" y="72"/>
      <point x="170" y="78" type="curve"/>
      <point x="177" y="101"/>
      <point x="189" y="128"/>
      <point x="215" y="201" type="curve"/>
    </contour>
    <contour>
      <point x="238" y="272" type="line"/>
      <point x="264" y="346"/>
      <point x="304" y="465"/>
      <point x="330" y="547" type="curve"/>
      <point x="334" y="547" type="line"/>
      <point x="360" y="465"/>
      <point x="394" y="362"/>
      <point x="425" y="272" type="curve"/>
    </contour>
    <contour>
      <point x="361" y="667" type="move" name="top"/>
    </contour>
    <contour>
      <point x="650" y="10" type="move" name="ogonek"/>
    </contour>
  </outline>
</glyph>
<glyph name="B" format="1">
  <advance width="675"/>
  <unicode hex="0042"/>
  <outline>
    <contour>
      <point x="239" y="304" type="line"/>
      <point x="296" y="304" type="line" smooth="yes"/>
      <point x="396" y="304"/>
      <point x="438" y="250"/>
      <point x="438" y="184" type="curve" smooth="yes"/>
      <point x="438" y="104"/>
      <point x="374" y="71"/>
      <point x="306" y="71" type="curve" smooth="yes"/>
      <point x="287" y="71"/>
      <point x="259" y="70"/>
      <point x="239" y="71" type="curve"/>
    </contour>
    <contour>
      <point x="239" y="597" type="line"/>
      <point x="257" y="598"/>
      <point x="278" y="597"/>
      <point x="296" y="597" type="curve" smooth="yes"/>
      <point x="364" y="597"/>
      <point x="414" y="562"/>
      <point x="414" y="491" type="curve" smooth="yes"/>
      <point x="414" y="419"/>
      <point x="361" y="376"/>
      <point x="285" y="376" type="curve" smooth="yes"/>
      <point x="239" y="376" type="line"/>
    </contour>
    <contour>
      <point x="39" y="0" type="line"/>
      <point x="210" y="0" type="line" smooth="yes"/>
      <point x="238" y="0"/>
      <point x="263" y="-1"/>
      <point x="310" y="-1" type="curve" smooth="yes"/>
      <point x="453" y="-1"/>
      <point x="546" y="59"/>
      <point x="546" y="179" type="curve" smooth="yes"/>
      <point x="546" y="290"/>
      <point x="472" y="337"/>
      <point x="368" y="345" type="curve"/>
      <point x="368" y="350" type="line"/>
      <point x="459" y="363"/>
      <point x="514" y="416"/>
      <point x="514" y="503" type="curve" smooth="yes"/>
      <point x="514" y="610"/>
      <point x="438" y="667"/>
      <point x="299" y="667" type="curve" smooth="yes"/>
      <point x="247" y="667"/>
      <point x="236" y="667"/>
      <point x="208" y="667" type="curve" smooth="yes"/>
      <point x="34" y="667" type="line"/>
      <point x="34" y="621" type="line"/>
      <point x="51" y="617"/>
      <point x="107" y="603"/>
      <point x="137" y="584" type="curve"/>
      <point x="137" y="82" type="line"/>
      <point x="109" y="69"/>
      <point x="74" y="53"/>
      <point x="39" y="45" type="curve"/>
    </contour>
  </outline>
</glyph>
<glyph name="C" format="1">
  <advance width="699"/>
  <unicode hex="0043"/>
  <outline>
    <contour>
      <point x="622" y="223" type="line"/>
      <point x="553" y="223" type="line"/>
      <point x="547" y="175"/>
      <point x="535" y="81"/>
      <point x="535" y="81" type="curve"/>
      <point x="522" y="76"/>
      <point x="484" y="60"/>
      <point x="423" y="60" type="curve" smooth="yes"/>
      <point x="282" y="60"/>
      <point x="202" y="176"/>
      <point x="202" y="324" type="curve" smooth="yes"/>
      <point x="202.0" y="525.210505591"/>
      <point x="321" y="612"/>
      <point x="433" y="612" type="curve" smooth="yes"/>
      <point x="478" y="612"/>
      <point x="525" y="595"/>
      <point x="531" y="592" type="curve"/>
      <point x="543" y="452" type="line"/>
      <point x="609" y="452" type="line"/>
      <point x="619" y="647" type="line"/>
      <point x="563" y="668"/>
      <point x="480" y="682"/>
      <point x="416" y="682" type="curve" smooth="yes"/>
      <point x="215" y="682"/>
      <point x="77" y="550"/>
      <point x="77" y="320" type="curve" smooth="yes"/>
      <point x="77" y="133"/>
      <point x="211" y="-14"/>
      <point x="403" y="-14" type="curve" smooth="yes"/>
      <point x="476" y="-14"/>
      <point x="570" y="-1"/>
      <point x="622" y="24" type="curve"/>
    </contour>
    <contour>
      <point x="350" y="667" type="move" name="top"/>
    </contour>
    <contour>
      <point x="350" y="0" type="move" name="bottom"/>
    </contour>
  </outline>
</glyph>
<glyph name="D" format="1">
  <advance width="770"/>
  <unicode hex="0044"/>
  <outline>
    <contour>
      <point x="239" y="594" type="line"/>
      <point x="263" y="595"/>
      <point x="286" y="596"/>
      <point x="312" y="596" type="curve" smooth="yes"/>
      <point x="434" y="596"/>
      <point x="527" y="539"/>
      <point x="527" y="335" type="curve" smooth="yes"/>
      <point x="527" y="150"/>
      <point x="450" y="70"/>
      <point x="322" y="70" type="curve" smooth="yes"/>
      <point x="294" y="70"/>
      <point x="265" y="72"/>
      <point x="239" y="73" type="curve"/>
    </contour>
    <contour>
      <point x="137" y="82" type="line"/>
      <point x="95" y="59"/>
      <point x="39" y="45"/>
      <point x="39" y="45" type="curve"/>
      <point x="39" y="0" type="line"/>
      <point x="196" y="0" type="line" smooth="yes"/>
      <point x="221" y="0"/>
      <point x="249" y="0"/>
      <point x="302" y="0" type="curve" smooth="yes"/>
      <point x="498" y="0"/>
      <point x="639" y="93"/>
      <point x="639" y="336" type="curve" smooth="yes"/>
      <point x="639" y="564"/>
      <point x="506" y="668"/>
      <point x="310" y="668" type="curve" smooth="yes"/>
      <point x="245" y="668"/>
      <point x="208" y="667"/>
      <point x="171" y="667" type="curve" smooth="yes"/>
      <point x="34" y="667" type="line"/>
      <point x="34" y="622" type="line"/>
      <point x="75" y="611"/>
      <point x="105" y="600"/>
      <point x="137" y="585" type="curve"/>
    </contour>
    <contour>
      <point x="385" y="667" type="move" name="top"/>
    </contour>
    <contour>
      <point x="385" y="334" type="move" name="center"/>
    </contour>
  </outline>
</glyph>
<glyph name="E" format="1">
  <advance width="672"/>
  <unicode hex="0045"/>
  <outline>
    <contour>
      <point x="564" y="179" type="curve"/>
      <point x="505" y="179" type="line"/>
      <point x="499" y="134"/>
      <point x="493" y="95"/>
      <point x="483" y="69" type="curve"/>
      <point x="469" y="62"/>
      <point x="449" y="62"/>
      <point x="420" y="62" type="curve" smooth="yes"/>
      <point x="239" y="62" type="line"/>
      <point x="239" y="319" type="line"/>
      <point x="333" y="319" type="line" smooth="yes"/>
      <point x="350" y="319"/>
      <point x="364" y="319"/>
      <point x="377" y="316" type="curve"/>
      <point x="389" y="297"/>
      <point x="400" y="261"/>
      <point x="403" y="220" type="curve"/>
      <point x="453" y="222" type="line"/>
      <point x="453" y="355" type="line"/>
      <point x="453" y="457" type="line"/>
      <point x="403" y="460" type="line"/>
      <point x="400" y="421"/>
      <point x="388" y="389"/>
      <point x="377" y="371" type="curve"/>
      <point x="364" y="368"/>
      <point x="351" y="368"/>
      <point x="335" y="368" type="curve" smooth="yes"/>
      <point x="239" y="368" type="line"/>
      <point x="239" y="612" type="line"/>
      <point x="407" y="612" type="line" smooth="yes"/>
      <point x="432" y="612"/>
      <point x="461" y="612"/>
      <point x="461" y="612" type="curve"/>
      <point x="469" y="589"/>
      <point x="477" y="533"/>
      <point x="480" y="493" type="curve"/>
      <point x="536" y="497" type="line"/>
      <point x="536" y="667" type="line"/>
      <point x="36" y="667" type="line"/>
      <point x="36" y="621" type="line"/>
      <point x="66" y="612"/>
      <point x="109" y="599"/>
      <point x="137" y="584" type="curve"/>
      <point x="137" y="83" type="line"/>
      <point x="111" y="66"/>
      <point x="39" y="46"/>
      <point x="39" y="46" type="curve"/>
      <point x="39" y="0" type="line"/>
      <point x="432" y="0" type="line" smooth="yes"/>
      <point x="471" y="0"/>
      <point x="531" y="-3"/>
      <point x="564" y="-3" type="curve"/>
      <point x="564" y="58"/>
      <point x="564" y="118"/>
    </contour>
    <contour>
      <point x="336" y="667" type="move" name="top"/>
    </contour>
    <contour>
      <point x="336" y="0" type="move" name="bottom"/>
    </contour>
    <contour>
      <point x="605" y="10" type="move" name="ogonek"/>
    </contour>
  </outline>
</glyph>
<glyph name="F" format="1">
  <advance width="624"/>
  <unicode hex="0046"/>
  <outline>
    <contour>
      <point x="358" y="45" type="line"/>
      <point x="358" y="45"/>
      <point x="267" y="73"/>
      <point x="254" y="84" type="curve"/>
      <point x="254" y="295" type="line"/>
      <point x="335" y="295" type="line" smooth="yes"/>
      <point x="356" y="295"/>
      <point x="376" y="295"/>
      <point x="393" y="293" type="curve"/>
      <point x="404" y="273"/>
      <point x="410" y="238"/>
      <point x="414" y="194" type="curve"/>
      <point x="469" y="196" type="line"/>
      <point x="469" y="322" type="line"/>
      <point x="469" y="443" type="line"/>
      <point x="414" y="446" type="line"/>
      <point x="409" y="409"/>
      <point x="404" y="373"/>
      <point x="396" y="353" type="curve"/>
      <point x="376" y="347"/>
      <point x="353" y="347"/>
      <point x="320" y="347" type="curve" smooth="yes"/>
      <point x="254" y="347" type="line"/>
      <point x="254" y="593" type="line"/>
      <point x="422" y="593" type="line" smooth="yes"/>
      <point x="444" y="593"/>
      <point x="472" y="593"/>
      <point x="472" y="593" type="curve"/>
      <point x="479" y="567"/>
      <point x="483" y="527"/>
      <point x="486" y="484" type="curve"/>
      <point x="541" y="489" type="line"/>
      <point x="541" y="667" type="line"/>
      <point x="49" y="667" type="line"/>
      <point x="49" y="621" type="line"/>
      <point x="96" y="610"/>
      <point x="133" y="593"/>
      <point x="152" y="584" type="curve"/>
      <point x="152" y="84" type="line"/>
      <point x="136" y="70"/>
      <point x="87" y="55"/>
      <point x="54" y="44" type="curve"/>
      <point x="54" y="0" type="line"/>
      <point x="358" y="0" type="line"/>
    </contour>
  </outline>
</glyph>
<glyph name="G" format="1">
  <advance width="754"/>
  <unicode hex="0047"/>
  <outline>
    <contour>
      <point x="404" y="-14" type="curve" smooth="yes"/>
      <point x="483" y="-14"/>
      <point x="568" y="4"/>
      <point x="629" y="27" type="curve"/>
      <point x="629" y="178" type="line" smooth="yes"/>
      <point x="629" y="196"/>
      <point x="630" y="211"/>
      <point x="633" y="224" type="curve"/>
      <point x="647" y="230"/>
      <point x="675" y="232"/>
      <point x="700" y="235" type="curve"/>
      <point x="700" y="290" type="line"/>
      <point x="443" y="290" type="line"/>
      <point x="443" y="235" type="line"/>
      <point x="475" y="232"/>
      <point x="501" y="232"/>
      <point x="523" y="224" type="curve"/>
      <point x="526" y="211"/>
      <point x="527" y="196"/>
      <point x="527" y="177" type="curve" smooth="yes"/>
      <point x="527" y="57" type="line"/>
      <point x="501" y="48"/>
      <point x="439" y="41"/>
      <point x="411" y="41" type="curve" smooth="yes"/>
      <point x="283" y="41"/>
      <point x="188" y="141"/>
      <point x="188" y="322" type="curve" smooth="yes"/>
      <point x="188" y="537"/>
      <point x="297" y="627"/>
      <point x="417" y="627" type="curve" smooth="yes"/>
      <point x="459" y="627"/>
      <point x="520" y="622"/>
      <point x="545" y="608" type="curve"/>
      <point x="545" y="608"/>
      <point x="557" y="452"/>
      <point x="557" y="452" type="curve"/>
      <point x="627" y="457" type="line"/>
      <point x="639" y="645" type="line"/>
      <point x="572" y="668"/>
      <point x="493" y="682"/>
      <point x="411" y="682" type="curve" smooth="yes"/>
      <point x="211" y="682"/>
      <point x="72" y="550"/>
      <point x="72" y="319" type="curve" smooth="yes"/>
      <point x="72" y="93"/>
      <point x="221" y="-14"/>
    </contour>
    <contour>
      <point x="377" y="667" type="move" name="top"/>
    </contour>
    <contour>
      <point x="377" y="0" type="move" name="bottom"/>
    </contour>
  </outline>
</glyph>
<glyph name="H" format="1">
  <advance width="840"/>
  <unicode hex="0048"/>
  <outline>
    <contour>
      <point x="366" y="0" type="line"/>
      <point x="366" y="45" type="line"/>
      <point x="305" y="61"/>
      <point x="263" y="82"/>
      <point x="263" y="82" type="curve"/>
      <point x="263" y="307" type="line"/>
      <point x="576" y="307" type="line"/>
      <point x="576" y="83" type="line"/>
      <point x="576" y="83"/>
      <point x="564" y="71"/>
      <point x="485" y="45" type="curve"/>
      <point x="485" y="0" type="line"/>
      <point x="782" y="0" type="line"/>
      <point x="782" y="45" type="line"/>
      <point x="721" y="61"/>
      <point x="679" y="82"/>
      <point x="679" y="82" type="curve"/>
      <point x="679" y="584" type="line"/>
      <point x="679" y="584"/>
      <point x="691" y="596"/>
      <point x="770" y="622" type="curve"/>
      <point x="770" y="667" type="line"/>
      <point x="473" y="667" type="line"/>
      <point x="473" y="622" type="line"/>
      <point x="534" y="606"/>
      <point x="576" y="585"/>
      <point x="576" y="585" type="curve"/>
      <point x="576" y="375" type="line"/>
      <point x="263" y="375" type="line"/>
      <point x="263" y="584" type="line"/>
      <point x="263" y="584"/>
      <point x="275" y="596"/>
      <point x="354" y="622" type="curve"/>
      <point x="354" y="667" type="line"/>
      <point x="58" y="667" type="line"/>
      <point x="58" y="622" type="line"/>
      <point x="119" y="606"/>
      <point x="161" y="585"/>
      <point x="161" y="585" type="curve"/>
      <point x="161" y="83" type="line"/>
      <point x="161" y="83"/>
      <point x="149" y="71"/>
      <point x="70" y="45" type="curve"/>
      <point x="70" y="0" type="line"/>
    </contour>
    <contour>
      <point x="422" y="667" type="move" name="top"/>
    </contour>
    <contour>
      <point x="422" y="334" type="move" name="center"/>
    </contour>
  </outline>
</glyph>
<glyph name="I" format="1">
  <advance width="416"/>
  <unicode hex="0049"/>
  <outline>
    <contour>
      <point x="357" y="0" type="line"/>
      <point x="357" y="45" type="line"/>
      <point x="289" y="64"/>
      <point x="254.0" y="82.0"/>
      <point x="254.0" y="82.0" type="curve"/>
      <point x="254.0" y="585.0" type="line"/>
      <point x="254.0" y="585.0"/>
      <point x="270" y="600"/>
      <point x="348" y="622" type="curve"/>
      <point x="348" y="667" type="line"/>
      <point x="49.0" y="667.0" type="line"/>
      <point x="49.0" y="622.0" type="line"/>
      <point x="110.0" y="606.0"/>
      <point x="152.0" y="585.0"/>
      <point x="152.0" y="585.0" type="curve"/>
      <point x="152.0" y="82.0" type="line"/>
      <point x="152.0" y="82.0"/>
      <point x="121.0" y="63.0"/>
      <point x="58.0" y="45.0" type="curve"/>
      <point x="58.0" y="0.0" type="line"/>
    </contour>
    <contour>
      <point x="201.0" y="667.0" type="move" name="top"/>
    </contour>
    <contour>
      <point x="367.0" y="10.0" type="move" name="ogonek"/>
    </contour>
  </outline>
</glyph>
<glyph name="J" format="1">
  <advance width="491"/>
  <unicode hex="004A"/>
  <outline>
    <contour>
      <point x="40" y="-85"/>
      <point x="107" y="-96"/>
      <point x="142" y="-96" type="curve" smooth="yes"/>
      <point x="330" y="-96"/>
      <point x="329" y="39"/>
      <point x="329" y="170" type="curve" smooth="yes"/>
      <point x="329" y="585" type="line"/>
      <point x="329" y="585"/>
      <point x="345" y="600"/>
      <point x="423" y="622" type="curve"/>
      <point x="423" y="667" type="line"/>
      <point x="124" y="667" type="line"/>
      <point x="124" y="622" type="line"/>
      <point x="185" y="606"/>
      <point x="227" y="585"/>
      <point x="227" y="585" type="curve"/>
      <point x="227" y="146" type="line" smooth="yes"/>
      <point x="227" y="46"/>
      <point x="221" y="-31"/>
      <point x="143" y="-31" type="curve" smooth="yes"/>
      <point x="118" y="-31"/>
      <point x="90" y="-20"/>
      <point x="90" y="-20" type="curve"/>
      <point x="90" y="-20"/>
      <point x="74" y="64"/>
      <point x="66" y="109" type="curve"/>
      <point x="44" y="109"/>
      <point x="31" y="108"/>
      <point x="8" y="109" type="curve"/>
      <point x="8" y="-77" type="line"/>
    </contour>
    <contour>
      <point x="442.0" y="10.0" type="move" name="ogonek"/>
    </contour>
    <contour>
      <point x="276.0" y="667.0" type="move" name="top"/>
    </contour>
    <contour>
      <point x="246" y="667" type="move" name="top"/>
    </contour>
  </outline>
</glyph>
<glyph name="K" format="1">
  <advance width="747"/>
  <unicode hex="004B"/>
  <outline>
    <contour>
      <point x="338" y="55" type="line"/>
      <point x="299" y="55" type="line" smooth="yes"/>
      <point x="262" y="55"/>
      <point x="256" y="62"/>
      <point x="256" y="96" type="curve" smooth="yes"/>
      <point x="256" y="270" type="line"/>
      <point x="295" y="311" type="line"/>
      <point x="434" y="113" type="line" smooth="yes"/>
      <point x="447" y="96"/>
      <point x="454" y="84"/>
      <point x="454" y="72" type="curve" smooth="yes"/>
      <point x="454" y="60"/>
      <point x="443" y="55"/>
      <point x="421" y="55" type="curve" smooth="yes"/>
      <point x="386" y="55" type="line"/>
      <point x="386" y="0" type="line"/>
      <point x="694" y="0" type="line"/>
      <point x="694" y="55" type="line"/>
      <point x="652" y="55" type="line" smooth="yes"/>
      <point x="632" y="55"/>
      <point x="613" y="65"/>
      <point x="592" y="93" type="curve" smooth="yes"/>
      <point x="385" y="364" type="line"/>
      <point x="572" y="571" type="line" smooth="yes"/>
      <point x="592" y="593"/>
      <point x="601" y="597"/>
      <point x="629" y="597" type="curve" smooth="yes"/>
      <point x="661" y="597" type="line"/>
      <point x="661" y="652" type="line"/>
      <point x="403" y="652" type="line"/>
      <point x="403" y="597" type="line"/>
      <point x="439" y="597" type="line" smooth="yes"/>
      <point x="456" y="597"/>
      <point x="463" y="591"/>
      <point x="463" y="581" type="curve" smooth="yes"/>
      <point x="463" y="573"/>
      <point x="457" y="565"/>
      <point x="445" y="552" type="curve" smooth="yes"/>
      <point x="256" y="360" type="line"/>
      <point x="256" y="556" type="line" smooth="yes"/>
      <point x="256" y="590"/>
      <point x="262" y="597"/>
      <point x="299" y="597" type="curve" smooth="yes"/>
      <point x="344" y="597" type="line"/>
      <point x="344" y="652" type="line"/>
      <point x="28" y="652" type="line"/>
      <point x="28" y="597" type="line"/>
      <point x="91" y="597" type="line" smooth="yes"/>
      <point x="128" y="597"/>
      <point x="134" y="590"/>
      <point x="134" y="556" type="curve" smooth="yes"/>
      <point x="134" y="96" type="line" smooth="yes"/>
      <point x="134" y="62"/>
      <point x="128" y="55"/>
      <point x="91" y="55" type="curve" smooth="yes"/>
      <point x="28" y="55" type="line"/>
      <point x="28" y="0" type="line"/>
      <point x="338" y="0" type="line"/>
    </contour>
    <contour>
      <point x="374" y="667" type="move" name="top"/>
    </contour>
    <contour>
      <point x="374" y="0" type="move" name="bottom"/>
    </contour>
  </outline>
</glyph>
<glyph name="L" format="1">
  <advance width="616"/>
  <unicode hex="004C"/>
  <outline>
    <contour>
      <point x="282" y="74" type="line"/>
      <point x="282" y="543" type="line" smooth="yes"/>
      <point x="282" y="562"/>
      <point x="283" y="578"/>
      <point x="286" y="591" type="curve"/>
      <point x="307" y="599"/>
      <point x="352" y="599"/>
      <point x="387" y="602" type="curve"/>
      <point x="390" y="667" type="line"/>
      <point x="39" y="667" type="line"/>
      <point x="36" y="602" type="line"/>
      <point x="69" y="599"/>
      <point x="111" y="599"/>
      <point x="133" y="591" type="curve"/>
      <point x="136" y="578"/>
      <point x="137" y="562"/>
      <point x="137" y="543" type="curve" smooth="yes"/>
      <point x="137" y="123" type="line" smooth="yes"/>
      <point x="137" y="104"/>
      <point x="136" y="89"/>
      <point x="133" y="75" type="curve"/>
      <point x="123" y="71"/>
      <point x="109" y="69"/>
      <point x="93" y="68" type="curve" smooth="yes"/>
      <point x="39" y="64" type="line"/>
      <point x="39" y="0" type="line"/>
      <point x="454" y="0" type="line" smooth="yes"/>
      <point x="493" y="0"/>
      <point x="549" y="-3"/>
      <point x="582" y="-3" type="curve"/>
      <point x="582" y="70"/>
      <point x="582" y="143"/>
      <point x="582" y="217" type="curve"/>
      <point x="501" y="221" type="line"/>
      <point x="495" y="150"/>
      <point x="486" y="108"/>
      <point x="473" y="78" type="curve"/>
      <point x="459" y="75"/>
      <point x="444" y="74"/>
      <point x="429" y="74" type="curve" smooth="yes"/>
    </contour>
    <contour>
      <point x="308" y="667" type="move" name="top"/>
    </contour>
    <contour>
      <point x="308" y="0" type="move" name="bottom"/>
    </contour>
  </outline>
</glyph>
<glyph name="M" format="1">
  <advance width="996"/>
  <unicode hex="004D"/>
  <outline>
    <contour>
      <point x="27" y="0" type="line"/>
      <point x="304" y="0" type="line"/>
      <point x="304" y="58" type="line"/>
      <point x="252" y="76" type="line" smooth="yes"/>
      <point x="225" y="86"/>
      <point x="208" y="81"/>
      <point x="208" y="116" type="curve" smooth="yes"/>
      <point x="208" y="129"/>
      <point x="214" y="502"/>
      <point x="218" y="553" type="curve"/>
      <point x="278" y="396"/>
      <point x="354" y="176"/>
      <point x="410" y="0" type="curve"/>
      <point x="521" y="0" type="line"/>
      <point x="580" y="184"/>
      <point x="661" y="402"/>
      <point x="718" y="552" type="curve"/>
      <point x="722" y="499"/>
      <point x="730" y="142"/>
      <point x="730" y="131" type="curve" smooth="yes"/>
      <point x="730" y="93"/>
      <point x="713" y="88"/>
      <point x="684" y="77" type="curve" smooth="yes"/>
      <point x="635" y="58" type="line"/>
      <point x="635" y="0" type="line"/>
      <point x="972" y="0" type="line"/>
      <point x="972" y="58" type="line"/>
      <point x="915" y="78" type="line" smooth="yes"/>
      <point x="898" y="84"/>
      <point x="882" y="97"/>
      <point x="872" y="101" type="curve"/>
      <point x="848" y="183"/>
      <point x="853" y="428"/>
      <point x="853" y="543" type="curve" smooth="yes"/>
      <point x="853" y="583"/>
      <point x="866" y="581"/>
      <point x="899" y="590" type="curve" smooth="yes"/>
      <point x="949" y="603" type="line"/>
      <point x="949" y="667" type="line"/>
      <point x="679" y="667" type="line"/>
      <point x="640" y="582"/>
      <point x="521" y="237"/>
      <point x="490" y="173" type="curve"/>
      <point x="437" y="339"/>
      <point x="368" y="524"/>
      <point x="313" y="667" type="curve"/>
      <point x="49" y="667" type="line"/>
      <point x="49" y="607" type="line"/>
      <point x="90" y="596" type="line" smooth="yes"/>
      <point x="107" y="591"/>
      <point x="120" y="583"/>
      <point x="131" y="579" type="curve"/>
      <point x="135" y="564"/>
      <point x="137" y="543"/>
      <point x="137" y="501" type="curve" smooth="yes"/>
      <point x="137" y="371"/>
      <point x="128" y="148"/>
      <point x="113" y="92" type="curve"/>
      <point x="103" y="88"/>
      <point x="89" y="82"/>
      <point x="74" y="76" type="curve" smooth="yes"/>
      <point x="27" y="58" type="line"/>
    </contour>
  </outline>
</glyph>
<glyph name="O" format="1">
  <advance width="765"/>
  <unicode hex="004F"/>
  <outline>
    <contour>
      <point x="579" y="-14"/>
      <point x="692" y="157"/>
      <point x="692" y="336" type="curve" smooth="yes"/>
      <point x="692" y="505"/>
      <point x="590" y="682"/>
      <point x="387" y="682" type="curve" smooth="yes"/>
      <point x="181" y="682"/>
      <point x="80" y="508"/>
      <point x="80" y="334" type="curve" smooth="yes"/>
      <point x="80" y="160"/>
      <point x="180" y="-14"/>
      <point x="377" y="-14" type="curve" smooth="yes"/>
    </contour>
    <contour>
      <point x="269" y="60"/>
      <point x="205" y="192"/>
      <point x="205" y="326" type="curve" smooth="yes"/>
      <point x="205" y="466"/>
      <point x="273" y="608"/>
      <point x="385" y="608" type="curve" smooth="yes"/>
      <point x="493" y="608"/>
      <point x="562" y="466"/>
      <point x="562" y="326" type="curve" smooth="yes"/>
      <point x="562" y="192"/>
      <point x="498" y="60"/>
      <point x="382" y="60" type="curve" smooth="yes"/>
    </contour>
    <contour>
      <point x="383" y="667" type="move" name="top"/>
    </contour>
  </outline>
</glyph>
<glyph name="P" format="1">
  <advance width="637"/>
  <unicode hex="0050"/>
  <outline>
    <contour>
      <point x="270" y="358" type="line"/>
      <point x="270" y="603" type="line"/>
      <point x="331" y="603" type="line" smooth="yes"/>
      <point x="406" y="603"/>
      <point x="449" y="558"/>
      <point x="449" y="485" type="curve" smooth="yes"/>
      <point x="449" y="398"/>
      <point x="392" y="358"/>
      <point x="315" y="358" type="curve" smooth="yes"/>
    </contour>
    <contour>
      <point x="373" y="0" type="line"/>
      <point x="373" y="55" type="line"/>
      <point x="312" y="71"/>
      <point x="270" y="92"/>
      <point x="270" y="92" type="curve"/>
      <point x="270" y="294" type="line"/>
      <point x="323" y="294" type="line" smooth="yes"/>
      <point x="496" y="294"/>
      <point x="583" y="364"/>
      <point x="583" y="486" type="curve" smooth="yes"/>
      <point x="583" y="608"/>
      <point x="509" y="667"/>
      <point x="355" y="667" type="curve" smooth="yes"/>
      <point x="39" y="667" type="line"/>
      <point x="39" y="612" type="line"/>
      <point x="98" y="593"/>
      <point x="130" y="567"/>
      <point x="130" y="567" type="curve" smooth="yes"/>
      <point x="130" y="93" type="line"/>
      <point x="130" y="93"/>
      <point x="118" y="81"/>
      <point x="39" y="55" type="curve"/>
      <point x="39" y="0" type="line"/>
    </contour>
  </outline>
</glyph>
<glyph name="R" format="1">
  <advance width="677"/>
  <unicode hex="0052"/>
  <outline>
    <contour>
      <point x="254" y="607" type="line"/>
      <point x="355" y="607" type="line" smooth="yes"/>
      <point x="424" y="607"/>
      <point x="477" y="579"/>
      <point x="481" y="504" type="curve" smooth="yes"/>
      <point x="486" y="419"/>
      <point x="398" y="375"/>
      <point x="300" y="375" type="curve" smooth="yes"/>
      <point x="254" y="375" type="line"/>
    </contour>
    <contour>
      <point x="355" y="45" type="line"/>
      <point x="287" y="64"/>
      <point x="254" y="82"/>
      <point x="254" y="82" type="curve"/>
      <point x="254" y="311" type="line"/>
      <point x="302" y="311" type="line" smooth="yes"/>
      <point x="341" y="311"/>
      <point x="325" y="311"/>
      <point x="325" y="312" type="curve" smooth="yes"/>
      <point x="325" y="313"/>
      <point x="481" y="0"/>
      <point x="481" y="0" type="curve"/>
      <point x="646" y="0" type="line"/>
      <point x="646" y="62" type="line"/>
      <point x="566" y="78" type="line"/>
      <point x="546" y="100"/>
      <point x="528" y="141"/>
      <point x="516" y="160" type="curve" smooth="yes"/>
      <point x="512" y="167"/>
      <point x="445" y="278"/>
      <point x="422" y="323" type="curve"/>
      <point x="516" y="353"/>
      <point x="584" y="422"/>
      <point x="584" y="508" type="curve" smooth="yes"/>
      <point x="584" y="610"/>
      <point x="491" y="667"/>
      <point x="344" y="667" type="curve" smooth="yes"/>
      <point x="49" y="667" type="line"/>
      <point x="49" y="622" type="line"/>
      <point x="110" y="606"/>
      <point x="152" y="585"/>
      <point x="152" y="585" type="curve"/>
      <point x="152" y="83" type="line"/>
      <point x="152" y="83"/>
      <point x="121" y="63"/>
      <point x="58" y="45" type="curve"/>
      <point x="58" y="0" type="line"/>
      <point x="355" y="0" type="line"/>
    </contour>
    <contour>
      <point x="367.0" y="10.0" type="move" name="ogonek"/>
    </contour>
    <contour>
      <point x="201.0" y="667.0" type="move" name="top"/>
    </contour>
    <contour>
      <point x="366" y="667" type="move" name="top"/>
    </contour>
    <contour>
      <point x="366" y="0" type="move" name="bottom"/>
    </contour>
  </outline>
</glyph>
<glyph name="X" format="1">
  <advance width="728"/>
  <unicode hex="0058"/>
  <outline>
    <contour>
      <point x="10" y="0" type="line"/>
      <point x="292" y="0" type="line"/>
      <point x="292" y="65" type="line"/>
      <point x="244" y="68" type="line" smooth="yes"/>
      <point x="223" y="69"/>
      <point x="211" y="73"/>
      <point x="204" y="79" type="curve"/>
      <point x="209" y="90"/>
      <point x="218" y="103"/>
      <point x="226" y="114" type="curve" smooth="yes"/>
      <point x="342" y="276" type="line"/>
      <point x="450" y="114" type="line" smooth="yes"/>
      <point x="460" y="99"/>
      <point x="467" y="90"/>
      <point x="471" y="79" type="curve"/>
      <point x="463" y="72"/>
      <point x="446" y="69"/>
      <point x="426" y="68" type="curve" smooth="yes"/>
      <point x="379" y="65" type="line"/>
      <point x="379" y="0" type="line"/>
      <point x="721" y="0" type="line"/>
      <point x="721" y="64" type="line"/>
      <point x="682" y="68" type="line" smooth="yes"/>
      <point x="649" y="72"/>
      <point x="639" y="82"/>
      <point x="622" y="105" type="curve" smooth="yes"/>
      <point x="444" y="353" type="line"/>
      <point x="594" y="553" type="line" smooth="yes"/>
      <point x="604" y="567"/>
      <point x="614" y="579"/>
      <point x="624" y="589" type="curve"/>
      <point x="647" y="599"/>
      <point x="674" y="599"/>
      <point x="699" y="602" type="curve"/>
      <point x="702" y="667" type="line"/>
      <point x="428" y="667" type="line"/>
      <point x="425" y="602" type="line"/>
      <point x="453" y="599"/>
      <point x="491" y="600"/>
      <point x="507" y="589" type="curve"/>
      <point x="501" y="577"/>
      <point x="495" y="566"/>
      <point x="486" y="552" type="curve" smooth="yes"/>
      <point x="388" y="411" type="line"/>
      <point x="297" y="553" type="line" smooth="yes"/>
      <point x="290" y="564"/>
      <point x="283" y="575"/>
      <point x="278" y="587" type="curve"/>
      <point x="293" y="599"/>
      <point x="327" y="599"/>
      <point x="358" y="602" type="curve"/>
      <point x="361" y="667" type="line"/>
      <point x="32" y="667" type="line"/>
      <point x="35" y="602" type="line"/>
      <point x="57" y="599"/>
      <point x="84" y="600"/>
      <point x="104" y="591" type="curve"/>
      <point x="112" y="579"/>
      <point x="124" y="566"/>
      <point x="136" y="549" type="curve" smooth="yes"/>
      <point x="287" y="334" type="line"/>
      <point x="116" y="111" type="line" smooth="yes"/>
      <point x="81" y="66"/>
      <point x="60" y="69"/>
      <point x="12" y="64" type="curve"/>
    </contour>
  </outline>
</glyph>
<glyph name="Y" format="1">
  <advance width="669"/>
  <unicode hex="0059"/>
  <outline>
    <contour>
      <point x="168" y="0" type="line"/>
      <point x="511" y="0" type="line"/>
      <point x="511" y="64" type="line"/>
      <point x="452" y="68" type="line" smooth="yes"/>
      <point x="413" y="71"/>
      <point x="408" y="71"/>
      <point x="408" y="113" type="curve" smooth="yes"/>
      <point x="408" y="239" type="line"/>
      <point x="454" y="341"/>
      <point x="523" y="463"/>
      <point x="580" y="562" type="curve"/>
      <point x="599" y="600"/>
      <point x="619" y="597"/>
      <point x="657" y="602" type="curve"/>
      <point x="659" y="667" type="line"/>
      <point x="402" y="667" type="line"/>
      <point x="402" y="602" type="line"/>
      <point x="456" y="598" type="line" smooth="yes"/>
      <point x="473" y="597"/>
      <point x="481" y="594"/>
      <point x="487" y="587" type="curve"/>
      <point x="483" y="577"/>
      <point x="478" y="565"/>
      <point x="472" y="552" type="curve" smooth="yes"/>
      <point x="428" y="467" type="line" smooth="yes"/>
      <point x="405" y="423"/>
      <point x="384" y="377"/>
      <point x="364" y="333" type="curve"/>
      <point x="343" y="377"/>
      <point x="322" y="422"/>
      <point x="299" y="466" type="curve" smooth="yes"/>
      <point x="254" y="551" type="line" smooth="yes"/>
      <point x="248" y="562"/>
      <point x="241" y="574"/>
      <point x="238" y="587" type="curve"/>
      <point x="253" y="601"/>
      <point x="290" y="599"/>
      <point x="320" y="602" type="curve"/>
      <point x="323" y="667" type="line"/>
      <point x="13" y="667" type="line"/>
      <point x="10" y="602" type="line"/>
      <point x="30" y="599"/>
      <point x="49" y="598"/>
      <point x="66" y="590" type="curve"/>
      <point x="118" y="525"/>
      <point x="195" y="377"/>
      <point x="245" y="280" type="curve" smooth="yes"/>
      <point x="266" y="239" type="line"/>
      <point x="266" y="113" type="line" smooth="yes"/>
      <point x="266" y="71"/>
      <point x="261" y="71"/>
      <point x="222" y="68" type="curve" smooth="yes"/>
      <point x="168" y="64" type="line"/>
    </contour>
    <contour>
      <point x="335" y="667" type="move" name="top"/>
    </contour>
  </outline>
</glyph>
<glyph name="bracketleft" format="1">
  <advance width="345"/>
  <unicode hex="005B"/>
  <outline>
    <contour>
      <point x="313" y="707" type="line"/>
      <point x="86" y="707" type="line"/>
      <point x="86" y="639" type="line"/>
      <point x="86" y="-110" type="line"/>
      <point x="86" y="-183" type="line"/>
      <point x="313" y="-183" type="line"/>
      <point x="313" y="-102" type="line"/>
      <point x="218" y="-102" type="line"/>
      <point x="218" y="631" type="line"/>
      <point x="313" y="631" type="line"/>
    </contour>
  </outline>
</glyph>
<glyph name="backslash" format="1">
  <advance width="378"/>
  <unicode hex="005C"/>
  <outline>
    <contour>
      <point x="382" y="-9" type="line"/>
      <point x="114" y="688" type="line"/>
      <point x="0" y="688" type="line"/>
      <point x="269" y="-9" type="line"/>
    </contour>
  </outline>
</glyph>
<glyph name="bracketright" format="1">
  <advance width="345"/>
  <unicode hex="005D"/>
  <outline>
    <contour>
      <point x="32" y="712" type="line"/>
      <point x="32" y="631" type="line"/>
      <point x="127" y="631" type="line"/>
      <point x="127" y="-102" type="line"/>
      <point x="32" y="-102" type="line"/>
      <point x="32" y="-178" type="line"/>
      <point x="259" y="-178" type="line"/>
      <point x="259" y="-93" type="line"/>
      <point x="259" y="651" type="line"/>
      <point x="259" y="712" type="line"/>
    </contour>
  </outline>
</glyph>
<glyph name="underscore" format="1">
  <advance width="500"/>
  <unicode hex="005F"/>
  <outline>
    <contour>
      <point x="500" y="-112" type="line"/>
      <point x="500" y="-38" type="line"/>
      <point x="0" y="-38" type="line"/>
      <point x="0" y="-112" type="line"/>
    </contour>
  </outline>
</glyph>
<glyph name="a" format="1">
  <advance width="522"/>
  <unicode hex="0061"/>
  <outline>
    <contour>
      <point x="236" y="-13"/>
      <point x="299" y="16"/>
      <point x="333" y="74" type="curve"/>
      <point x="340" y="55"/>
      <point x="359" y="1"/>
      <point x="390" y="-5" type="curve"/>
      <point x="402" y="-5"/>
      <point x="409" y="-5"/>
      <point x="414" y="-5" type="curve" smooth="yes"/>
      <point x="428" y="-5"/>
      <point x="431" y="-4"/>
      <point x="485" y="0" type="curve"/>
      <point x="485" y="45" type="line"/>
      <point x="426" y="45"/>
      <point x="411" y="49"/>
      <point x="411" y="75" type="curve" smooth="yes"/>
      <point x="411" y="75"/>
      <point x="411" y="288"/>
      <point x="411" y="319" type="curve" smooth="yes"/>
      <point x="411" y="461"/>
      <point x="316" y="475"/>
      <point x="253" y="475" type="curve"/>
      <point x="181" y="472"/>
      <point x="141" y="465"/>
      <point x="75" y="432" type="curve"/>
      <point x="75" y="432"/>
      <point x="88" y="307"/>
      <point x="88" y="307" type="curve"/>
      <point x="143" y="307" type="line"/>
      <point x="143" y="307"/>
      <point x="158" y="413"/>
      <point x="158" y="413" type="curve" smooth="yes"/>
      <point x="158" y="413"/>
      <point x="208" y="424"/>
      <point x="238" y="424" type="curve" smooth="yes"/>
      <point x="286" y="424"/>
      <point x="319" y="397"/>
      <point x="319" y="322" type="curve" smooth="yes"/>
      <point x="319" y="305"/>
      <point x="319" y="278"/>
      <point x="319" y="270" type="curve"/>
      <point x="222" y="251" type="line" smooth="yes"/>
      <point x="123" y="231"/>
      <point x="55" y="190"/>
      <point x="55" y="118" type="curve" smooth="yes"/>
      <point x="55" y="30"/>
      <point x="112" y="-13"/>
      <point x="193" y="-13" type="curve"/>
    </contour>
    <contour>
      <point x="319" y="232" type="line"/>
      <point x="319" y="224"/>
      <point x="319" y="194"/>
      <point x="319" y="185" type="curve" smooth="yes"/>
      <point x="319" y="126"/>
      <point x="300.0" y="43.0"/>
      <point x="212" y="43" type="curve" smooth="yes"/>
      <point x="174" y="43"/>
      <point x="144" y="76"/>
      <point x="144" y="113" type="curve" smooth="yes"/>
      <point x="144" y="175"/>
      <point x="208" y="201"/>
      <point x="248" y="213" type="curve" smooth="yes"/>
    </contour>
    <contour>
      <point x="233" y="474" type="move" name="top"/>
    </contour>
    <contour>
      <point x="442" y="10" type="move" name="ogonek"/>
    </contour>
  </outline>
</glyph>
<glyph name="b" format="1">
  <advance width="588"/>
  <unicode hex="0062"/>
  <outline>
    <contour>
      <point x="555" y="237" type="curve" smooth="yes"/>
      <point x="555" y="400"/>
      <point x="462" y="482"/>
      <point x="371" y="476" type="curve" smooth="yes"/>
      <point x="313" y="472"/>
      <point x="260" y="452"/>
      <point x="227" y="409" type="curve"/>
      <point x="227" y="682" type="line"/>
      <point x="160" y="677"/>
      <point x="118" y="673"/>
      <point x="55" y="671" type="curve"/>
      <point x="55" y="628" type="line"/>
      <point x="114" y="615"/>
      <point x="135" y="597"/>
      <point x="135" y="587" type="curve"/>
      <point x="135" y="0" type="line"/>
      <point x="213" y="0" type="line"/>
      <point x="223" y="46" type="line"/>
      <point x="249" y="20"/>
      <point x="306" y="-11"/>
      <point x="357" y="-10" type="curve" smooth="yes"/>
      <point x="474" y="-8"/>
      <point x="555" y="90"/>
    </contour>
    <contour>
      <point x="459" y="97"/>
      <point x="391" y="48"/>
      <point x="330" y="48" type="curve" smooth="yes"/>
      <point x="291" y="48"/>
      <point x="243" y="72"/>
      <point x="227" y="96" type="curve"/>
      <point x="227" y="246" type="line"/>
      <point x="227" y="308"/>
      <point x="236" y="361"/>
      <point x="239" y="372" type="curve"/>
      <point x="255" y="387"/>
      <point x="291" y="411"/>
      <point x="339" y="413" type="curve" smooth="yes"/>
      <point x="408" y="416"/>
      <point x="459" y="359"/>
      <point x="459" y="234" type="curve" smooth="yes"/>
    </contour>
    <contour>
      <point x="191.0" y="0.0" type="move" name="bottom"/>
    </contour>
    <contour>
      <point x="336.0" y="474.0" type="move" name="topright"/>
    </contour>
    <contour>
      <point x="191.0" y="474.0" type="move" name="top"/>
    </contour>
  </outline>
</glyph>
<glyph name="c" format="1">
  <advance width="503"/>
  <unicode hex="0063"/>
  <outline>
    <contour>
      <point x="451" y="83"/>
      <point x="414" y="123"/>
      <point x="414" y="123" type="curve"/>
      <point x="382" y="77"/>
      <point x="331" y="50"/>
      <point x="281" y="50" type="curve" smooth="yes"/>
      <point x="209" y="50"/>
      <point x="143" y="98"/>
      <point x="143" y="233" type="curve" smooth="yes"/>
      <point x="143" y="371"/>
      <point x="208" y="418"/>
      <point x="285" y="418" type="curve" smooth="yes"/>
      <point x="324" y="418"/>
      <point x="350" y="403"/>
      <point x="356" y="396" type="curve" smooth="yes"/>
      <point x="356" y="396"/>
      <point x="376" y="286"/>
      <point x="376" y="286" type="curve"/>
      <point x="376" y="286"/>
      <point x="424" y="286"/>
      <point x="424" y="286" type="curve"/>
      <point x="433" y="443" type="line"/>
      <point x="411" y="452"/>
      <point x="354" y="476"/>
      <point x="276" y="476" type="curve" smooth="yes"/>
      <point x="140" y="476"/>
      <point x="47" y="391"/>
      <point x="47" y="230" type="curve" smooth="yes"/>
      <point x="47" y="85"/>
      <point x="135" y="-5"/>
      <point x="259" y="-13" type="curve" smooth="yes"/>
      <point x="260" y="-13"/>
      <point x="260" y="-13"/>
      <point x="261" y="-13" type="curve" smooth="yes"/>
      <point x="375" y="-12"/>
      <point x="426" y="46"/>
      <point x="451" y="83" type="curve"/>
    </contour>
    <contour>
      <point x="241" y="474" type="move" name="top"/>
    </contour>
    <contour>
      <point x="241" y="0" type="move" name="bottom"/>
    </contour>
  </outline>
</glyph>
<glyph name="d" format="1">
  <advance width="583"/>
  <unicode hex="0064"/>
  <outline>
    <contour>
      <point x="228" y="-13" type="curve" smooth="yes"/>
      <point x="292" y="-13"/>
      <point x="343" y="16"/>
      <point x="373" y="71" type="curve"/>
      <point x="373" y="0" type="line"/>
      <point x="574" y="0" type="line"/>
      <point x="574" y="53" type="line"/>
      <point x="532" y="58"/>
      <point x="491" y="77"/>
      <point x="491" y="81" type="curve" smooth="yes"/>
      <point x="491" y="574" type="line"/>
      <point x="491" y="683" type="line"/>
      <point x="415" y="675"/>
      <point x="342" y="673"/>
      <point x="279" y="671" type="curve"/>
      <point x="279" y="655"/>
      <point x="279" y="618"/>
      <point x="279" y="618" type="curve"/>
      <point x="329" y="604"/>
      <point x="359" y="587"/>
      <point x="359" y="575" type="curve" smooth="yes"/>
      <point x="359" y="430" type="line"/>
      <point x="349" y="442"/>
      <point x="293.264" y="474"/>
      <point x="246" y="474" type="curve" smooth="yes"/>
      <point x="127" y="474"/>
      <point x="34" y="392"/>
      <point x="34" y="219" type="curve" smooth="yes"/>
      <point x="34" y="63"/>
      <point x="121" y="-13"/>
    </contour>
    <contour>
      <point x="278" y="75" type="curve" smooth="yes"/>
      <point x="215" y="75"/>
      <point x="176" y="121"/>
      <point x="176" y="232" type="curve" smooth="yes"/>
      <point x="176" y="347"/>
      <point x="216" y="392"/>
      <point x="279" y="392" type="curve" smooth="yes"/>
      <point x="311" y="392"/>
      <point x="345" y="379"/>
      <point x="359" y="363" type="curve"/>
      <point x="359" y="363"/>
      <point x="359" y="258"/>
      <point x="359" y="201" type="curve" smooth="yes"/>
      <point x="359" y="126"/>
      <point x="335.04" y="75"/>
    </contour>
    <contour>
      <point x="292" y="237" type="move" name="center"/>
    </contour>
  </outline>
</glyph>
<glyph name="e" format="1">
  <advance width="496"/>
  <unicode hex="0065"/>
  <outline>
    <contour>
      <point x="442" y="228" type="line"/>
      <point x="444" y="240"/>
      <point x="444" y="252"/>
      <point x="444" y="263" type="curve" smooth="yes"/>
      <point x="444" y="370"/>
      <point x="393" y="476"/>
      <point x="249" y="476" type="curve" smooth="yes"/>
      <point x="124" y="476"/>
      <point x="33" y="381"/>
      <point x="33" y="229" type="curve" smooth="yes"/>
      <point x="33" y="79"/>
      <point x="129" y="-13"/>
      <point x="257" y="-13" type="curve" smooth="yes"/>
      <point x="351" y="-13"/>
      <point x="404" y="25"/>
      <point x="440" y="85" type="curve"/>
      <point x="440" y="85"/>
      <point x="394" y="125"/>
      <point x="394" y="125" type="curve"/>
      <point x="394" y="125"/>
      <point x="356" y="53"/>
      <point x="280" y="51" type="curve" smooth="yes"/>
      <point x="278" y="51"/>
      <point x="276" y="51"/>
      <point x="275" y="51" type="curve" smooth="yes"/>
      <point x="181" y="51"/>
      <point x="134" y="128"/>
      <point x="129" y="228" type="curve"/>
    </contour>
    <contour>
      <point x="132" y="272" type="line"/>
      <point x="138.53164976" y="378.683612753"/>
      <point x="209.857498698" y="424.0"/>
      <point x="259" y="424" type="curve" smooth="yes"/>
      <point x="315" y="424"/>
      <point x="356" y="387"/>
      <point x="366" y="289" type="curve"/>
    </contour>
    <contour>
      <point x="238" y="474" type="move" name="top"/>
    </contour>
    <contour>
      <point x="238" y="0" type="move" name="bottom"/>
    </contour>
    <contour>
      <point x="444" y="10" type="move" name="ogonek"/>
    </contour>
  </outline>
</glyph>
<glyph name="f" format="1">
  <advance width="393"/>
  <unicode hex="0066"/>
  <outline>
    <contour>
      <point x="326" y="0" type="line"/>
      <point x="326" y="60" type="line"/>
      <point x="282" y="69"/>
      <point x="245" y="89"/>
      <point x="245" y="89" type="curve"/>
      <point x="245" y="392" type="line"/>
      <point x="365" y="392" type="line"/>
      <point x="365" y="462" type="line"/>
      <point x="245" y="462" type="line"/>
      <point x="241" y="492"/>
      <point x="239" y="517"/>
      <point x="239" y="538" type="curve" smooth="yes"/>
      <point x="239" y="622"/>
      <point x="269" y="641"/>
      <point x="294" y="641" type="curve" smooth="yes"/>
      <point x="323" y="641"/>
      <point x="333" y="605"/>
      <point x="346" y="568" type="curve"/>
      <point x="395" y="568" type="line"/>
      <point x="395" y="716" type="line"/>
      <point x="376" y="719"/>
      <point x="353" y="724"/>
      <point x="329" y="724" type="curve" smooth="yes"/>
      <point x="185" y="724"/>
      <point x="113" y="645"/>
      <point x="113" y="497" type="curve" smooth="yes"/>
      <point x="113" y="465" type="line"/>
      <point x="28" y="458" type="line"/>
      <point x="28" y="392" type="line"/>
      <point x="113" y="392" type="line"/>
      <point x="113" y="98" type="line"/>
      <point x="113" y="97"/>
      <point x="111" y="86"/>
      <point x="32" y="60" type="curve"/>
      <point x="32" y="0" type="line"/>
    </contour>
  </outline>
</glyph>
<glyph name="g" format="1">
  <advance width="510.0"/>
  <unicode hex="0067"/>
  <outline>
    <contour>
      <point x="294.386514276" y="430.0"/>
      <point x="346.0" y="402"/>
      <point x="346.0" y="304" type="curve" smooth="yes"/>
      <point x="346.0" y="237"/>
      <point x="309.0" y="191.0"/>
      <point x="249.0" y="191.0" type="curve" smooth="yes"/>
      <point x="187.0" y="191.0"/>
      <point x="144.0" y="239"/>
      <point x="144.0" y="310" type="curve" smooth="yes"/>
      <point x="144.0" y="381"/>
      <point x="189.0" y="430.0"/>
      <point x="243.0" y="430.0" type="curve" smooth="yes"/>
    </contour>
    <contour>
      <point x="26.0" y="-182.0"/>
      <point x="107.0" y="-236.0"/>
      <point x="222.0" y="-241.0" type="curve" smooth="yes"/>
      <point x="397.0" y="-248.0"/>
      <point x="477.0" y="-179"/>
      <point x="477.0" y="-77" type="curve" smooth="yes"/>
      <point x="477.0" y="97"/>
      <point x="125.0" y="42"/>
      <point x="125.0" y="106" type="curve" smooth="yes"/>
      <point x="125.0" y="124"/>
      <point x="157.714260104" y="141.649343665"/>
      <point x="181.0" y="148.0" type="curve"/>
      <point x="195.0" y="146.0"/>
      <point x="224.0" y="140.0"/>
      <point x="242.0" y="140.0" type="curve" smooth="yes"/>
      <point x="366.0" y="140.0"/>
      <point x="436.0" y="207"/>
      <point x="436.0" y="307" type="curve" smooth="yes"/>
      <point x="436.0" y="358"/>
      <point x="402.0" y="401"/>
      <point x="384.0" y="408" type="curve"/>
      <point x="494.0" y="403.0" type="line"/>
      <point x="494.0" y="464.0" type="line"/>
      <point x="342.0" y="453.0" type="line"/>
      <point x="317.0" y="462.0"/>
      <point x="277.0" y="475.0"/>
      <point x="244.0" y="475.0" type="curve" smooth="yes"/>
      <point x="126.0" y="475.0"/>
      <point x="53.0" y="411.0"/>
      <point x="53.0" y="310.0" type="curve" smooth="yes"/>
      <point x="53.0" y="244.0"/>
      <point x="91.0" y="202.0"/>
      <point x="131.0" y="182.0" type="curve"/>
      <point x="93.0" y="171.0"/>
      <point x="45.0" y="136.0"/>
      <point x="45.0" y="92.0" type="curve" smooth="yes"/>
      <point x="45.0" y="45.0"/>
      <point x="72.0" y="27"/>
      <point x="122.0" y="14" type="curve"/>
      <point x="122.0" y="14"/>
      <point x="52.0" y="-30.0"/>
      <point x="42.0" y="-38.0" type="curve"/>
      <point x="33.0" y="-52.0"/>
      <point x="26.0" y="-72.0"/>
      <point x="26.0" y="-91.0" type="curve" smooth="yes"/>
    </contour>
    <contour>
      <point x="388.0" y="-141"/>
      <point x="338.0" y="-180"/>
      <point x="250.0" y="-180" type="curve" smooth="yes"/>
      <point x="147.0" y="-180"/>
      <point x="109.0" y="-136"/>
      <point x="109.0" y="-81" type="curve" smooth="yes"/>
      <point x="109.0" y="-53"/>
      <point x="173.0" y="-1"/>
      <point x="184.0" y="-2" type="curve" smooth="yes"/>
      <point x="369.0" y="-24"/>
      <point x="388.0" y="-49"/>
      <point x="388.0" y="-90" type="curve" smooth="yes"/>
    </contour>
    <contour>
      <point x="248.0" y="474.0" type="move" name="top"/>
    </contour>
  </outline>
</glyph>
<glyph name="h" format="1">
  <advance width="604.0"/>
  <unicode hex="0068"/>
  <outline>
    <contour>
      <point x="273.0" y="46.0" type="line"/>
      <point x="235.0" y="55.0"/>
      <point x="205.0" y="70.0"/>
      <point x="205.0" y="70.0" type="curve" smooth="yes"/>
      <point x="205.0" y="311.0" type="line"/>
      <point x="214.0" y="363.0"/>
      <point x="263.0" y="414.0"/>
      <point x="333.0" y="414.0" type="curve" smooth="yes"/>
      <point x="391.0" y="414.0"/>
      <point x="417.0" y="378.0"/>
      <point x="417.0" y="308.0" type="curve" smooth="yes"/>
      <point x="417.0" y="73.0" type="line"/>
      <point x="417.0" y="72.0"/>
      <point x="412.0" y="59.0"/>
      <point x="346.0" y="45.0" type="curve"/>
      <point x="346.0" y="0.0" type="line"/>
      <point x="584.0" y="0.0" type="line"/>
      <point x="584.0" y="46.0" type="line"/>
      <point x="548.0" y="53.0"/>
      <point x="514.0" y="64.0"/>
      <point x="510.0" y="69.0" type="curve"/>
      <point x="510.0" y="70.0"/>
      <point x="509.0" y="71.0"/>
      <point x="509.0" y="71.0" type="curve" smooth="yes"/>
      <point x="509.0" y="302.0" type="line" smooth="yes"/>
      <point x="509.0" y="425.0"/>
      <point x="434.0" y="476.0"/>
      <point x="356.0" y="476.0" type="curve" smooth="yes"/>
      <point x="299.0" y="476.0"/>
      <point x="245.0" y="457.0"/>
      <point x="205.0" y="402.0" type="curve"/>
      <point x="205.0" y="682.0" type="line"/>
      <point x="138.0" y="677.0"/>
      <point x="96.0" y="673.0"/>
      <point x="33.0" y="671.0" type="curve"/>
      <point x="33.0" y="628.0" type="line"/>
      <point x="92.0" y="615.0"/>
      <point x="113.0" y="598.0"/>
      <point x="113.0" y="588.0" type="curve"/>
      <point x="113.0" y="71.0" type="line" smooth="yes"/>
      <point x="113.0" y="70.0"/>
      <point x="105.0" y="58.0"/>
      <point x="33.0" y="43.0" type="curve"/>
      <point x="33.0" y="0.0" type="line"/>
      <point x="273.0" y="0.0" type="line"/>
    </contour>
  </outline>
</glyph>
<glyph name="i" format="1">
  <advance width="309"/>
  <unicode hex="0069"/>
  <outline>
    <contour>
      <point x="207" y="561"/>
      <point x="228" y="587"/>
      <point x="228" y="620" type="curve" smooth="yes"/>
      <point x="228" y="653"/>
      <point x="205" y="678"/>
      <point x="170" y="678" type="curve" smooth="yes"/>
      <point x="135" y="678"/>
      <point x="113" y="653"/>
      <point x="113" y="620" type="curve" smooth="yes"/>
      <point x="113" y="587"/>
      <point x="137" y="561"/>
      <point x="172" y="561" type="curve" smooth="yes"/>
    </contour>
    <contour>
      <point x="284" y="0" type="line"/>
      <point x="284" y="45" type="line"/>
      <point x="239" y="51"/>
      <point x="212" y="65"/>
      <point x="207" y="71" type="curve"/>
      <point x="207" y="382" type="line"/>
      <point x="209" y="471" type="line"/>
      <point x="154" y="466"/>
      <point x="44" y="460"/>
      <point x="35" y="460" type="curve"/>
      <point x="35" y="417" type="line"/>
      <point x="104" y="401"/>
      <point x="115" y="382"/>
      <point x="115" y="378" type="curve"/>
      <point x="115" y="378"/>
      <point x="115" y="149"/>
      <point x="115" y="72" type="curve"/>
      <point x="115" y="72"/>
      <point x="113" y="59"/>
      <point x="33" y="43" type="curve"/>
      <point x="33" y="0" type="line"/>
    </contour>
  </outline>
</glyph>
<glyph name="j" format="1">
  <advance width="316"/>
  <unicode hex="006A"/>
  <outline>
    <contour>
      <point x="204" y="561"/>
      <point x="231" y="591"/>
      <point x="231" y="630" type="curve" smooth="yes"/>
      <point x="231" y="669"/>
      <point x="204" y="699"/>
      <point x="163" y="699" type="curve" smooth="yes"/>
      <point x="122" y="699"/>
      <point x="95" y="669"/>
      <point x="95" y="630" type="curve" smooth="yes"/>
      <point x="95" y="591"/>
      <point x="122" y="561"/>
      <point x="163" y="561" type="curve" smooth="yes"/>
    </contour>
    <contour>
      <point x="-18" y="-240"/>
      <point x="2" y="-244"/>
      <point x="25" y="-244" type="curve" smooth="yes"/>
      <point x="186" y="-244"/>
      <point x="233" y="-143"/>
      <point x="233" y="-38" type="curve" smooth="yes"/>
      <point x="233" y="367" type="line"/>
      <point x="238" y="471" type="line"/>
      <point x="170" y="463"/>
      <point x="69" y="462"/>
      <point x="21" y="460" type="curve"/>
      <point x="21" y="407" type="line"/>
      <point x="101" y="379"/>
      <point x="101" y="374"/>
      <point x="101" y="309" type="curve"/>
      <point x="101" y="-14" type="line" smooth="yes"/>
      <point x="101" y="-119"/>
      <point x="74" y="-150"/>
      <point x="4" y="-150" type="curve" smooth="yes"/>
      <point x="-13" y="-150"/>
      <point x="-32" y="-148"/>
      <point x="-54" y="-145" type="curve"/>
      <point x="-32" y="-239" type="line"/>
    </contour>
  </outline>
</glyph>
<glyph name="k" format="1">
  <advance width="601"/>
  <unicode hex="006B"/>
  <outline>
    <contour>
      <point x="296" y="55" type="line"/>
      <point x="252" y="64"/>
      <point x="228" y="84"/>
      <point x="228" y="84" type="curve"/>
      <point x="228" y="192" type="line"/>
      <point x="269" y="225" type="line"/>
      <point x="387" y="79" type="line" smooth="yes"/>
      <point x="375" y="63"/>
      <point x="340" y="55"/>
      <point x="340" y="55" type="curve"/>
      <point x="340" y="0" type="line"/>
      <point x="593" y="0" type="line"/>
      <point x="593" y="55" type="line"/>
      <point x="564" y="60"/>
      <point x="530" y="73"/>
      <point x="523" y="81" type="curve" smooth="yes"/>
      <point x="363" y="285" type="line"/>
      <point x="487" y="394" type="line" smooth="yes"/>
      <point x="505" y="412"/>
      <point x="518" y="417"/>
      <point x="535" y="417" type="curve" smooth="yes"/>
      <point x="568" y="417" type="line"/>
      <point x="568" y="466" type="line"/>
      <point x="314" y="466" type="line"/>
      <point x="314" y="417" type="line"/>
      <point x="364" y="417" type="line" smooth="yes"/>
      <point x="371" y="417"/>
      <point x="380" y="413"/>
      <point x="380" y="403" type="curve" smooth="yes"/>
      <point x="380" y="395"/>
      <point x="376" y="383"/>
      <point x="331" y="344" type="curve" smooth="yes"/>
      <point x="228" y="265" type="line"/>
      <point x="228" y="685" type="line"/>
      <point x="161" y="677"/>
      <point x="79" y="673"/>
      <point x="16" y="671" type="curve"/>
      <point x="16" y="618" type="line"/>
      <point x="52" y="606" type="line" smooth="yes"/>
      <point x="91" y="593"/>
      <point x="96" y="578"/>
      <point x="96" y="577" type="curve"/>
      <point x="96" y="93" type="line"/>
      <point x="96" y="92"/>
      <point x="94" y="81"/>
      <point x="15" y="55" type="curve"/>
      <point x="15" y="0" type="line"/>
      <point x="296" y="0" type="line"/>
    </contour>
    <contour>
      <point x="301" y="0" type="move" name="bottom"/>
    </contour>
  </outline>
</glyph>
<glyph name="m" format="1">
  <advance width="892"/>
  <unicode hex="006D"/>
  <outline>
    <contour>
      <point x="273" y="46" type="line"/>
      <point x="235" y="55"/>
      <point x="205" y="70"/>
      <point x="205" y="70" type="curve" smooth="yes"/>
      <point x="205" y="311" type="line"/>
      <point x="214" y="363"/>
      <point x="258" y="414"/>
      <point x="328" y="414" type="curve" smooth="yes"/>
      <point x="386" y="414"/>
      <point x="412" y="378"/>
      <point x="412" y="308" type="curve" smooth="yes"/>
      <point x="412" y="73" type="line"/>
      <point x="412" y="72"/>
      <point x="407" y="59"/>
      <point x="341" y="45" type="curve"/>
      <point x="341" y="0" type="line"/>
      <point x="579" y="0" type="line"/>
      <point x="579" y="46" type="line"/>
      <point x="543" y="53"/>
      <point x="509" y="64"/>
      <point x="505" y="69" type="curve"/>
      <point x="505" y="70"/>
      <point x="504" y="71"/>
      <point x="504" y="71" type="curve" smooth="yes"/>
      <point x="504" y="302" type="line" smooth="yes"/>
      <point x="504" y="315"/>
      <point x="503" y="327"/>
      <point x="502" y="339" type="curve"/>
      <point x="520" y="380"/>
      <point x="564" y="414"/>
      <point x="621" y="414" type="curve" smooth="yes"/>
      <point x="679" y="414"/>
      <point x="705" y="378"/>
      <point x="705" y="308" type="curve" smooth="yes"/>
      <point x="705" y="73" type="line"/>
      <point x="705" y="72"/>
      <point x="700" y="59"/>
      <point x="634" y="45" type="curve"/>
      <point x="634" y="0" type="line"/>
      <point x="872" y="0" type="line"/>
      <point x="872" y="46" type="line"/>
      <point x="836" y="53"/>
      <point x="802" y="64"/>
      <point x="798" y="69" type="curve"/>
      <point x="798" y="70"/>
      <point x="797" y="71"/>
      <point x="797" y="71" type="curve" smooth="yes"/>
      <point x="797" y="302" type="line" smooth="yes"/>
      <point x="797" y="425"/>
      <point x="722" y="476"/>
      <point x="644" y="476" type="curve" smooth="yes"/>
      <point x="584" y="476"/>
      <point x="526" y="455"/>
      <point x="486" y="393" type="curve"/>
      <point x="460" y="451"/>
      <point x="406" y="476"/>
      <point x="351" y="476" type="curve" smooth="yes"/>
      <point x="288" y="476"/>
      <point x="232" y="453"/>
      <point x="192" y="382" type="curve"/>
      <point x="192" y="382"/>
      <point x="192" y="382"/>
      <point x="191" y="382" type="curve"/>
      <point x="191" y="471" type="line"/>
      <point x="147" y="465"/>
      <point x="52" y="460"/>
      <point x="33" y="460" type="curve"/>
      <point x="33" y="417" type="line"/>
      <point x="98" y="402"/>
      <point x="113" y="374"/>
      <point x="113" y="373" type="curve" smooth="yes"/>
      <point x="113" y="71" type="line" smooth="yes"/>
      <point x="113" y="70"/>
      <point x="105" y="58"/>
      <point x="33" y="43" type="curve"/>
      <point x="33" y="0" type="line"/>
      <point x="273" y="0" type="line"/>
    </contour>
    <contour>
      <point x="300.0" y="0.0" type="move" name="bottom"/>
    </contour>
    <contour>
      <point x="300.0" y="474.0" type="move" name="top"/>
    </contour>
  </outline>
</glyph>
<glyph name="n" format="1">
  <advance width="587"/>
  <unicode hex="006E"/>
  <outline>
    <contour>
      <point x="260" y="0" type="line"/>
      <point x="260" y="46" type="line"/>
      <point x="222" y="55"/>
      <point x="192" y="70"/>
      <point x="192" y="70" type="curve" smooth="yes"/>
      <point x="192" y="311" type="line"/>
      <point x="201" y="363"/>
      <point x="250" y="414"/>
      <point x="320" y="414" type="curve" smooth="yes"/>
      <point x="378" y="414"/>
      <point x="404" y="378"/>
      <point x="404" y="308" type="curve" smooth="yes"/>
      <point x="404" y="73" type="line"/>
      <point x="404" y="72"/>
      <point x="399" y="59"/>
      <point x="333" y="45" type="curve"/>
      <point x="333" y="0" type="line"/>
      <point x="571" y="0" type="line"/>
      <point x="571" y="46" type="line"/>
      <point x="535" y="53"/>
      <point x="501" y="64"/>
      <point x="497" y="69" type="curve"/>
      <point x="497" y="70"/>
      <point x="496" y="71"/>
      <point x="496" y="71" type="curve" smooth="yes"/>
      <point x="496" y="302" type="line" smooth="yes"/>
      <point x="496" y="425"/>
      <point x="421" y="476"/>
      <point x="343" y="476" type="curve" smooth="yes"/>
      <point x="280" y="476"/>
      <point x="219" y="453"/>
      <point x="179" y="382" type="curve"/>
      <point x="179" y="382"/>
      <point x="179" y="382"/>
      <point x="178" y="382" type="curve"/>
      <point x="178" y="471" type="line"/>
      <point x="134" y="465"/>
      <point x="39" y="460"/>
      <point x="20" y="460" type="curve"/>
      <point x="20" y="417" type="line"/>
      <point x="85" y="402"/>
      <point x="100" y="374"/>
      <point x="100" y="373" type="curve" smooth="yes"/>
      <point x="100" y="71" type="line" smooth="yes"/>
      <point x="100" y="70"/>
      <point x="92" y="58"/>
      <point x="20" y="43" type="curve"/>
      <point x="20" y="0" type="line"/>
    </contour>
    <contour>
      <point x="287" y="474" type="move" name="top"/>
    </contour>
    <contour>
      <point x="287" y="0" type="move" name="bottom"/>
    </contour>
  </outline>
</glyph>
<glyph name="o" format="1">
  <advance width="508"/>
  <unicode hex="006F"/>
  <outline>
    <contour>
      <point x="477" y="226" type="curve" smooth="yes"/>
      <point x="477" y="369"/>
      <point x="388" y="476"/>
      <point x="258" y="476" type="curve" smooth="yes"/>
      <point x="122" y="476"/>
      <point x="31" y="384"/>
      <point x="31" y="236" type="curve" smooth="yes"/>
      <point x="31" y="94"/>
      <point x="121" y="-13"/>
      <point x="249" y="-13" type="curve" smooth="yes"/>
      <point x="383" y="-13"/>
      <point x="477" y="76"/>
    </contour>
    <contour>
      <point x="381" y="232" type="curve" smooth="yes"/>
      <point x="381" y="114"/>
      <point x="326" y="50"/>
      <point x="253" y="50" type="curve" smooth="yes"/>
      <point x="184" y="50"/>
      <point x="127" y="113"/>
      <point x="127" y="232" type="curve" smooth="yes"/>
      <point x="127" y="356"/>
      <point x="186" y="413"/>
      <point x="254" y="413" type="curve" smooth="yes"/>
      <point x="323" y="413"/>
      <point x="381" y="352"/>
    </contour>
    <contour>
      <point x="254" y="474" type="move" name="top"/>
    </contour>
  </outline>
</glyph>
<glyph name="p" format="1">
  <advance width="594"/>
  <unicode hex="0070"/>
  <outline>
    <contour>
      <point x="438" y="118"/>
      <point x="393" y="50"/>
      <point x="318" y="50" type="curve" smooth="yes"/>
      <point x="241" y="50"/>
      <point x="207" y="103"/>
      <point x="207" y="182" type="curve"/>
      <point x="207" y="181"/>
      <point x="207" y="180"/>
      <point x="207" y="180" type="curve" smooth="yes"/>
      <point x="207" y="180"/>
      <point x="207" y="224"/>
      <point x="207" y="231" type="curve"/>
      <point x="207" y="278"/>
      <point x="212" y="337"/>
      <point x="214" y="353" type="curve"/>
      <point x="236" y="383"/>
      <point x="276" y="413"/>
      <point x="324" y="413" type="curve" smooth="yes"/>
      <point x="388" y="413"/>
      <point x="438" y="343"/>
      <point x="438" y="230" type="curve" smooth="yes"/>
    </contour>
    <contour>
      <point x="290" y="-168" type="line"/>
      <point x="245" y="-162"/>
      <point x="212" y="-144"/>
      <point x="207" y="-138" type="curve"/>
      <point x="207" y="59" type="line"/>
      <point x="237" y="5"/>
      <point x="294" y="-13"/>
      <point x="341" y="-13" type="curve" smooth="yes"/>
      <point x="343" y="-13"/>
      <point x="346" y="-13"/>
      <point x="348" y="-13" type="curve" smooth="yes"/>
      <point x="451" y="-9"/>
      <point x="534" y="73"/>
      <point x="534" y="235" type="curve" smooth="yes"/>
      <point x="534" y="392"/>
      <point x="446" y="476"/>
      <point x="346" y="476" type="curve" smooth="yes"/>
      <point x="283" y="476"/>
      <point x="244" y="453"/>
      <point x="207" y="405" type="curve"/>
      <point x="207" y="471" type="line"/>
      <point x="140" y="466"/>
      <point x="98" y="462"/>
      <point x="35" y="460" type="curve"/>
      <point x="35" y="417" type="line"/>
      <point x="94" y="404"/>
      <point x="115" y="386"/>
      <point x="115" y="376" type="curve"/>
      <point x="115" y="-138" type="line"/>
      <point x="115" y="-138"/>
      <point x="113" y="-152"/>
      <point x="33" y="-168" type="curve"/>
      <point x="33" y="-211" type="line"/>
      <point x="290" y="-211" type="line"/>
    </contour>
    <contour>
      <point x="171" y="0" type="move" name="bottom"/>
    </contour>
    <contour>
      <point x="316" y="474" type="move" name="topright"/>
    </contour>
    <contour>
      <point x="171" y="474" type="move" name="top"/>
    </contour>
  </outline>
</glyph>
<glyph name="q" format="1">
  <advance width="576"/>
  <unicode hex="0071"/>
  <outline>
    <contour>
      <point x="323" y="80"/>
      <point x="299" y="73"/>
      <point x="275" y="73" type="curve" smooth="yes"/>
      <point x="220" y="73"/>
      <point x="176" y="118"/>
      <point x="176" y="231" type="curve" smooth="yes"/>
      <point x="176" y="346"/>
      <point x="217" y="389"/>
      <point x="281" y="389" type="curve" smooth="yes"/>
      <point x="359" y="389"/>
      <point x="360" y="315"/>
      <point x="360" y="225" type="curve" smooth="yes"/>
      <point x="360" y="168"/>
      <point x="352" y="125"/>
      <point x="338" y="93" type="curve"/>
    </contour>
    <contour>
      <point x="584" y="-236" type="line"/>
      <point x="584" y="-176" type="line"/>
      <point x="499" y="-155"/>
      <point x="491" y="-143"/>
      <point x="491" y="-122" type="curve"/>
      <point x="491" y="299" type="line" smooth="yes"/>
      <point x="491" y="387"/>
      <point x="500" y="441"/>
      <point x="500" y="442" type="curve"/>
      <point x="500" y="451" type="line"/>
      <point x="393" y="461" type="line"/>
      <point x="368" y="394" type="line"/>
      <point x="347" y="455"/>
      <point x="272" y="470"/>
      <point x="234" y="470" type="curve" smooth="yes"/>
      <point x="119" y="470"/>
      <point x="34" y="378"/>
      <point x="34" y="218" type="curve" smooth="yes"/>
      <point x="34" y="68"/>
      <point x="116" y="-13"/>
      <point x="226" y="-13" type="curve" smooth="yes"/>
      <point x="282" y="-13"/>
      <point x="329" y="10"/>
      <point x="358" y="48" type="curve"/>
      <point x="358" y="48"/>
      <point x="358" y="48"/>
      <point x="359" y="48" type="curve"/>
      <point x="359" y="-122" type="line"/>
      <point x="359" y="-141"/>
      <point x="350" y="-155"/>
      <point x="268" y="-176" type="curve"/>
      <point x="268" y="-236" type="line"/>
    </contour>
  </outline>
</glyph>
<glyph name="r" format="1">
  <advance width="457"/>
  <unicode hex="0072"/>
  <outline>
    <contour>
      <point x="21" y="0" type="line"/>
      <point x="345" y="0" type="line"/>
      <point x="345" y="60" type="line"/>
      <point x="282" y="64" type="line" smooth="yes"/>
      <point x="237" y="67"/>
      <point x="237" y="76"/>
      <point x="237" y="117" type="curve" smooth="yes"/>
      <point x="237" y="272" type="line"/>
      <point x="247" y="328"/>
      <point x="285" y="368"/>
      <point x="323" y="368" type="curve" smooth="yes"/>
      <point x="342" y="368"/>
      <point x="348" y="346"/>
      <point x="348" y="321" type="curve"/>
      <point x="421" y="321" type="line"/>
      <point x="431" y="467" type="line"/>
      <point x="408" y="474"/>
      <point x="388" y="475"/>
      <point x="365" y="475" type="curve"/>
      <point x="304" y="472"/>
      <point x="261" y="442"/>
      <point x="221" y="359" type="curve"/>
      <point x="223" y="471" type="line"/>
      <point x="167" y="463"/>
      <point x="90" y="455"/>
      <point x="30" y="451" type="curve"/>
      <point x="30" y="410" type="line"/>
      <point x="62" y="396" type="line"/>
      <point x="89" y="387"/>
      <point x="98" y="373"/>
      <point x="105" y="330" type="curve"/>
      <point x="105" y="117" type="line" smooth="yes"/>
      <point x="105" y="79"/>
      <point x="107" y="68"/>
      <point x="64" y="64" type="curve" smooth="yes"/>
      <point x="21" y="60" type="line"/>
    </contour>
    <contour>
      <point x="229" y="474" type="move" name="top"/>
    </contour>
    <contour>
      <point x="229" y="0" type="move" name="bottom"/>
    </contour>
  </outline>
</glyph>
<glyph name="s" format="1">
  <advance width="455"/>
  <unicode hex="0073"/>
  <outline>
    <contour>
      <point x="322" y="-13"/>
      <point x="415" y="42"/>
      <point x="415" y="142" type="curve" smooth="yes"/>
      <point x="415" y="242"/>
      <point x="326" y="264"/>
      <point x="227" y="304" type="curve" smooth="yes"/>
      <point x="195" y="317"/>
      <point x="176" y="336"/>
      <point x="176" y="364" type="curve" smooth="yes"/>
      <point x="176" y="392"/>
      <point x="204" y="408"/>
      <point x="236" y="408" type="curve" smooth="yes"/>
      <point x="270" y="408"/>
      <point x="309" y="389"/>
      <point x="314" y="318" type="curve" smooth="yes"/>
      <point x="314" y="318"/>
      <point x="379" y="318"/>
      <point x="379" y="318" type="curve"/>
      <point x="395" y="444" type="line"/>
      <point x="366" y="457"/>
      <point x="308" y="476"/>
      <point x="245" y="476" type="curve" smooth="yes"/>
      <point x="136" y="476"/>
      <point x="45" y="421"/>
      <point x="45" y="333" type="curve" smooth="yes"/>
      <point x="45" y="250"/>
      <point x="113" y="213"/>
      <point x="199" y="182" type="curve" smooth="yes"/>
      <point x="263" y="158"/>
      <point x="283" y="140"/>
      <point x="283" y="108" type="curve" smooth="yes"/>
      <point x="283" y="75.7989"/>
      <point x="250.238" y="56"/>
      <point x="210" y="56" type="curve" smooth="yes"/>
      <point x="163" y="56"/>
      <point x="125" y="87"/>
      <point x="125" y="145" type="curve"/>
      <point x="125" y="145"/>
      <point x="60" y="145"/>
      <point x="60" y="145" type="curve"/>
      <point x="44" y="19" type="line"/>
      <point x="76" y="4"/>
      <point x="145" y="-13"/>
      <point x="211" y="-13" type="curve" smooth="yes"/>
    </contour>
    <contour>
      <point x="228" y="474" type="move" name="top"/>
    </contour>
    <contour>
      <point x="228" y="0" type="move" name="bottom"/>
    </contour>
  </outline>
</glyph>
<glyph name="t" format="1">
  <advance width="411"/>
  <unicode hex="0074"/>
  <outline>
    <contour>
      <point x="141" y="144" type="line" smooth="yes"/>
      <point x="141" y="28"/>
      <point x="201" y="-14"/>
      <point x="278" y="-14" type="curve" smooth="yes"/>
      <point x="347" y="-14"/>
      <point x="391" y="25"/>
      <point x="401" y="109" type="curve"/>
      <point x="401" y="109"/>
      <point x="353" y="130"/>
      <point x="353" y="130" type="curve"/>
      <point x="341" y="82"/>
      <point x="323" y="47"/>
      <point x="289" y="47" type="curve" smooth="yes"/>
      <point x="251.880131797" y="47.0"/>
      <point x="233.0" y="68.4146514595"/>
      <point x="233" y="147" type="curve" smooth="yes"/>
      <point x="233" y="404" type="line"/>
      <point x="369" y="404" type="line"/>
      <point x="369" y="462" type="line"/>
      <point x="233" y="462" type="line"/>
      <point x="233" y="592" type="line"/>
      <point x="192" y="592" type="line"/>
      <point x="171" y="520"/>
      <point x="176" y="444"/>
      <point x="57" y="444" type="curve"/>
      <point x="57" y="404" type="line"/>
      <point x="141" y="404" type="line"/>
    </contour>
    <contour>
      <point x="206" y="0" type="move" name="bottom"/>
    </contour>
    <contour>
      <point x="206" y="237" type="move" name="center"/>
    </contour>
  </outline>
</glyph>
<glyph name="u" format="1">
  <advance width="597"/>
  <unicode hex="0075"/>
  <outline>
    <contour>
      <point x="409" y="0" type="line"/>
      <point x="564" y="0" type="line"/>
      <point x="564" y="45" type="line"/>
      <point x="529" y="50"/>
      <point x="487" y="69"/>
      <point x="487" y="71" type="curve" smooth="yes"/>
      <point x="487" y="471" type="line"/>
      <point x="420" y="467"/>
      <point x="380" y="460"/>
      <point x="315" y="460" type="curve"/>
      <point x="315" y="417" type="line"/>
      <point x="367" y="406"/>
      <point x="395" y="385"/>
      <point x="395" y="379" type="curve" smooth="yes"/>
      <point x="395" y="164" type="line" smooth="yes"/>
      <point x="395" y="111"/>
      <point x="326" y="49"/>
      <point x="264" y="49" type="curve" smooth="yes"/>
      <point x="212" y="49"/>
      <point x="188" y="87"/>
      <point x="188" y="142" type="curve" smooth="yes"/>
      <point x="188" y="374" type="line"/>
      <point x="191" y="471" type="line"/>
      <point x="124" y="463"/>
      <point x="21" y="460"/>
      <point x="16" y="460" type="curve"/>
      <point x="16" y="417" type="line"/>
      <point x="48" y="411"/>
      <point x="96" y="392"/>
      <point x="96" y="377" type="curve" smooth="yes"/>
      <point x="96" y="141" type="line" smooth="yes"/>
      <point x="96" y="32"/>
      <point x="167" y="-12"/>
      <point x="238" y="-12" type="curve" smooth="yes"/>
      <point x="309" y="-12"/>
      <point x="378" y="27"/>
      <point x="408" y="81" type="curve"/>
      <point x="408" y="81"/>
      <point x="408" y="81"/>
      <point x="409" y="81" type="curve"/>
    </contour>
    <contour>
      <point x="296" y="474" type="move" name="top"/>
    </contour>
    <contour>
      <point x="547" y="10" type="move" name="ogonek"/>
    </contour>
  </outline>
</glyph>
<glyph name="v" format="1">
  <advance width="520"/>
  <unicode hex="0076"/>
  <outline>
    <contour>
      <point x="530" y="465" type="line"/>
      <point x="315" y="465" type="line"/>
      <point x="315" y="401" type="line"/>
      <point x="355" y="401"/>
      <point x="370" y="393"/>
      <point x="370" y="382" type="curve" smooth="yes"/>
      <point x="370" y="379"/>
      <point x="369" y="375"/>
      <point x="367" y="372" type="curve"/>
      <point x="281" y="120" type="line"/>
      <point x="281" y="120"/>
      <point x="281" y="120"/>
      <point x="280" y="120" type="curve"/>
      <point x="191" y="363" type="line" smooth="yes"/>
      <point x="189" y="369"/>
      <point x="187" y="373"/>
      <point x="187" y="377" type="curve" smooth="yes"/>
      <point x="187" y="386"/>
      <point x="196" y="392"/>
      <point x="233" y="404" type="curve"/>
      <point x="233" y="465" type="line"/>
      <point x="-13" y="465" type="line"/>
      <point x="-13" y="400" type="line"/>
      <point x="18" y="398" type="line" smooth="yes"/>
      <point x="47" y="394"/>
      <point x="46" y="380"/>
      <point x="58" y="357" type="curve"/>
      <point x="208" y="-3" type="line"/>
      <point x="311" y="-3" type="line"/>
      <point x="459" y="361" type="line" smooth="yes"/>
      <point x="468" y="382"/>
      <point x="472" y="399"/>
      <point x="498" y="399" type="curve"/>
      <point x="530" y="401" type="line"/>
    </contour>
  </outline>
</glyph>
<glyph name="w" format="1">
  <advance width="832"/>
  <unicode hex="0077"/>
  <outline>
    <contour>
      <point x="824" y="462" type="line"/>
      <point x="601" y="462" type="line"/>
      <point x="601" y="401" type="line"/>
      <point x="641" y="399" type="line" smooth="yes"/>
      <point x="658" y="398"/>
      <point x="666" y="396"/>
      <point x="671" y="388" type="curve"/>
      <point x="669" y="377"/>
      <point x="665" y="367"/>
      <point x="661" y="354" type="curve" smooth="yes"/>
      <point x="605" y="134" type="line"/>
      <point x="605" y="134"/>
      <point x="605" y="134"/>
      <point x="604" y="134" type="curve"/>
      <point x="501" y="464" type="line"/>
      <point x="501" y="464"/>
      <point x="366" y="464"/>
      <point x="366" y="464" type="curve"/>
      <point x="366" y="464"/>
      <point x="263" y="134"/>
      <point x="263" y="134" type="curve"/>
      <point x="212" y="349" type="line" smooth="yes"/>
      <point x="209" y="361"/>
      <point x="205" y="371"/>
      <point x="204" y="381" type="curve"/>
      <point x="205" y="389"/>
      <point x="210" y="397"/>
      <point x="219" y="398" type="curve" smooth="yes"/>
      <point x="254" y="402" type="line"/>
      <point x="254" y="464" type="line"/>
      <point x="8" y="464" type="line"/>
      <point x="8" y="399" type="line"/>
      <point x="38" y="398" type="line" smooth="yes"/>
      <point x="51" y="397"/>
      <point x="60" y="394"/>
      <point x="67" y="382" type="curve"/>
      <point x="182" y="-3" type="line"/>
      <point x="289" y="-3" type="line"/>
      <point x="417" y="373" type="line"/>
      <point x="418" y="373"/>
      <point x="418" y="373"/>
      <point x="418" y="373" type="curve"/>
      <point x="539" y="-3" type="line"/>
      <point x="644" y="-3" type="line"/>
      <point x="751" y="349" type="line" smooth="yes"/>
      <point x="761" y="379"/>
      <point x="763" y="399"/>
      <point x="792" y="399" type="curve"/>
      <point x="824" y="401" type="line"/>
    </contour>
    <contour>
      <point x="416" y="474" type="move" name="top"/>
    </contour>
  </outline>
</glyph>
<glyph name="x" format="1">
  <advance width="541"/>
  <unicode hex="0078"/>
  <outline>
    <contour>
      <point x="532" y="0" type="line"/>
      <point x="531" y="58" type="line"/>
      <point x="504" y="63"/>
      <point x="486" y="69"/>
      <point x="466" y="94" type="curve" smooth="yes"/>
      <point x="347" y="243" type="line"/>
      <point x="455" y="366" type="line" smooth="yes"/>
      <point x="470" y="384"/>
      <point x="480" y="392"/>
      <point x="495" y="396" type="curve" smooth="yes"/>
      <point x="521" y="402" type="line"/>
      <point x="521" y="462" type="line"/>
      <point x="325" y="462" type="line"/>
      <point x="325" y="402" type="line"/>
      <point x="351" y="398" type="line"/>
      <point x="363" y="397"/>
      <point x="369" y="395"/>
      <point x="372" y="388" type="curve"/>
      <point x="360" y="373"/>
      <point x="346" y="356"/>
      <point x="299" y="297" type="curve"/>
      <point x="254" y="361"/>
      <point x="242" y="377"/>
      <point x="232" y="394" type="curve"/>
      <point x="233" y="404"/>
      <point x="238" y="410"/>
      <point x="247" y="414" type="curve"/>
      <point x="259" y="427" type="line"/>
      <point x="262" y="464" type="line"/>
      <point x="23" y="464" type="line"/>
      <point x="23" y="399" type="line"/>
      <point x="39" y="398" type="line" smooth="yes"/>
      <point x="61" y="396"/>
      <point x="69" y="389"/>
      <point x="84" y="370" type="curve" smooth="yes"/>
      <point x="190" y="237" type="line"/>
      <point x="72" y="94" type="line"/>
      <point x="49" y="64"/>
      <point x="36" y="62"/>
      <point x="9" y="58" type="curve"/>
      <point x="8" y="0" type="line"/>
      <point x="210" y="0" type="line"/>
      <point x="210" y="58" type="line"/>
      <point x="183" y="61" type="line" smooth="yes"/>
      <point x="170" y="62"/>
      <point x="163" y="68"/>
      <point x="159" y="73" type="curve"/>
      <point x="172" y="91"/>
      <point x="186" y="113"/>
      <point x="239" y="182" type="curve"/>
      <point x="288" y="113"/>
      <point x="303" y="90"/>
      <point x="315" y="70" type="curve"/>
      <point x="314" y="55"/>
      <point x="304" y="48"/>
      <point x="287" y="42" type="curve"/>
      <point x="284" y="0" type="line"/>
    </contour>
  </outline>
</glyph>
<glyph name="y" format="1">
  <advance width="544"/>
  <unicode hex="0079"/>
  <outline>
    <contour>
      <point x="506" y="355" type="line"/>
      <point x="518" y="377"/>
      <point x="519" y="399"/>
      <point x="546" y="400" type="curve" smooth="yes"/>
      <point x="579" y="402" type="line"/>
      <point x="579" y="462" type="line"/>
      <point x="336" y="462" type="line"/>
      <point x="336" y="401" type="line"/>
      <point x="374" y="399" type="line" smooth="yes"/>
      <point x="389" y="398"/>
      <point x="399" y="398"/>
      <point x="405" y="389" type="curve"/>
      <point x="403" y="380"/>
      <point x="399" y="370"/>
      <point x="395" y="358" type="curve" smooth="yes"/>
      <point x="297" y="117" type="line"/>
      <point x="213" y="349" type="line" smooth="yes"/>
      <point x="209" y="361"/>
      <point x="203" y="374"/>
      <point x="203" y="387" type="curve" smooth="yes"/>
      <point x="203" y="400"/>
      <point x="226" y="400"/>
      <point x="262" y="400" type="curve"/>
      <point x="262" y="465" type="line"/>
      <point x="-17" y="465" type="line"/>
      <point x="-17" y="400" type="line"/>
      <point x="29" y="398" type="line" smooth="yes"/>
      <point x="60" y="395"/>
      <point x="61" y="380"/>
      <point x="76" y="345" type="curve"/>
      <point x="210" y="6" type="line"/>
      <point x="216" y="-10" type="line"/>
      <point x="216" y="-10"/>
      <point x="152" y="-153"/>
      <point x="152" y="-153" type="curve" smooth="yes"/>
      <point x="75" y="-168" type="line"/>
      <point x="75" y="-236" type="line"/>
      <point x="361" y="-236" type="line"/>
      <point x="361" y="-168" type="line"/>
      <point x="278" y="-153" type="line"/>
      <point x="278" y="-153"/>
      <point x="340" y="-13"/>
      <point x="381" y="84" type="curve" smooth="yes"/>
    </contour>
    <contour>
      <point x="272" y="474" type="move" name="top"/>
    </contour>
  </outline>
</glyph>
<glyph name="braceright" format="1">
  <advance width="338"/>
  <unicode hex="007D"/>
  <outline>
    <contour>
      <point x="18" y="710" type="curve"/>
      <point x="18" y="657" type="line"/>
      <point x="78" y="653"/>
      <point x="107" y="626"/>
      <point x="107" y="561" type="curve" smooth="yes"/>
      <point x="107" y="503"/>
      <point x="93" y="429"/>
      <point x="93" y="372" type="curve"/>
      <point x="97" y="316"/>
      <point x="128" y="276"/>
      <point x="217" y="268" type="curve"/>
      <point x="217" y="261" type="line"/>
      <point x="128" y="252"/>
      <point x="93" y="210"/>
      <point x="93" y="155" type="curve" smooth="yes"/>
      <point x="93" y="94"/>
      <point x="107" y="27"/>
      <point x="107" y="-32" type="curve" smooth="yes"/>
      <point x="107" y="-96"/>
      <point x="65" y="-125"/>
      <point x="18" y="-128" type="curve"/>
      <point x="18" y="-181" type="line"/>
      <point x="18" y="-181"/>
      <point x="42" y="-181"/>
      <point x="54" y="-181" type="curve" smooth="yes"/>
      <point x="168" y="-181"/>
      <point x="237" y="-147"/>
      <point x="237" y="-30" type="curve" smooth="yes"/>
      <point x="237" y="37"/>
      <point x="228" y="124"/>
      <point x="228" y="176" type="curve" smooth="yes"/>
      <point x="228" y="220"/>
      <point x="253" y="235"/>
      <point x="307" y="240" type="curve"/>
      <point x="307" y="240"/>
      <point x="307" y="296"/>
      <point x="307" y="296" type="curve"/>
      <point x="247" y="307"/>
      <point x="221" y="327"/>
      <point x="221" y="376" type="curve" smooth="yes"/>
      <point x="221" y="423"/>
      <point x="237" y="500"/>
      <point x="237" y="559" type="curve" smooth="yes"/>
      <point x="237" y="671"/>
      <point x="177" y="710"/>
      <point x="52" y="710" type="curve" smooth="yes"/>
      <point x="41" y="710"/>
      <point x="18" y="710"/>
    </contour>
  </outline>
</glyph>
<glyph name="asciitilde" format="1">
  <advance width="550"/>
  <unicode hex="007E"/>
  <outline>
    <contour>
      <point x="490" y="275" type="curve"/>
      <point x="449" y="319" type="line"/>
      <point x="432" y="287"/>
      <point x="410" y="251"/>
      <point x="377" y="251" type="curve" smooth="yes"/>
      <point x="331" y="251"/>
      <point x="234" y="313"/>
      <point x="175" y="313" type="curve" smooth="yes"/>
      <point x="114" y="313"/>
      <point x="78" y="265"/>
      <point x="58" y="203" type="curve"/>
      <point x="96" y="158" type="line"/>
      <point x="115" y="193"/>
      <point x="139" y="225"/>
      <point x="171" y="225" type="curve" smooth="yes"/>
      <point x="215" y="225"/>
      <point x="315" y="164"/>
      <point x="374" y="164" type="curve" smooth="yes"/>
      <point x="435" y="164"/>
      <point x="474" y="212"/>
    </contour>
  </outline>
</glyph>
<glyph name="cent" format="1">
  <advance width="538"/>
  <unicode hex="00A2"/>
  <outline>
    <contour>
      <point x="262" y="498" type="line"/>
      <point x="117" y="485"/>
      <point x="55" y="380"/>
      <point x="55" y="242" type="curve" smooth="yes"/>
      <point x="55" y="104"/>
      <point x="117" y="-1"/>
      <point x="262" y="-14" type="curve"/>
      <point x="262" y="-82" type="line"/>
      <point x="320" y="-82" type="line"/>
      <point x="320" y="-14" type="line"/>
      <point x="469" y="-7"/>
      <point x="501" y="74"/>
      <point x="501" y="178" type="curve"/>
      <point x="405" y="178" type="line"/>
      <point x="401" y="94"/>
      <point x="379" y="56"/>
      <point x="320" y="50" type="curve"/>
      <point x="320" y="442" type="line"/>
      <point x="387" y="440"/>
      <point x="393" y="403"/>
      <point x="395" y="321" type="curve"/>
      <point x="491" y="321" type="line"/>
      <point x="491" y="468" type="line"/>
      <point x="436" y="487"/>
      <point x="378" y="497"/>
      <point x="320" y="500" type="curve"/>
      <point x="320" y="555" type="line"/>
      <point x="262" y="555" type="line"/>
    </contour>
    <contour>
      <point x="262" y="54" type="line"/>
      <point x="214" y="68"/>
      <point x="189" y="119"/>
      <point x="189" y="249" type="curve" smooth="yes"/>
      <point x="189" y="369"/>
      <point x="217" y="417"/>
      <point x="262" y="434" type="curve"/>
    </contour>
  </outline>
</glyph>
<glyph name="yen" format="1">
  <advance width="538"/>
  <unicode hex="00A5"/>
  <outline>
    <contour>
      <point x="445" y="0" type="line"/>
      <point x="445" y="64" type="line"/>
      <point x="386" y="68" type="line" smooth="yes"/>
      <point x="347" y="71"/>
      <point x="342" y="71"/>
      <point x="342" y="113" type="curve" smooth="yes"/>
      <point x="342" y="143" type="line"/>
      <point x="459" y="143" type="line"/>
      <point x="459" y="203" type="line"/>
      <point x="84" y="202" type="line"/>
      <point x="84" y="142" type="line"/>
      <point x="200" y="142" type="line"/>
      <point x="200" y="113" type="line" smooth="yes"/>
      <point x="200" y="71"/>
      <point x="195" y="71"/>
      <point x="156" y="68" type="curve" smooth="yes"/>
      <point x="102" y="64" type="line"/>
      <point x="102" y="0" type="line"/>
    </contour>
    <contour>
      <point x="459" y="255" type="line"/>
      <point x="459" y="315" type="line"/>
      <point x="378" y="315" type="line"/>
      <point x="420" y="398"/>
      <point x="471" y="487"/>
      <point x="514" y="562" type="curve"/>
      <point x="533" y="600"/>
      <point x="553" y="597"/>
      <point x="591" y="602" type="curve"/>
      <point x="593" y="667" type="line"/>
      <point x="336" y="667" type="line"/>
      <point x="336" y="602" type="line"/>
      <point x="390" y="598" type="line" smooth="yes"/>
      <point x="407" y="597"/>
      <point x="415" y="594"/>
      <point x="421" y="587" type="curve"/>
      <point x="417" y="577"/>
      <point x="412" y="565"/>
      <point x="406" y="552" type="curve" smooth="yes"/>
      <point x="362" y="467" type="line" smooth="yes"/>
      <point x="339" y="423"/>
      <point x="318" y="377"/>
      <point x="298" y="333" type="curve"/>
      <point x="277" y="377"/>
      <point x="256" y="422"/>
      <point x="233" y="466" type="curve" smooth="yes"/>
      <point x="188" y="551" type="line" smooth="yes"/>
      <point x="182" y="562"/>
      <point x="175" y="574"/>
      <point x="172" y="587" type="curve"/>
      <point x="187" y="601"/>
      <point x="224" y="599"/>
      <point x="254" y="602" type="curve"/>
      <point x="257" y="667" type="line"/>
      <point x="-53" y="667" type="line"/>
      <point x="-56" y="602" type="line"/>
      <point x="-36" y="599"/>
      <point x="-17" y="598"/>
      <point x="0" y="590" type="curve"/>
      <point x="46" y="532"/>
      <point x="112" y="410"/>
      <point x="161" y="315" type="curve"/>
      <point x="84" y="315" type="line"/>
      <point x="84" y="254" type="line"/>
    </contour>
  </outline>
</glyph>
<glyph name="section" format="1">
  <advance width="538"/>
  <unicode hex="00A7"/>
  <outline>
    <contour>
      <point x="492" y="317" type="curve" smooth="yes"/>
      <point x="492" y="470"/>
      <point x="217" y="462"/>
      <point x="217" y="555" type="curve" smooth="yes"/>
      <point x="217" y="590"/>
      <point x="251" y="594"/>
      <point x="279" y="594" type="curve" smooth="yes"/>
      <point x="300" y="594"/>
      <point x="308" y="583"/>
      <point x="310" y="561" type="curve"/>
      <point x="328" y="552"/>
      <point x="395" y="548"/>
      <point x="424" y="542" type="curve"/>
      <point x="436" y="662" type="line"/>
      <point x="402" y="674"/>
      <point x="356" y="681"/>
      <point x="312" y="681" type="curve" smooth="yes"/>
      <point x="200" y="681"/>
      <point x="102" y="629"/>
      <point x="102" y="530" type="curve" smooth="yes"/>
      <point x="102" y="491"/>
      <point x="119" y="456"/>
      <point x="152" y="438" type="curve"/>
      <point x="122" y="423"/>
      <point x="46" y="394"/>
      <point x="46" y="310" type="curve" smooth="yes"/>
      <point x="46" y="170"/>
      <point x="325" y="163"/>
      <point x="325" y="71" type="curve" smooth="yes"/>
      <point x="325" y="37"/>
      <point x="296" y="29"/>
      <point x="256" y="29" type="curve" smooth="yes"/>
      <point x="233" y="29"/>
      <point x="223" y="44"/>
      <point x="221" y="73" type="curve"/>
      <point x="190" y="73"/>
      <point x="140" y="80"/>
      <point x="108" y="87" type="curve"/>
      <point x="96" y="-39" type="line"/>
      <point x="131" y="-50"/>
      <point x="179" y="-58"/>
      <point x="226" y="-58" type="curve" smooth="yes"/>
      <point x="297" y="-58"/>
      <point x="440" y="-27"/>
      <point x="440" y="100" type="curve" smooth="yes"/>
      <point x="440" y="145"/>
      <point x="415" y="175"/>
      <point x="393" y="192" type="curve"/>
      <point x="448" y="212"/>
      <point x="492" y="250"/>
    </contour>
    <contour>
      <point x="375" y="291" type="curve" smooth="yes"/>
      <point x="375" y="260"/>
      <point x="353" y="237"/>
      <point x="330" y="227" type="curve"/>
      <point x="245" y="262"/>
      <point x="164" y="295"/>
      <point x="164" y="339" type="curve" smooth="yes"/>
      <point x="164" y="368"/>
      <point x="184" y="388"/>
      <point x="213" y="398" type="curve"/>
      <point x="293" y="366"/>
      <point x="375" y="341"/>
    </contour>
  </outline>
</glyph>
<glyph name="dieresis" format="1">
  <advance width="389"/>
  <unicode hex="00A8"/>
  <outline>
    <contour>
      <point x="160" y="632" type="curve" smooth="yes"/>
      <point x="160" y="671"/>
      <point x="133" y="699"/>
      <point x="96" y="699" type="curve" smooth="yes"/>
      <point x="58" y="699"/>
      <point x="31" y="671"/>
      <point x="31" y="632" type="curve" smooth="yes"/>
      <point x="31" y="593"/>
      <point x="58" y="564"/>
      <point x="96" y="564" type="curve" smooth="yes"/>
      <point x="133" y="564"/>
      <point x="160" y="593"/>
    </contour>
    <contour>
      <point x="361" y="632" type="curve" smooth="yes"/>
      <point x="361" y="671"/>
      <point x="334" y="699"/>
      <point x="296" y="699" type="curve" smooth="yes"/>
      <point x="259" y="699"/>
      <point x="232" y="671"/>
      <point x="232" y="632" type="curve" smooth="yes"/>
      <point x="232" y="593"/>
      <point x="259" y="564"/>
      <point x="296" y="564" type="curve" smooth="yes"/>
      <point x="334" y="564"/>
      <point x="361" y="593"/>
    </contour>
    <contour>
      <point x="196" y="474" type="move" name="_top"/>
    </contour>
  </outline>
</glyph>
<glyph name="ordfeminine" format="1">
  <advance width="372"/>
  <unicode hex="00AA"/>
  <outline>
    <contour>
      <point x="351" y="434" type="line"/>
      <point x="343" y="434"/>
      <point x="336" y="433"/>
      <point x="330" y="433" type="curve" smooth="yes"/>
      <point x="312" y="433"/>
      <point x="305" y="443"/>
      <point x="305" y="462" type="curve" smooth="yes"/>
      <point x="305" y="489"/>
      <point x="308" y="569"/>
      <point x="308" y="587" type="curve" smooth="yes"/>
      <point x="308" y="646"/>
      <point x="284" y="682"/>
      <point x="186" y="682" type="curve" smooth="yes"/>
      <point x="131" y="682"/>
      <point x="92" y="669"/>
      <point x="62" y="645" type="curve"/>
      <point x="58" y="630"/>
      <point x="57" y="614"/>
      <point x="57" y="598" type="curve" smooth="yes"/>
      <point x="57" y="593"/>
      <point x="57" y="589"/>
      <point x="57" y="584" type="curve"/>
      <point x="121" y="580" type="line"/>
      <point x="124" y="598"/>
      <point x="132" y="638"/>
      <point x="167" y="638" type="curve" smooth="yes"/>
      <point x="209" y="638"/>
      <point x="219" y="616"/>
      <point x="219" y="575" type="curve" smooth="yes"/>
      <point x="219" y="566"/>
      <point x="219" y="557"/>
      <point x="219" y="553" type="curve"/>
      <point x="168" y="552" type="line" smooth="yes"/>
      <point x="93" y="550"/>
      <point x="27" y="539"/>
      <point x="27" y="468" type="curve" smooth="yes"/>
      <point x="27" y="423"/>
      <point x="59" y="395"/>
      <point x="105" y="391" type="curve"/>
      <point x="151" y="397"/>
      <point x="195" y="402"/>
      <point x="226" y="440" type="curve"/>
      <point x="233" y="429"/>
      <point x="244" y="400"/>
      <point x="261" y="395" type="curve"/>
      <point x="288" y="395"/>
      <point x="323" y="397"/>
      <point x="349" y="399" type="curve"/>
    </contour>
    <contour>
      <point x="184" y="444" type="curve"/>
      <point x="184" y="444"/>
      <point x="169" y="439"/>
      <point x="161" y="437" type="curve"/>
      <point x="139" y="438"/>
      <point x="122" y="450"/>
      <point x="122" y="477" type="curve" smooth="yes"/>
      <point x="122" y="508"/>
      <point x="149" y="517"/>
      <point x="178" y="519" type="curve" smooth="yes"/>
      <point x="219" y="522" type="line"/>
      <point x="219" y="490"/>
      <point x="213" y="451"/>
    </contour>
  </outline>
</glyph>
<glyph name="guillemotleft" format="1">
  <advance width="515"/>
  <unicode hex="00AB"/>
  <outline>
    <contour>
      <point x="477" y="8" type="line"/>
      <point x="371" y="235" type="line"/>
      <point x="477" y="447" type="line"/>
      <point x="403" y="447" type="line"/>
      <point x="254" y="256" type="line"/>
      <point x="245" y="227" type="line"/>
      <point x="403" y="6" type="line"/>
    </contour>
    <contour>
      <point x="271" y="6" type="line"/>
      <point x="165" y="235" type="line"/>
      <point x="271" y="447" type="line"/>
      <point x="197" y="447" type="line"/>
      <point x="48" y="256" type="line"/>
      <point x="39" y="227" type="line"/>
      <point x="197" y="6" type="line"/>
    </contour>
  </outline>
</glyph>
<glyph name="logicalnot" format="1">
  <advance width="550"/>
  <unicode hex="00AC"/>
  <outline>
    <contour>
      <point x="511" y="109" type="line"/>
      <point x="511" y="378" type="line"/>
      <point x="37" y="378" type="line"/>
      <point x="37" y="277" type="line"/>
      <point x="409" y="277" type="line"/>
      <point x="409" y="109" type="line"/>
    </contour>
  </outline>
</glyph>
<glyph name="macron" format="1">
  <advance width="389"/>
  <unicode hex="00AF"/>
  <outline>
    <contour>
      <point x="332" y="589" type="line"/>
      <point x="332" y="667" type="line"/>
      <point x="56" y="667" type="line"/>
      <point x="56" y="589" type="line"/>
    </contour>
    <contour>
      <point x="194" y="474" type="move" name="_top"/>
    </contour>
  </outline>
</glyph>
<glyph name="periodcentered" format="1">
  <advance width="253"/>
  <unicode hex="00B7"/>
  <outline>
    <contour>
      <point x="198" y="252" type="curve" smooth="yes"/>
      <point x="198" y="291"/>
      <point x="166" y="324"/>
      <point x="126" y="324" type="curve" smooth="yes"/>
      <point x="87" y="324"/>
      <point x="54" y="291"/>
      <point x="54" y="252" type="curve" smooth="yes"/>
      <point x="54" y="212"/>
      <point x="87" y="181"/>
      <point x="126" y="181" type="curve" smooth="yes"/>
      <point x="166" y="181"/>
      <point x="198" y="212"/>
    </contour>
  </outline>
</glyph>
<glyph name="guillemotright" format="1">
  <advance width="515"/>
  <unicode hex="00BB"/>
  <outline>
    <contour>
      <point x="38" y="447" type="line"/>
      <point x="144" y="221" type="line"/>
      <point x="38" y="8" type="line"/>
      <point x="112" y="8" type="line"/>
      <point x="260" y="197" type="line"/>
      <point x="270" y="228" type="line"/>
      <point x="112" y="449" type="line"/>
    </contour>
    <contour>
      <point x="244" y="449" type="line"/>
      <point x="350" y="221" type="line"/>
      <point x="244" y="8" type="line"/>
      <point x="318" y="8" type="line"/>
      <point x="466" y="197" type="line"/>
      <point x="476" y="228" type="line"/>
      <point x="318" y="449" type="line"/>
    </contour>
  </outline>
</glyph>
<glyph name="Adieresis" format="1">
  <advance width="722"/>
  <unicode hex="00C4"/>
  <outline>
    <contour>
      <point x="719" y="0" type="line"/>
      <point x="717" y="64" type="line"/>
      <point x="688" y="67"/>
      <point x="669" y="69"/>
      <point x="652" y="80" type="curve"/>
      <point x="644" y="93"/>
      <point x="636" y="109"/>
      <point x="629" y="127" type="curve" smooth="yes"/>
      <point x="556" y="301"/>
      <point x="476" y="512"/>
      <point x="423" y="667" type="curve"/>
      <point x="287" y="667" type="line"/>
      <point x="221" y="478"/>
      <point x="147" y="280"/>
      <point x="79" y="112" type="curve" smooth="yes"/>
      <point x="73" y="97"/>
      <point x="66" y="85"/>
      <point x="58" y="74" type="curve"/>
      <point x="43" y="70"/>
      <point x="26" y="67"/>
      <point x="5" y="64" type="curve"/>
      <point x="2" y="0" type="line"/>
      <point x="256" y="0" type="line"/>
      <point x="256" y="65" type="line"/>
      <point x="204" y="68" type="line" smooth="yes"/>
      <point x="189" y="69"/>
      <point x="177" y="72"/>
      <point x="170" y="78" type="curve"/>
      <point x="178" y="101"/>
      <point x="189" y="128"/>
      <point x="215" y="201" type="curve"/>
      <point x="447" y="201" type="line"/>
      <point x="474" y="125"/>
      <point x="482" y="107"/>
      <point x="490" y="82" type="curve"/>
      <point x="483" y="71"/>
      <point x="469" y="70"/>
      <point x="444" y="68" type="curve" smooth="yes"/>
      <point x="402" y="65" type="line"/>
      <point x="402" y="0" type="line"/>
    </contour>
    <contour>
      <point x="425" y="272" type="curve"/>
      <point x="238" y="272" type="line"/>
      <point x="264" y="346"/>
      <point x="304" y="465"/>
      <point x="330" y="547" type="curve"/>
      <point x="334" y="547" type="line"/>
      <point x="360" y="465"/>
      <point x="394" y="362"/>
    </contour>
    <contour>
      <point x="520" y="775" type="curve" smooth="yes"/>
      <point x="520" y="814"/>
      <point x="493" y="842"/>
      <point x="455" y="842" type="curve" smooth="yes"/>
      <point x="418" y="842"/>
      <point x="391" y="814"/>
      <point x="391" y="775" type="curve" smooth="yes"/>
      <point x="391" y="736"/>
      <point x="418" y="707"/>
      <point x="455" y="707" type="curve" smooth="yes"/>
      <point x="493" y="707"/>
      <point x="520" y="736"/>
    </contour>
    <contour>
      <point x="321" y="775" type="curve" smooth="yes"/>
      <point x="321" y="814"/>
      <point x="294" y="842"/>
      <point x="257" y="842" type="curve" smooth="yes"/>
      <point x="219" y="842"/>
      <point x="192" y="814"/>
      <point x="192" y="775" type="curve" smooth="yes"/>
      <point x="192" y="736"/>
      <point x="219" y="707"/>
      <point x="257" y="707" type="curve" smooth="yes"/>
      <point x="294" y="707"/>
      <point x="321" y="736"/>
    </contour>
  </outline>
</glyph>
<glyph name="Eacute" format="1">
  <advance width="672"/>
  <unicode hex="00C9"/>
  <outline>
    <contour>
      <point x="603" y="179" type="curve"/>
      <point x="524" y="183" type="line"/>
      <point x="518" y="129"/>
      <point x="512" y="99"/>
      <point x="494" y="76" type="curve"/>
      <point x="479" y="74"/>
      <point x="461" y="73"/>
      <point x="439" y="73" type="curve" smooth="yes"/>
      <point x="278" y="73" type="line"/>
      <point x="278" y="308" type="line"/>
      <point x="372" y="308" type="line" smooth="yes"/>
      <point x="389" y="308"/>
      <point x="403" y="308"/>
      <point x="416" y="305" type="curve"/>
      <point x="428" y="286"/>
      <point x="434" y="259"/>
      <point x="437" y="218" type="curve"/>
      <point x="512" y="220" type="line"/>
      <point x="512" y="343" type="line"/>
      <point x="512" y="460" type="line"/>
      <point x="437" y="463" type="line"/>
      <point x="434" y="411"/>
      <point x="424" y="391"/>
      <point x="400" y="378" type="curve"/>
      <point x="278" y="378" type="line"/>
      <point x="278" y="593" type="line"/>
      <point x="423" y="593" type="line" smooth="yes"/>
      <point x="443" y="593"/>
      <point x="460" y="593"/>
      <point x="475" y="591" type="curve"/>
      <point x="488" y="571"/>
      <point x="492" y="544"/>
      <point x="495" y="495" type="curve"/>
      <point x="575" y="501" type="line"/>
      <point x="575" y="667" type="line"/>
      <point x="39" y="667" type="line"/>
      <point x="36" y="602" type="line"/>
      <point x="69" y="599"/>
      <point x="111" y="599"/>
      <point x="133" y="591" type="curve"/>
      <point x="136" y="579"/>
      <point x="137" y="565"/>
      <point x="137" y="547" type="curve" smooth="yes"/>
      <point x="137" y="120" type="line" smooth="yes"/>
      <point x="137" y="102"/>
      <point x="136" y="88"/>
      <point x="133" y="75" type="curve"/>
      <point x="123" y="71"/>
      <point x="109" y="69"/>
      <point x="93" y="68" type="curve" smooth="yes"/>
      <point x="39" y="64" type="line"/>
      <point x="39" y="0" type="line"/>
      <point x="480" y="0" type="line" smooth="yes"/>
      <point x="516" y="0"/>
      <point x="573" y="-3"/>
      <point x="603" y="-3" type="curve"/>
      <point x="603" y="58"/>
      <point x="603" y="118"/>
    </contour>
    <contour>
      <point x="462" y="839" type="line"/>
      <point x="323" y="839" type="line"/>
      <point x="246" y="710" type="line"/>
      <point x="331" y="710" type="line"/>
    </contour>
  </outline>
</glyph>
<glyph name="Icircumflex" format="1">
  <advance width="416"/>
  <unicode hex="00CE"/>
  <outline>
    <contour>
      <point x="381" y="0" type="line"/>
      <point x="381" y="64" type="line"/>
      <point x="324" y="68" type="line" smooth="yes"/>
      <point x="307" y="69"/>
      <point x="295" y="71"/>
      <point x="284" y="75" type="curve"/>
      <point x="281" y="89"/>
      <point x="280" y="104"/>
      <point x="280" y="123" type="curve" smooth="yes"/>
      <point x="280" y="543" type="line" smooth="yes"/>
      <point x="280" y="562"/>
      <point x="281" y="578"/>
      <point x="284" y="591" type="curve"/>
      <point x="305" y="599"/>
      <point x="346" y="599"/>
      <point x="379" y="602" type="curve"/>
      <point x="381" y="667" type="line"/>
      <point x="38" y="667" type="line"/>
      <point x="35" y="602" type="line"/>
      <point x="68" y="599"/>
      <point x="110" y="599"/>
      <point x="132" y="591" type="curve"/>
      <point x="135" y="578"/>
      <point x="136" y="562"/>
      <point x="136" y="543" type="curve" smooth="yes"/>
      <point x="136" y="123" type="line" smooth="yes"/>
      <point x="136" y="104"/>
      <point x="135" y="89"/>
      <point x="132" y="75" type="curve"/>
      <point x="121" y="71"/>
      <point x="108" y="69"/>
      <point x="91" y="68" type="curve" smooth="yes"/>
      <point x="37" y="64" type="line"/>
      <point x="37" y="0" type="line"/>
    </contour>
    <contour>
      <point x="370" y="708" type="line"/>
      <point x="261" y="845" type="line"/>
      <point x="155" y="845" type="line"/>
      <point x="46" y="711" type="line"/>
      <point x="133" y="711" type="line"/>
      <point x="208" y="784" type="line"/>
      <point x="280" y="708" type="line"/>
    </contour>
  </outline>
</glyph>
<glyph name="Idieresis" format="1">
  <advance width="416"/>
  <unicode hex="00CF"/>
  <outline>
    <contour>
      <point x="381" y="0" type="line"/>
      <point x="381" y="64" type="line"/>
      <point x="324" y="68" type="line" smooth="yes"/>
      <point x="307" y="69"/>
      <point x="295" y="71"/>
      <point x="284" y="75" type="curve"/>
      <point x="281" y="89"/>
      <point x="280" y="104"/>
      <point x="280" y="123" type="curve" smooth="yes"/>
      <point x="280" y="543" type="line" smooth="yes"/>
      <point x="280" y="562"/>
      <point x="281" y="578"/>
      <point x="284" y="591" type="curve"/>
      <point x="305" y="599"/>
      <point x="346" y="599"/>
      <point x="379" y="602" type="curve"/>
      <point x="381" y="667" type="line"/>
      <point x="38" y="667" type="line"/>
      <point x="35" y="602" type="line"/>
      <point x="68" y="599"/>
      <point x="110" y="599"/>
      <point x="132" y="591" type="curve"/>
      <point x="135" y="578"/>
      <point x="136" y="562"/>
      <point x="136" y="543" type="curve" smooth="yes"/>
      <point x="136" y="123" type="line" smooth="yes"/>
      <point x="136" y="104"/>
      <point x="135" y="89"/>
      <point x="132" y="75" type="curve"/>
      <point x="121" y="71"/>
      <point x="108" y="69"/>
      <point x="91" y="68" type="curve" smooth="yes"/>
      <point x="37" y="64" type="line"/>
      <point x="37" y="0" type="line"/>
    </contour>
    <contour>
      <point x="371" y="775" type="curve" smooth="yes"/>
      <point x="371" y="814"/>
      <point x="344" y="842"/>
      <point x="307" y="842" type="curve" smooth="yes"/>
      <point x="269" y="842"/>
      <point x="242" y="814"/>
      <point x="242" y="775" type="curve" smooth="yes"/>
      <point x="242" y="736"/>
      <point x="269" y="707"/>
      <point x="307" y="707" type="curve" smooth="yes"/>
      <point x="344" y="707"/>
      <point x="371" y="736"/>
    </contour>
    <contour>
      <point x="173" y="775" type="curve" smooth="yes"/>
      <point x="173" y="814"/>
      <point x="146" y="842"/>
      <point x="108" y="842" type="curve" smooth="yes"/>
      <point x="71" y="842"/>
      <point x="44" y="814"/>
      <point x="44" y="775" type="curve" smooth="yes"/>
      <point x="44" y="736"/>
      <point x="71" y="707"/>
      <point x="108" y="707" type="curve" smooth="yes"/>
      <point x="146" y="707"/>
      <point x="173" y="736"/>
    </contour>
  </outline>
</glyph>
<glyph name="Oacute" format="1">
  <advance width="765"/>
  <unicode hex="00D3"/>
  <outline>
    <contour>
      <point x="716" y="340" type="curve" smooth="yes"/>
      <point x="716" y="549"/>
      <point x="587" y="682"/>
      <point x="387" y="682" type="curve" smooth="yes"/>
      <point x="178" y="682"/>
      <point x="49" y="547"/>
      <point x="49" y="326" type="curve" smooth="yes"/>
      <point x="49" y="111"/>
      <point x="183" y="-14"/>
      <point x="377" y="-14" type="curve" smooth="yes"/>
      <point x="582" y="-14"/>
      <point x="716" y="113"/>
    </contour>
    <contour>
      <point x="559" y="335" type="curve" smooth="yes"/>
      <point x="559" y="152"/>
      <point x="497" y="60"/>
      <point x="382" y="60" type="curve" smooth="yes"/>
      <point x="268" y="60"/>
      <point x="206" y="144"/>
      <point x="206" y="333" type="curve" smooth="yes"/>
      <point x="206" y="527"/>
      <point x="274" y="608"/>
      <point x="385" y="608" type="curve" smooth="yes"/>
      <point x="494" y="608"/>
      <point x="559" y="527"/>
    </contour>
    <contour>
      <point x="532" y="839" type="line"/>
      <point x="393" y="839" type="line"/>
      <point x="316" y="710" type="line"/>
      <point x="401" y="710" type="line"/>
    </contour>
  </outline>
</glyph>
<glyph name="Oslash" format="1">
  <advance width="765"/>
  <unicode hex="00D8"/>
  <outline>
    <contour>
      <point x="716" y="340" type="curve" smooth="yes"/>
      <point x="716" y="448"/>
      <point x="680" y="536"/>
      <point x="619" y="594" type="curve"/>
      <point x="691" y="689" type="line"/>
      <point x="638" y="706" type="line"/>
      <point x="578" y="628" type="line"/>
      <point x="527" y="662"/>
      <point x="462" y="682"/>
      <point x="387" y="682" type="curve" smooth="yes"/>
      <point x="178" y="682"/>
      <point x="49" y="547"/>
      <point x="49" y="326" type="curve" smooth="yes"/>
      <point x="49" y="215"/>
      <point x="86" y="129"/>
      <point x="148" y="71" type="curve"/>
      <point x="77" y="-22" type="line"/>
      <point x="131" y="-39" type="line"/>
      <point x="190" y="37" type="line"/>
      <point x="240" y="3"/>
      <point x="304" y="-14"/>
      <point x="377" y="-14" type="curve" smooth="yes"/>
      <point x="582" y="-14"/>
      <point x="716" y="113"/>
    </contour>
    <contour>
      <point x="513" y="543" type="curve"/>
      <point x="229" y="175" type="line"/>
      <point x="213" y="215"/>
      <point x="206" y="268"/>
      <point x="206" y="333" type="curve" smooth="yes"/>
      <point x="206" y="527"/>
      <point x="274" y="608"/>
      <point x="385" y="608" type="curve" smooth="yes"/>
      <point x="439" y="608"/>
      <point x="483" y="588"/>
    </contour>
    <contour>
      <point x="559" y="335" type="curve" smooth="yes"/>
      <point x="559" y="152"/>
      <point x="497" y="60"/>
      <point x="382" y="60" type="curve" smooth="yes"/>
      <point x="327" y="60"/>
      <point x="284" y="79"/>
      <point x="255" y="122" type="curve"/>
      <point x="538" y="489" type="line"/>
      <point x="552" y="449"/>
      <point x="559" y="398"/>
    </contour>
    <contour>
      <point x="383" y="667" type="move" name="top"/>
    </contour>
  </outline>
</glyph>
<glyph name="germandbls" format="1">
  <advance width="628"/>
  <unicode hex="00DF"/>
  <outline>
    <contour>
      <point x="607" y="143" type="curve" smooth="yes"/>
      <point x="607" y="295"/>
      <point x="423" y="293"/>
      <point x="423" y="387" type="curve" smooth="yes"/>
      <point x="423" y="463"/>
      <point x="543" y="460"/>
      <point x="543" y="569" type="curve" smooth="yes"/>
      <point x="543" y="678"/>
      <point x="457" y="725"/>
      <point x="345" y="725" type="curve" smooth="yes"/>
      <point x="157" y="725"/>
      <point x="103" y="614"/>
      <point x="103" y="441" type="curve" smooth="yes"/>
      <point x="103" y="128" type="line" smooth="yes"/>
      <point x="103" y="85"/>
      <point x="110" y="68"/>
      <point x="55" y="63" type="curve" smooth="yes"/>
      <point x="23" y="60" type="line"/>
      <point x="23" y="0" type="line"/>
      <point x="233" y="0" type="line"/>
      <point x="233" y="444" type="line"/>
      <point x="228" y="472"/>
      <point x="223" y="501"/>
      <point x="217" y="529" type="curve"/>
      <point x="225" y="613"/>
      <point x="261" y="654"/>
      <point x="327" y="654" type="curve" smooth="yes"/>
      <point x="388" y="654"/>
      <point x="425" y="620"/>
      <point x="425" y="569" type="curve" smooth="yes"/>
      <point x="425" y="537"/>
      <point x="418" y="526"/>
      <point x="397" y="512" type="curve" smooth="yes"/>
      <point x="328" y="467"/>
      <point x="293" y="420"/>
      <point x="293" y="362" type="curve" smooth="yes"/>
      <point x="293" y="207"/>
      <point x="474" y="228"/>
      <point x="474" y="121" type="curve" smooth="yes"/>
      <point x="474" y="79"/>
      <point x="445" y="63"/>
      <point x="420" y="58" type="curve"/>
      <point x="355" y="58"/>
      <point x="360" y="112"/>
      <point x="283" y="119" type="curve"/>
      <point x="275" y="8" type="line"/>
      <point x="312" y="-6"/>
      <point x="361" y="-13"/>
      <point x="408" y="-13" type="curve" smooth="yes"/>
      <point x="525" y="-13"/>
      <point x="607" y="52"/>
    </contour>
  </outline>
</glyph>
<glyph name="adieresis" format="1">
  <advance width="522"/>
  <unicode hex="00E4"/>
  <outline>
    <contour>
      <point x="511" y="62" type="line"/>
      <point x="503" y="60"/>
      <point x="491" y="58"/>
      <point x="480" y="58" type="curve" smooth="yes"/>
      <point x="440" y="58"/>
      <point x="431" y="76"/>
      <point x="431" y="113" type="curve" smooth="yes"/>
      <point x="431" y="141"/>
      <point x="436" y="296"/>
      <point x="436" y="327" type="curve" smooth="yes"/>
      <point x="436" y="446"/>
      <point x="370" y="475"/>
      <point x="243" y="475" type="curve"/>
      <point x="171" y="472"/>
      <point x="120" y="449"/>
      <point x="76" y="409" type="curve"/>
      <point x="70" y="387"/>
      <point x="68" y="364"/>
      <point x="68" y="341" type="curve" smooth="yes"/>
      <point x="68" y="332"/>
      <point x="68" y="324"/>
      <point x="69" y="315" type="curve"/>
      <point x="161" y="307" type="line"/>
      <point x="165" y="343"/>
      <point x="182" y="403"/>
      <point x="228" y="403" type="curve" smooth="yes"/>
      <point x="283" y="403"/>
      <point x="308" y="375"/>
      <point x="308" y="313" type="curve" smooth="yes"/>
      <point x="308" y="296"/>
      <point x="307" y="261"/>
      <point x="307" y="253" type="curve"/>
      <point x="245" y="252" type="line" smooth="yes"/>
      <point x="119" y="250"/>
      <point x="28" y="223"/>
      <point x="28" y="113" type="curve" smooth="yes"/>
      <point x="28" y="45"/>
      <point x="72" y="-4"/>
      <point x="140" y="-11" type="curve"/>
      <point x="206" y="-11"/>
      <point x="277" y="11"/>
      <point x="321" y="69" type="curve"/>
      <point x="328" y="50"/>
      <point x="347" y="1"/>
      <point x="378" y="-5" type="curve"/>
      <point x="419" y="-5"/>
      <point x="468" y="-2"/>
      <point x="509" y="5" type="curve"/>
    </contour>
    <contour>
      <point x="307" y="202" type="line"/>
      <point x="305" y="141"/>
      <point x="315" y="72"/>
      <point x="223" y="64" type="curve"/>
      <point x="186" y="64"/>
      <point x="162" y="85"/>
      <point x="162" y="129" type="curve" smooth="yes"/>
      <point x="162" y="186"/>
      <point x="216" y="196"/>
      <point x="266" y="200" type="curve"/>
    </contour>
    <contour>
      <point x="426" y="627" type="curve" smooth="yes"/>
      <point x="426" y="666"/>
      <point x="399" y="694"/>
      <point x="362" y="694" type="curve" smooth="yes"/>
      <point x="324" y="694"/>
      <point x="297" y="666"/>
      <point x="297" y="627" type="curve" smooth="yes"/>
      <point x="297" y="588"/>
      <point x="324" y="559"/>
      <point x="362" y="559" type="curve" smooth="yes"/>
      <point x="399" y="559"/>
      <point x="426" y="588"/>
    </contour>
    <contour>
      <point x="228" y="627" type="curve" smooth="yes"/>
      <point x="228" y="666"/>
      <point x="201" y="694"/>
      <point x="163" y="694" type="curve" smooth="yes"/>
      <point x="126" y="694"/>
      <point x="99" y="666"/>
      <point x="99" y="627" type="curve" smooth="yes"/>
      <point x="99" y="588"/>
      <point x="126" y="559"/>
      <point x="163" y="559" type="curve" smooth="yes"/>
      <point x="201" y="559"/>
      <point x="228" y="588"/>
    </contour>
  </outline>
</glyph>
<glyph name="aring" format="1">
  <advance width="522"/>
  <unicode hex="00E5"/>
  <outline>
    <contour>
      <point x="511" y="62" type="line"/>
      <point x="503" y="60"/>
      <point x="491" y="58"/>
      <point x="480" y="58" type="curve" smooth="yes"/>
      <point x="440" y="58"/>
      <point x="431" y="76"/>
      <point x="431" y="113" type="curve" smooth="yes"/>
      <point x="431" y="141"/>
      <point x="436" y="296"/>
      <point x="436" y="327" type="curve" smooth="yes"/>
      <point x="436" y="446"/>
      <point x="370" y="475"/>
      <point x="243" y="475" type="curve"/>
      <point x="171" y="472"/>
      <point x="120" y="449"/>
      <point x="76" y="409" type="curve"/>
      <point x="70" y="387"/>
      <point x="68" y="364"/>
      <point x="68" y="341" type="curve" smooth="yes"/>
      <point x="68" y="332"/>
      <point x="68" y="324"/>
      <point x="69" y="315" type="curve"/>
      <point x="161" y="307" type="line"/>
      <point x="165" y="343"/>
      <point x="182" y="403"/>
      <point x="228" y="403" type="curve" smooth="yes"/>
      <point x="283" y="403"/>
      <point x="308" y="375"/>
      <point x="308" y="313" type="curve" smooth="yes"/>
      <point x="308" y="296"/>
      <point x="307" y="261"/>
      <point x="307" y="253" type="curve"/>
      <point x="245" y="252" type="line" smooth="yes"/>
      <point x="119" y="250"/>
      <point x="28" y="223"/>
      <point x="28" y="113" type="curve" smooth="yes"/>
      <point x="28" y="45"/>
      <point x="72" y="-4"/>
      <point x="140" y="-11" type="curve"/>
      <point x="206" y="-11"/>
      <point x="277" y="11"/>
      <point x="321" y="69" type="curve"/>
      <point x="328" y="50"/>
      <point x="347" y="1"/>
      <point x="378" y="-5" type="curve"/>
      <point x="419" y="-5"/>
      <point x="468" y="-2"/>
      <point x="509" y="5" type="curve"/>
    </contour>
    <contour>
      <point x="307" y="202" type="line"/>
      <point x="305" y="141"/>
      <point x="315" y="72"/>
      <point x="223" y="64" type="curve"/>
      <point x="186" y="64"/>
      <point x="162" y="85"/>
      <point x="162" y="129" type="curve" smooth="yes"/>
      <point x="162" y="186"/>
      <point x="216" y="196"/>
      <point x="266" y="200" type="curve"/>
    </contour>
    <contour>
      <point x="371" y="630" type="curve" smooth="yes"/>
      <point x="371" y="686"/>
      <point x="324" y="729"/>
      <point x="267" y="729" type="curve" smooth="yes"/>
      <point x="206" y="729"/>
      <point x="159" y="684"/>
      <point x="159" y="626" type="curve" smooth="yes"/>
      <point x="159" y="570"/>
      <point x="207" y="528"/>
      <point x="263" y="528" type="curve" smooth="yes"/>
      <point x="321" y="528"/>
      <point x="371" y="570"/>
    </contour>
    <contour>
      <point x="311" y="629" type="curve" smooth="yes"/>
      <point x="311" y="602"/>
      <point x="292" y="581"/>
      <point x="265" y="581" type="curve" smooth="yes"/>
      <point x="240" y="581"/>
      <point x="218" y="601"/>
      <point x="218" y="629" type="curve" smooth="yes"/>
      <point x="218" y="658"/>
      <point x="240" y="677"/>
      <point x="265" y="677" type="curve" smooth="yes"/>
      <point x="290" y="677"/>
      <point x="311" y="658"/>
    </contour>
  </outline>
</glyph>
<glyph name="egrave" format="1">
  <advance width="517"/>
  <unicode hex="00E8"/>
  <outline>
    <contour>
      <point x="474" y="110" type="curve"/>
      <point x="407" y="144" type="line"/>
      <point x="387" y="91"/>
      <point x="349" y="65"/>
      <point x="293" y="65" type="curve" smooth="yes"/>
      <point x="201" y="65"/>
      <point x="174" y="135"/>
      <point x="174" y="228" type="curve"/>
      <point x="473" y="228" type="line"/>
      <point x="475" y="240"/>
      <point x="475" y="252"/>
      <point x="475" y="263" type="curve" smooth="yes"/>
      <point x="475" y="399"/>
      <point x="410" y="476"/>
      <point x="266" y="476" type="curve" smooth="yes"/>
      <point x="128" y="476"/>
      <point x="34" y="381"/>
      <point x="34" y="229" type="curve" smooth="yes"/>
      <point x="34" y="79"/>
      <point x="128" y="-13"/>
      <point x="270" y="-13" type="curve" smooth="yes"/>
      <point x="391" y="-13"/>
      <point x="450" y="42"/>
    </contour>
    <contour>
      <point x="347" y="294" type="curve"/>
      <point x="175" y="289" type="line"/>
      <point x="175" y="362"/>
      <point x="201" y="415"/>
      <point x="264" y="415" type="curve" smooth="yes"/>
      <point x="329" y="415"/>
      <point x="347" y="361"/>
    </contour>
    <contour>
      <point x="332" y="536" type="line"/>
      <point x="257" y="707" type="line"/>
      <point x="115" y="707" type="line"/>
      <point x="259" y="536" type="line"/>
    </contour>
  </outline>
</glyph>
<glyph name="oacute" format="1">
  <advance width="550"/>
  <unicode hex="00F3"/>
  <outline>
    <contour>
      <point x="516" y="236" type="curve" smooth="yes"/>
      <point x="516" y="379"/>
      <point x="429" y="476"/>
      <point x="279" y="476" type="curve" smooth="yes"/>
      <point x="123" y="476"/>
      <point x="34" y="374"/>
      <point x="34" y="226" type="curve" smooth="yes"/>
      <point x="34" y="84"/>
      <point x="122" y="-13"/>
      <point x="270" y="-13" type="curve" smooth="yes"/>
      <point x="424" y="-13"/>
      <point x="516" y="86"/>
    </contour>
    <contour>
      <point x="374" y="232" type="curve" smooth="yes"/>
      <point x="374" y="114"/>
      <point x="341" y="60"/>
      <point x="274" y="60" type="curve" smooth="yes"/>
      <point x="211" y="60"/>
      <point x="176" y="113"/>
      <point x="176" y="232" type="curve" smooth="yes"/>
      <point x="176" y="356"/>
      <point x="213" y="403"/>
      <point x="275" y="403" type="curve" smooth="yes"/>
      <point x="338" y="403"/>
      <point x="374" y="352"/>
    </contour>
    <contour>
      <point x="438" y="707" type="line"/>
      <point x="296" y="707" type="line"/>
      <point x="221" y="536" type="line"/>
      <point x="294" y="536" type="line"/>
    </contour>
  </outline>
</glyph>
<glyph name="otilde" format="1">
  <advance width="550"/>
  <unicode hex="00F5"/>
  <outline>
    <contour>
      <point x="516" y="379"/>
      <point x="429" y="476"/>
      <point x="279" y="476" type="curve" smooth="yes"/>
      <point x="123" y="476"/>
      <point x="34" y="374"/>
      <point x="34" y="226" type="curve" smooth="yes"/>
      <point x="34" y="84"/>
      <point x="122" y="-13"/>
      <point x="270" y="-13" type="curve" smooth="yes"/>
      <point x="424" y="-13"/>
      <point x="516" y="86"/>
      <point x="516" y="236" type="curve" smooth="yes"/>
    </contour>
    <contour>
      <point x="374" y="114"/>
      <point x="341" y="60"/>
      <point x="274" y="60" type="curve" smooth="yes"/>
      <point x="211" y="60"/>
      <point x="176" y="113"/>
      <point x="176" y="232" type="curve" smooth="yes"/>
      <point x="176" y="356"/>
      <point x="213" y="403"/>
      <point x="275" y="403" type="curve" smooth="yes"/>
      <point x="338" y="403"/>
      <point x="374" y="352"/>
      <point x="374" y="232" type="curve" smooth="yes"/>
    </contour>
    <contour>
      <point x="420" y="687" type="line"/>
      <point x="398" y="649"/>
      <point x="376" y="636"/>
      <point x="354" y="636" type="curve" smooth="yes"/>
      <point x="310" y="636"/>
      <point x="265" y="684"/>
      <point x="211" y="684" type="curve" smooth="yes"/>
      <point x="149" y="684"/>
      <point x="127" y="656"/>
      <point x="94" y="584" type="curve"/>
      <point x="131" y="575" type="line"/>
      <point x="142" y="603"/>
      <point x="159" y="612"/>
      <point x="178" y="612" type="curve" smooth="yes"/>
      <point x="223" y="612"/>
      <point x="285" y="560"/>
      <point x="341" y="560" type="curve" smooth="yes"/>
      <point x="403" y="560"/>
      <point x="424" y="597"/>
      <point x="454" y="669" type="curve"/>
    </contour>
  </outline>
</glyph>
<glyph name="odieresis" format="1">
  <advance width="550"/>
  <unicode hex="00F6"/>
  <outline>
    <contour>
      <point x="516" y="236" type="curve" smooth="yes"/>
      <point x="516" y="379"/>
      <point x="429" y="476"/>
      <point x="279" y="476" type="curve" smooth="yes"/>
      <point x="123" y="476"/>
      <point x="34" y="374"/>
      <point x="34" y="226" type="curve" smooth="yes"/>
      <point x="34" y="84"/>
      <point x="122" y="-13"/>
      <point x="270" y="-13" type="curve" smooth="yes"/>
      <point x="424" y="-13"/>
      <point x="516" y="86"/>
    </contour>
    <contour>
      <point x="374" y="232" type="curve" smooth="yes"/>
      <point x="374" y="114"/>
      <point x="341" y="60"/>
      <point x="274" y="60" type="curve" smooth="yes"/>
      <point x="211" y="60"/>
      <point x="176" y="113"/>
      <point x="176" y="232" type="curve" smooth="yes"/>
      <point x="176" y="356"/>
      <point x="213" y="403"/>
      <point x="275" y="403" type="curve" smooth="yes"/>
      <point x="338" y="403"/>
      <point x="374" y="352"/>
    </contour>
    <contour>
      <point x="334" y="627" type="curve" smooth="yes"/>
      <point x="334" y="666"/>
      <point x="307" y="694"/>
      <point x="269" y="694" type="curve" smooth="yes"/>
      <point x="232" y="694"/>
      <point x="205" y="666"/>
      <point x="205" y="627" type="curve" smooth="yes"/>
      <point x="205" y="588"/>
      <point x="232" y="559"/>
      <point x="269" y="559" type="curve" smooth="yes"/>
      <point x="307" y="559"/>
      <point x="334" y="588"/>
    </contour>
    <contour>
      <point x="347" y="627" type="curve" smooth="yes"/>
      <point x="347" y="666"/>
      <point x="320" y="694"/>
      <point x="283" y="694" type="curve" smooth="yes"/>
      <point x="245" y="694"/>
      <point x="218" y="666"/>
      <point x="218" y="627" type="curve" smooth="yes"/>
      <point x="218" y="588"/>
      <point x="245" y="559"/>
      <point x="283" y="559" type="curve" smooth="yes"/>
      <point x="320" y="559"/>
      <point x="347" y="588"/>
    </contour>
  </outline>
</glyph>
<glyph name="divide" format="1">
  <advance width="550"/>
  <unicode hex="00F7"/>
  <outline>
    <contour>
      <point x="500" y="202" type="line"/>
      <point x="500" y="285" type="line"/>
      <point x="49" y="285" type="line"/>
      <point x="49" y="202" type="line"/>
    </contour>
    <contour>
      <point x="348" y="419" type="curve" smooth="yes"/>
      <point x="348" y="462"/>
      <point x="315" y="495"/>
      <point x="274" y="495" type="curve" smooth="yes"/>
      <point x="233" y="495"/>
      <point x="200" y="462"/>
      <point x="200" y="419" type="curve" smooth="yes"/>
      <point x="200" y="377"/>
      <point x="233" y="345"/>
      <point x="274" y="345" type="curve" smooth="yes"/>
      <point x="315" y="345"/>
      <point x="348" y="377"/>
    </contour>
    <contour>
      <point x="348" y="69" type="curve" smooth="yes"/>
      <point x="348" y="111"/>
      <point x="315" y="144"/>
      <point x="274" y="144" type="curve" smooth="yes"/>
      <point x="232" y="144"/>
      <point x="200" y="111"/>
      <point x="200" y="69" type="curve" smooth="yes"/>
      <point x="200" y="27"/>
      <point x="232" y="-6"/>
      <point x="274" y="-6" type="curve" smooth="yes"/>
      <point x="315" y="-6"/>
      <point x="348" y="27"/>
    </contour>
  </outline>
</glyph>
<glyph name="uacute" format="1">
  <advance width="628"/>
  <unicode hex="00FA"/>
  <outline>
    <contour>
      <point x="616" y="0" type="line"/>
      <point x="616" y="60" type="line"/>
      <point x="583" y="63" type="line" smooth="yes"/>
      <point x="532" y="67"/>
      <point x="536" y="83"/>
      <point x="536" y="124" type="curve" smooth="yes"/>
      <point x="536" y="470" type="line"/>
      <point x="469" y="466"/>
      <point x="388" y="461"/>
      <point x="327" y="460" type="curve"/>
      <point x="326" y="396" type="line"/>
      <point x="363" y="395" type="line" smooth="yes"/>
      <point x="376" y="395"/>
      <point x="386" y="392"/>
      <point x="396" y="391" type="curve"/>
      <point x="403" y="379"/>
      <point x="404" y="362"/>
      <point x="404" y="332" type="curve" smooth="yes"/>
      <point x="404" y="194" type="line" smooth="yes"/>
      <point x="404" y="118"/>
      <point x="368" y="78"/>
      <point x="308" y="78" type="curve" smooth="yes"/>
      <point x="260" y="78"/>
      <point x="230" y="102"/>
      <point x="230" y="158" type="curve" smooth="yes"/>
      <point x="230" y="375" type="line"/>
      <point x="233" y="471" type="line"/>
      <point x="166" y="463"/>
      <point x="87" y="456"/>
      <point x="26" y="451" type="curve"/>
      <point x="26" y="410" type="line"/>
      <point x="60" y="389" type="line"/>
      <point x="95" y="376"/>
      <point x="98" y="360"/>
      <point x="98" y="305" type="curve" smooth="yes"/>
      <point x="98" y="162" type="line" smooth="yes"/>
      <point x="98" y="37"/>
      <point x="144" y="-13"/>
      <point x="252" y="-13" type="curve" smooth="yes"/>
      <point x="328" y="-13"/>
      <point x="381" y="17"/>
      <point x="412" y="72" type="curve"/>
      <point x="412" y="72"/>
      <point x="412" y="72"/>
      <point x="413" y="72" type="curve"/>
      <point x="411" y="-5" type="line"/>
    </contour>
    <contour>
      <point x="465" y="707" type="line"/>
      <point x="323" y="707" type="line"/>
      <point x="248" y="536" type="line"/>
      <point x="321" y="536" type="line"/>
    </contour>
  </outline>
</glyph>
<glyph name="thorn" format="1">
  <advance width="594"/>
  <unicode hex="00FE"/>
  <outline>
    <contour>
      <point x="418" y="118"/>
      <point x="373" y="69"/>
      <point x="313" y="69" type="curve" smooth="yes"/>
      <point x="236" y="69"/>
      <point x="232" y="132"/>
      <point x="232" y="211" type="curve" smooth="yes"/>
      <point x="232" y="269"/>
      <point x="238" y="316"/>
      <point x="247" y="354" type="curve"/>
      <point x="264" y="375"/>
      <point x="288" y="387"/>
      <point x="317" y="387" type="curve" smooth="yes"/>
      <point x="381" y="387"/>
      <point x="418" y="343"/>
      <point x="418" y="230" type="curve" smooth="yes"/>
    </contour>
    <contour>
      <point x="332" y="-176" type="line"/>
      <point x="238" y="-148"/>
      <point x="234" y="-143"/>
      <point x="234" y="-122" type="curve" smooth="yes"/>
      <point x="234" y="28" type="line"/>
      <point x="235" y="28"/>
      <point x="235" y="28"/>
      <point x="235" y="28" type="curve"/>
      <point x="257" y="3"/>
      <point x="298" y="-13"/>
      <point x="348" y="-13" type="curve" smooth="yes"/>
      <point x="460" y="-13"/>
      <point x="560" y="73"/>
      <point x="560" y="235" type="curve" smooth="yes"/>
      <point x="560" y="396"/>
      <point x="488" y="476"/>
      <point x="369" y="476" type="curve" smooth="yes"/>
      <point x="311" y="476"/>
      <point x="265" y="453"/>
      <point x="234" y="411" type="curve"/>
      <point x="234" y="618" type="line"/>
      <point x="239" y="722" type="line"/>
      <point x="171" y="714"/>
      <point x="70" y="713"/>
      <point x="22" y="711" type="curve"/>
      <point x="22" y="658" type="line"/>
      <point x="102" y="630"/>
      <point x="102" y="625"/>
      <point x="102" y="560" type="curve" smooth="yes"/>
      <point x="102" y="304" type="line"/>
      <point x="102" y="303"/>
      <point x="102" y="301"/>
      <point x="102" y="300" type="curve" smooth="yes"/>
      <point x="102" y="-122" type="line" smooth="yes"/>
      <point x="102" y="-141"/>
      <point x="88" y="-158"/>
      <point x="16" y="-176" type="curve"/>
      <point x="16" y="-236" type="line"/>
      <point x="332" y="-236" type="line"/>
    </contour>
  </outline>
</glyph>
<glyph name="ydieresis" format="1">
  <advance width="544"/>
  <unicode hex="00FF"/>
  <outline>
    <contour>
      <point x="547" y="462" type="line"/>
      <point x="331" y="462" type="line"/>
      <point x="331" y="401" type="line"/>
      <point x="369" y="399" type="line" smooth="yes"/>
      <point x="384" y="398"/>
      <point x="394" y="398"/>
      <point x="400" y="389" type="curve"/>
      <point x="397" y="376"/>
      <point x="390" y="360"/>
      <point x="384" y="344" type="curve" smooth="yes"/>
      <point x="297" y="117" type="line"/>
      <point x="227" y="337" type="line" smooth="yes"/>
      <point x="221" y="354"/>
      <point x="214" y="369"/>
      <point x="213" y="387" type="curve" smooth="yes"/>
      <point x="213" y="399"/>
      <point x="231" y="396"/>
      <point x="245" y="396" type="curve"/>
      <point x="247" y="465" type="line"/>
      <point x="20" y="465" type="line"/>
      <point x="20" y="400" type="line"/>
      <point x="39" y="398" type="line" smooth="yes"/>
      <point x="71" y="395"/>
      <point x="76" y="369"/>
      <point x="89" y="335" type="curve" smooth="yes"/>
      <point x="210" y="6" type="line"/>
      <point x="220" y="-55" type="line"/>
      <point x="184" y="-131"/>
      <point x="148" y="-161"/>
      <point x="65" y="-176" type="curve"/>
      <point x="91" y="-242" type="line"/>
      <point x="191" y="-227"/>
      <point x="281" y="-167"/>
      <point x="364" y="-80" type="curve"/>
      <point x="364" y="-64"/>
      <point x="371" y="-55"/>
      <point x="347" y="-55" type="curve" smooth="yes"/>
      <point x="328" y="-55"/>
      <point x="322" y="-51"/>
      <point x="322" y="-40" type="curve" smooth="yes"/>
      <point x="322" y="-32"/>
      <point x="327" y="-21"/>
      <point x="330" y="-14" type="curve" smooth="yes"/>
      <point x="484" y="348" type="line" smooth="yes"/>
      <point x="495" y="373"/>
      <point x="498" y="398"/>
      <point x="526" y="400" type="curve" smooth="yes"/>
      <point x="546" y="401" type="line"/>
    </contour>
    <contour>
      <point x="456" y="627" type="curve" smooth="yes"/>
      <point x="456" y="666"/>
      <point x="429" y="694"/>
      <point x="391" y="694" type="curve" smooth="yes"/>
      <point x="354" y="694"/>
      <point x="327" y="666"/>
      <point x="327" y="627" type="curve" smooth="yes"/>
      <point x="327" y="588"/>
      <point x="354" y="559"/>
      <point x="391" y="559" type="curve" smooth="yes"/>
      <point x="429" y="559"/>
      <point x="456" y="588"/>
    </contour>
    <contour>
      <point x="257" y="627" type="curve" smooth="yes"/>
      <point x="257" y="666"/>
      <point x="230" y="694"/>
      <point x="193" y="694" type="curve" smooth="yes"/>
      <point x="155" y="694"/>
      <point x="128" y="666"/>
      <point x="128" y="627" type="curve" smooth="yes"/>
      <point x="128" y="588"/>
      <point x="155" y="559"/>
      <point x="193" y="559" type="curve" smooth="yes"/>
      <point x="230" y="559"/>
      <point x="257" y="588"/>
    </contour>
  </outline>
</glyph>
<glyph name="dotlessi" format="1">
  <advance width="330"/>
  <unicode hex="0131"/>
  <outline>
    <contour>
      <point x="318" y="0" type="line"/>
      <point x="318" y="60" type="line"/>
      <point x="284" y="63" type="line" smooth="yes"/>
      <point x="237" y="67"/>
      <point x="237" y="78"/>
      <point x="237" y="120" type="curve" smooth="yes"/>
      <point x="237" y="367" type="line"/>
      <point x="242" y="471" type="line"/>
      <point x="174" y="463"/>
      <point x="73" y="462"/>
      <point x="25" y="460" type="curve"/>
      <point x="25" y="407" type="line"/>
      <point x="105" y="379"/>
      <point x="105" y="374"/>
      <point x="105" y="309" type="curve" smooth="yes"/>
      <point x="105" y="120" type="line" smooth="yes"/>
      <point x="105" y="75"/>
      <point x="104" y="67"/>
      <point x="57" y="63" type="curve" smooth="yes"/>
      <point x="21" y="60" type="line"/>
      <point x="21" y="0" type="line"/>
    </contour>
    <contour>
      <point x="165" y="474" type="move" name="top"/>
    </contour>
    <contour>
      <point x="297" y="10" type="move" name="ogonek"/>
    </contour>
  </outline>
</glyph>
<glyph name="OE" format="1">
  <advance width="1050"/>
  <unicode hex="0152"/>
  <outline>
    <contour>
      <point x="981" y="179" type="curve"/>
      <point x="902" y="183" type="line"/>
      <point x="896" y="138"/>
      <point x="891" y="106"/>
      <point x="880" y="80" type="curve"/>
      <point x="863" y="73"/>
      <point x="841" y="73"/>
      <point x="809" y="73" type="curve" smooth="yes"/>
      <point x="623" y="73" type="line"/>
      <point x="623" y="74"/>
      <point x="623" y="224"/>
      <point x="623" y="308" type="curve"/>
      <point x="756" y="308" type="line" smooth="yes"/>
      <point x="773" y="308"/>
      <point x="788" y="308"/>
      <point x="801" y="305" type="curve"/>
      <point x="813" y="286"/>
      <point x="818" y="259"/>
      <point x="822" y="218" type="curve"/>
      <point x="897" y="220" type="line"/>
      <point x="897" y="331" type="line"/>
      <point x="897" y="460" type="line"/>
      <point x="822" y="463" type="line"/>
      <point x="818" y="424"/>
      <point x="812" y="399"/>
      <point x="800" y="381" type="curve"/>
      <point x="788" y="378"/>
      <point x="774" y="378"/>
      <point x="759" y="378" type="curve" smooth="yes"/>
      <point x="624" y="378" type="line"/>
      <point x="624" y="378"/>
      <point x="624" y="593"/>
      <point x="624" y="593" type="curve"/>
      <point x="801" y="593" type="line" smooth="yes"/>
      <point x="821" y="593"/>
      <point x="838" y="593"/>
      <point x="853" y="591" type="curve"/>
      <point x="866" y="571"/>
      <point x="870" y="544"/>
      <point x="873" y="495" type="curve"/>
      <point x="953" y="501" type="line"/>
      <point x="953" y="667" type="line"/>
      <point x="638" y="667" type="line" smooth="yes"/>
      <point x="576.812" y="667"/>
      <point x="509.664" y="667"/>
      <point x="389" y="667" type="curve" smooth="yes"/>
      <point x="176" y="667"/>
      <point x="49" y="555"/>
      <point x="49" y="332" type="curve" smooth="yes"/>
      <point x="49" y="90"/>
      <point x="198" y="0"/>
      <point x="341" y="0" type="curve" smooth="yes"/>
      <point x="403" y="0"/>
      <point x="864" y="0"/>
      <point x="864" y="0" type="curve" smooth="yes"/>
      <point x="898" y="0"/>
      <point x="953" y="1"/>
      <point x="981" y="0" type="curve"/>
      <point x="981" y="61"/>
      <point x="981" y="118"/>
    </contour>
    <contour>
      <point x="531" y="336" type="curve" smooth="yes"/>
      <point x="531" y="149"/>
      <point x="471" y="67"/>
      <point x="368" y="67" type="curve" smooth="yes"/>
      <point x="266" y="67"/>
      <point x="206" y="155"/>
      <point x="206" y="334" type="curve" smooth="yes"/>
      <point x="206" y="512"/>
      <point x="269" y="603"/>
      <point x="368" y="603" type="curve" smooth="yes"/>
      <point x="468" y="603"/>
      <point x="531" y="531"/>
    </contour>
    <contour>
      <point x="525" y="667" type="move" name="top"/>
    </contour>
  </outline>
</glyph>
<glyph name="florin" format="1">
  <advance width="538"/>
  <unicode hex="0192"/>
  <outline>
    <contour>
      <point x="449" y="307" type="line"/>
      <point x="455" y="373" type="line"/>
      <point x="330" y="373" type="line"/>
      <point x="334" y="413" type="line"/>
      <point x="334" y="420"/>
      <point x="335" y="428"/>
      <point x="335" y="436" type="curve" smooth="yes"/>
      <point x="335" y="463"/>
      <point x="332" y="495"/>
      <point x="331" y="517" type="curve"/>
      <point x="357" y="567"/>
      <point x="413" y="580"/>
      <point x="445" y="580" type="curve" smooth="yes"/>
      <point x="449" y="580"/>
      <point x="453" y="580"/>
      <point x="457" y="580" type="curve"/>
      <point x="459" y="678" type="line"/>
      <point x="440" y="680"/>
      <point x="422" y="681"/>
      <point x="407" y="681" type="curve" smooth="yes"/>
      <point x="300" y="681"/>
      <point x="218" y="600"/>
      <point x="204" y="428" type="curve"/>
      <point x="201" y="373" type="line"/>
      <point x="84" y="373" type="line"/>
      <point x="78" y="307" type="line"/>
      <point x="195" y="307" type="line"/>
      <point x="186" y="230"/>
      <point x="175" y="131"/>
      <point x="175" y="53" type="curve" smooth="yes"/>
      <point x="175" y="44"/>
      <point x="176" y="35"/>
      <point x="176" y="27" type="curve"/>
      <point x="152" y="-10"/>
      <point x="108" y="-23"/>
      <point x="69" y="-23" type="curve" smooth="yes"/>
      <point x="64" y="-23"/>
      <point x="58" y="-22"/>
      <point x="53" y="-22" type="curve"/>
      <point x="51" y="-119" type="line"/>
      <point x="73" y="-123"/>
      <point x="93" y="-124"/>
      <point x="114" y="-124" type="curve" smooth="yes"/>
      <point x="224" y="-124"/>
      <point x="289" y="-33"/>
      <point x="304" y="125" type="curve"/>
      <point x="324" y="307" type="line"/>
    </contour>
  </outline>
</glyph>
<glyph name="circumflex" format="1">
  <advance width="389"/>
  <unicode hex="02C6"/>
  <outline>
    <contour>
      <point x="378" y="540" type="line"/>
      <point x="236" y="709" type="line"/>
      <point x="154" y="709" type="line"/>
      <point x="13" y="540" type="line"/>
      <point x="101" y="540" type="line"/>
      <point x="196" y="632" type="line"/>
      <point x="292" y="540" type="line"/>
    </contour>
    <contour>
      <point x="195.5" y="474" type="move" name="_top"/>
    </contour>
  </outline>
</glyph>
<glyph name="caron" format="1">
  <advance width="389"/>
  <unicode hex="02C7"/>
  <outline>
    <contour>
      <point x="13" y="709" type="line"/>
      <point x="155" y="540" type="line"/>
      <point x="237" y="540" type="line"/>
      <point x="378" y="709" type="line"/>
      <point x="290" y="709" type="line"/>
      <point x="195" y="617" type="line"/>
      <point x="99" y="709" type="line"/>
    </contour>
    <contour>
      <point x="195.5" y="474" type="move" name="_top"/>
    </contour>
  </outline>
</glyph>
<glyph name="ring" format="1">
  <advance width="389"/>
  <unicode hex="02DA"/>
  <outline>
    <contour>
      <point x="300" y="635" type="curve" smooth="yes"/>
      <point x="300" y="691"/>
      <point x="253" y="734"/>
      <point x="196" y="734" type="curve" smooth="yes"/>
      <point x="135" y="734"/>
      <point x="88" y="689"/>
      <point x="88" y="631" type="curve" smooth="yes"/>
      <point x="88" y="575"/>
      <point x="136" y="533"/>
      <point x="192" y="533" type="curve" smooth="yes"/>
      <point x="250" y="533"/>
      <point x="300" y="575"/>
    </contour>
    <contour>
      <point x="240" y="634" type="curve" smooth="yes"/>
      <point x="240" y="607"/>
      <point x="221" y="586"/>
      <point x="194" y="586" type="curve" smooth="yes"/>
      <point x="169" y="586"/>
      <point x="147" y="606"/>
      <point x="147" y="634" type="curve" smooth="yes"/>
      <point x="147" y="663"/>
      <point x="169" y="682"/>
      <point x="194" y="682" type="curve" smooth="yes"/>
      <point x="219" y="682"/>
      <point x="240" y="663"/>
    </contour>
    <contour>
      <point x="194" y="474" type="move" name="_top"/>
    </contour>
  </outline>
</glyph>
<glyph name="hungarumlaut" format="1">
  <advance width="389"/>
  <unicode hex="02DD"/>
  <outline>
    <contour>
      <point x="299" y="712" type="line"/>
      <point x="174" y="712" type="line"/>
      <point x="106" y="542" type="line"/>
      <point x="172" y="542" type="line"/>
    </contour>
    <contour>
      <point x="332" y="712" type="line"/>
      <point x="207" y="712" type="line"/>
      <point x="139" y="542" type="line"/>
      <point x="205" y="542" type="line"/>
    </contour>
    <contour>
      <point x="219" y="474" type="move" name="_top"/>
    </contour>
  </outline>
</glyph>
<glyph name="Delta" format="1">
  <advance width="641"/>
  <unicode hex="0394"/>
  <outline>
    <contour>
      <point x="606" y="0" type="line"/>
      <point x="606" y="31" type="line"/>
      <point x="341" y="672" type="line"/>
      <point x="290" y="659" type="line"/>
      <point x="34" y="31" type="line"/>
      <point x="34" y="0" type="line"/>
    </contour>
    <contour>
      <point x="97" y="55" type="line"/>
      <point x="280" y="520" type="line"/>
      <point x="467" y="55" type="line"/>
    </contour>
  </outline>
</glyph>
<glyph name="uni03A9" format="1">
  <advance width="728"/>
  <unicode hex="03A9"/>
  <outline>
    <contour>
      <point x="694" y="155" type="line"/>
      <point x="663" y="156" type="line"/>
      <point x="642" y="94"/>
      <point x="630" y="85"/>
      <point x="589" y="85" type="curve" smooth="yes"/>
      <point x="483" y="85" type="line"/>
      <point x="561" y="154"/>
      <point x="658" y="244"/>
      <point x="658" y="378" type="curve" smooth="yes"/>
      <point x="658" y="561"/>
      <point x="536" y="673"/>
      <point x="365" y="673" type="curve" smooth="yes"/>
      <point x="196" y="673"/>
      <point x="68" y="556"/>
      <point x="68" y="371" type="curve" smooth="yes"/>
      <point x="68" y="222"/>
      <point x="170" y="138"/>
      <point x="237" y="85" type="curve"/>
      <point x="141" y="85" type="line" smooth="yes"/>
      <point x="99" y="85"/>
      <point x="84" y="96"/>
      <point x="63" y="156" type="curve"/>
      <point x="33" y="155" type="line"/>
      <point x="57" y="0" type="line"/>
      <point x="302" y="0" type="line"/>
      <point x="311" y="21" type="line"/>
      <point x="262" y="116"/>
      <point x="197" y="236"/>
      <point x="197" y="363" type="curve" smooth="yes"/>
      <point x="197" y="570"/>
      <point x="267" y="638"/>
      <point x="362" y="638" type="curve" smooth="yes"/>
      <point x="451" y="638"/>
      <point x="530" y="566"/>
      <point x="530" y="364" type="curve" smooth="yes"/>
      <point x="530" y="233"/>
      <point x="454" y="105"/>
      <point x="413" y="21" type="curve"/>
      <point x="422" y="0" type="line"/>
      <point x="667" y="0" type="line"/>
    </contour>
  </outline>
</glyph>
<glyph name="mu" format="1">
  <advance width="623"/>
  <unicode hex="03BC"/>
  <outline>
    <contour>
      <point x="608" y="0" type="line"/>
      <point x="608" y="60" type="line"/>
      <point x="575" y="63" type="line" smooth="yes"/>
      <point x="526" y="67"/>
      <point x="528" y="80"/>
      <point x="528" y="122" type="curve" smooth="yes"/>
      <point x="528" y="344" type="line"/>
      <point x="532" y="468" type="line"/>
      <point x="475" y="465"/>
      <point x="406" y="462"/>
      <point x="355" y="462" type="curve"/>
      <point x="355" y="410" type="line"/>
      <point x="392" y="392"/>
      <point x="396" y="378"/>
      <point x="396" y="319" type="curve" smooth="yes"/>
      <point x="396" y="171" type="line"/>
      <point x="387" y="110"/>
      <point x="357" y="78"/>
      <point x="302" y="78" type="curve" smooth="yes"/>
      <point x="254" y="78"/>
      <point x="224" y="102"/>
      <point x="224" y="158" type="curve" smooth="yes"/>
      <point x="224" y="350" type="line"/>
      <point x="228" y="468" type="line"/>
      <point x="171" y="465"/>
      <point x="102" y="462"/>
      <point x="52" y="462" type="curve"/>
      <point x="52" y="408" type="line"/>
      <point x="89" y="389"/>
      <point x="93" y="374"/>
      <point x="93" y="313" type="curve" smooth="yes"/>
      <point x="93" y="-108" type="line"/>
      <point x="93" y="-236" type="line"/>
      <point x="228" y="-236" type="line"/>
      <point x="228" y="-116" type="line"/>
      <point x="224" y="5" type="line"/>
      <point x="235" y="-6"/>
      <point x="254" y="-11"/>
      <point x="279" y="-11" type="curve" smooth="yes"/>
      <point x="322" y="-11"/>
      <point x="377" y="12"/>
      <point x="404" y="73" type="curve"/>
      <point x="404" y="73"/>
      <point x="404" y="73"/>
      <point x="405" y="73" type="curve"/>
      <point x="403" y="0" type="line"/>
    </contour>
  </outline>
</glyph>
<glyph name="pi" format="1">
  <advance width="572"/>
  <unicode hex="03C0"/>
  <outline>
    <contour>
      <point x="519" y="462" type="line"/>
      <point x="504" y="436"/>
      <point x="491" y="430"/>
      <point x="460" y="430" type="curve" smooth="yes"/>
      <point x="366" y="430"/>
      <point x="265" y="433"/>
      <point x="189" y="433" type="curve" smooth="yes"/>
      <point x="84" y="433"/>
      <point x="49" y="376"/>
      <point x="18" y="336" type="curve"/>
      <point x="33" y="309" type="line"/>
      <point x="74" y="336"/>
      <point x="97" y="349"/>
      <point x="159" y="349" type="curve"/>
      <point x="159" y="255"/>
      <point x="138" y="101"/>
      <point x="67" y="8" type="curve"/>
      <point x="74" y="-12" type="line"/>
      <point x="92" y="-10"/>
      <point x="118" y="-4"/>
      <point x="139" y="5" type="curve"/>
      <point x="155" y="24"/>
      <point x="204" y="113"/>
      <point x="204" y="335" type="curve" smooth="yes"/>
      <point x="204" y="348" type="line"/>
      <point x="242" y="348"/>
      <point x="286" y="346"/>
      <point x="340" y="346" type="curve"/>
      <point x="335" y="274"/>
      <point x="330" y="205"/>
      <point x="330" y="116" type="curve" smooth="yes"/>
      <point x="330" y="15"/>
      <point x="373" y="-12"/>
      <point x="427" y="-12" type="curve" smooth="yes"/>
      <point x="469" y="-12"/>
      <point x="514" y="14"/>
      <point x="539" y="56" type="curve"/>
      <point x="527" y="80" type="line"/>
      <point x="511" y="66"/>
      <point x="500" y="57"/>
      <point x="481" y="57" type="curve" smooth="yes"/>
      <point x="441" y="57"/>
      <point x="440" y="107"/>
      <point x="440" y="220" type="curve" smooth="yes"/>
      <point x="440" y="263"/>
      <point x="441" y="306"/>
      <point x="445" y="343" type="curve"/>
      <point x="471" y="343"/>
      <point x="493" y="344"/>
      <point x="509" y="349" type="curve"/>
      <point x="523" y="367"/>
      <point x="540" y="414"/>
      <point x="546" y="454" type="curve"/>
    </contour>
  </outline>
</glyph>
<glyph name="endash" format="1">
  <advance width="500"/>
  <unicode hex="2013"/>
  <outline>
    <contour>
      <point x="483" y="199" type="line"/>
      <point x="483" y="282" type="line"/>
      <point x="16" y="282" type="line"/>
      <point x="16" y="199" type="line"/>
    </contour>
  </outline>
</glyph>
<glyph name="emdash" format="1">
  <advance width="1000"/>
  <unicode hex="2014"/>
  <outline>
    <contour>
      <point x="983" y="199" type="line"/>
      <point x="983" y="282" type="line"/>
      <point x="16" y="282" type="line"/>
      <point x="16" y="199" type="line"/>
    </contour>
  </outline>
</glyph>
<glyph name="quoteleft" format="1">
  <advance width="250"/>
  <unicode hex="2018"/>
  <outline>
    <contour>
      <point x="43" y="550" type="curve" smooth="yes"/>
      <point x="40" y="538"/>
      <point x="39" y="527"/>
      <point x="39" y="516" type="curve" smooth="yes"/>
      <point x="39" y="479"/>
      <point x="59" y="455"/>
      <point x="116" y="455" type="curve" smooth="yes"/>
      <point x="169" y="455"/>
      <point x="185" y="479"/>
      <point x="190" y="521" type="curve"/>
      <point x="190" y="527"/>
      <point x="189" y="535"/>
      <point x="188" y="539" type="curve"/>
      <point x="173" y="539"/>
      <point x="159" y="538"/>
      <point x="144" y="538" type="curve"/>
      <point x="155" y="612"/>
      <point x="173" y="654"/>
      <point x="215" y="692" type="curve"/>
      <point x="174" y="722" type="line"/>
      <point x="111" y="689"/>
      <point x="59" y="622"/>
    </contour>
  </outline>
</glyph>
<glyph name="quoteright" format="1">
  <advance width="250"/>
  <unicode hex="2019"/>
  <outline>
    <contour>
      <point x="63" y="422" type="line"/>
      <point x="140" y="455"/>
      <point x="196" y="529"/>
      <point x="212" y="617" type="curve"/>
      <point x="213" y="627"/>
      <point x="214" y="637"/>
      <point x="214" y="646" type="curve" smooth="yes"/>
      <point x="214" y="692"/>
      <point x="185" y="723"/>
      <point x="136" y="723" type="curve" smooth="yes"/>
      <point x="90" y="723"/>
      <point x="59" y="693"/>
      <point x="59" y="655" type="curve" smooth="yes"/>
      <point x="59" y="631"/>
      <point x="77" y="597"/>
      <point x="115" y="595" type="curve"/>
      <point x="107" y="538"/>
      <point x="76" y="486"/>
      <point x="20" y="458" type="curve"/>
    </contour>
  </outline>
</glyph>
<glyph name="quotedblleft" format="1">
  <advance width="482"/>
  <unicode hex="201C"/>
  <outline>
    <contour>
      <point x="61" y="550" type="curve" smooth="yes"/>
      <point x="59" y="539"/>
      <point x="57" y="529"/>
      <point x="57" y="519" type="curve" smooth="yes"/>
      <point x="57" y="480"/>
      <point x="76" y="455"/>
      <point x="134" y="455" type="curve" smooth="yes"/>
      <point x="187" y="455"/>
      <point x="203" y="479"/>
      <point x="208" y="521" type="curve"/>
      <point x="208" y="527"/>
      <point x="207" y="535"/>
      <point x="206" y="539" type="curve"/>
      <point x="192" y="539"/>
      <point x="177" y="538"/>
      <point x="163" y="538" type="curve"/>
      <point x="168" y="608"/>
      <point x="193" y="656"/>
      <point x="234" y="692" type="curve"/>
      <point x="192" y="722" type="line"/>
      <point x="129" y="689"/>
      <point x="78" y="622"/>
    </contour>
    <contour>
      <point x="256" y="550" type="curve" smooth="yes"/>
      <point x="254" y="539"/>
      <point x="252" y="529"/>
      <point x="252" y="519" type="curve" smooth="yes"/>
      <point x="252" y="480"/>
      <point x="271" y="455"/>
      <point x="329" y="455" type="curve" smooth="yes"/>
      <point x="382" y="455"/>
      <point x="399" y="479"/>
      <point x="403" y="521" type="curve" smooth="yes"/>
      <point x="403" y="527"/>
      <point x="402" y="535"/>
      <point x="401" y="539" type="curve"/>
      <point x="387" y="539"/>
      <point x="372" y="538"/>
      <point x="358" y="538" type="curve"/>
      <point x="363" y="608"/>
      <point x="388" y="656"/>
      <point x="429" y="692" type="curve"/>
      <point x="387" y="722" type="line"/>
      <point x="324" y="689"/>
      <point x="273" y="622"/>
    </contour>
  </outline>
</glyph>
<glyph name="quotedblright" format="1">
  <advance width="482"/>
  <unicode hex="201D"/>
  <outline>
    <contour>
      <point x="226" y="626" type="curve" smooth="yes"/>
      <point x="228" y="637"/>
      <point x="229" y="647"/>
      <point x="229" y="657" type="curve" smooth="yes"/>
      <point x="229" y="696"/>
      <point x="211" y="721"/>
      <point x="152" y="721" type="curve" smooth="yes"/>
      <point x="100" y="721"/>
      <point x="82" y="697"/>
      <point x="79" y="655" type="curve" smooth="yes"/>
      <point x="79" y="649"/>
      <point x="80" y="641"/>
      <point x="81" y="637" type="curve"/>
      <point x="95" y="637"/>
      <point x="110" y="638"/>
      <point x="124" y="638" type="curve"/>
      <point x="119" y="568"/>
      <point x="94" y="519"/>
      <point x="53" y="484" type="curve"/>
      <point x="95" y="454" type="line"/>
      <point x="158" y="487"/>
      <point x="209" y="554"/>
    </contour>
    <contour>
      <point x="420" y="626" type="curve" smooth="yes"/>
      <point x="422" y="638"/>
      <point x="424" y="649"/>
      <point x="424" y="660" type="curve" smooth="yes"/>
      <point x="424" y="697"/>
      <point x="403" y="721"/>
      <point x="347" y="721" type="curve" smooth="yes"/>
      <point x="294" y="721"/>
      <point x="277" y="696"/>
      <point x="273" y="655" type="curve" smooth="yes"/>
      <point x="273" y="649"/>
      <point x="274" y="641"/>
      <point x="275" y="637" type="curve"/>
      <point x="290" y="637"/>
      <point x="304" y="638"/>
      <point x="319" y="638" type="curve"/>
      <point x="307" y="564"/>
      <point x="290" y="522"/>
      <point x="248" y="484" type="curve"/>
      <point x="289" y="454" type="line"/>
      <point x="352" y="487"/>
      <point x="404" y="554"/>
    </contour>
  </outline>
</glyph>
<glyph name="dagger" format="1">
  <advance width="538"/>
  <unicode hex="2020"/>
  <outline>
    <contour>
      <point x="475" y="313" type="line"/>
      <point x="475" y="405" type="line"/>
      <point x="322" y="405" type="line"/>
      <point x="322" y="584" type="line"/>
      <point x="209" y="584" type="line"/>
      <point x="209" y="399" type="line"/>
      <point x="62" y="399" type="line"/>
      <point x="62" y="307" type="line"/>
      <point x="215" y="307" type="line"/>
      <point x="215" y="-92" type="line"/>
      <point x="328" y="-92" type="line"/>
      <point x="328" y="313" type="line"/>
    </contour>
  </outline>
</glyph>
<glyph name="daggerdbl" format="1">
  <advance width="538"/>
  <unicode hex="2021"/>
  <outline>
    <contour>
      <point x="474" y="61" type="line"/>
      <point x="474" y="153" type="line"/>
      <point x="322" y="153" type="line"/>
      <point x="322" y="344" type="line"/>
      <point x="474" y="344" type="line"/>
      <point x="474" y="436" type="line"/>
      <point x="322" y="436" type="line"/>
      <point x="322" y="584" type="line"/>
      <point x="209" y="584" type="line"/>
      <point x="209" y="430" type="line"/>
      <point x="63" y="430" type="line"/>
      <point x="63" y="338" type="line"/>
      <point x="215" y="338" type="line"/>
      <point x="215" y="147" type="line"/>
      <point x="63" y="147" type="line"/>
      <point x="63" y="54" type="line"/>
      <point x="215" y="54" type="line"/>
      <point x="215" y="-92" type="line"/>
      <point x="328" y="-92" type="line"/>
      <point x="328" y="61" type="line"/>
    </contour>
  </outline>
</glyph>
<glyph name="bullet" format="1">
  <advance width="425"/>
  <unicode hex="2022"/>
  <outline>
    <contour>
      <point x="361" y="274" type="curve" smooth="yes"/>
      <point x="361" y="356"/>
      <point x="294" y="423"/>
      <point x="212" y="423" type="curve" smooth="yes"/>
      <point x="130" y="423"/>
      <point x="63" y="356"/>
      <point x="63" y="274" type="curve" smooth="yes"/>
      <point x="63" y="192"/>
      <point x="130" y="126"/>
      <point x="212" y="126" type="curve" smooth="yes"/>
      <point x="294" y="126"/>
      <point x="361" y="192"/>
    </contour>
  </outline>
</glyph>
<glyph name="guilsinglleft" format="1">
  <advance width="289"/>
  <unicode hex="2039"/>
  <outline>
    <contour>
      <point x="261" y="6" type="line"/>
      <point x="155" y="235" type="line"/>
      <point x="261" y="447" type="line"/>
      <point x="187" y="447" type="line"/>
      <point x="38" y="256" type="line"/>
      <point x="29" y="227" type="line"/>
      <point x="187" y="6" type="line"/>
    </contour>
  </outline>
</glyph>
<glyph name="fraction" format="1">
  <advance width="355"/>
  <unicode hex="2044"/>
  <outline>
    <contour>
      <point x="422" y="679" type="line"/>
      <point x="327" y="679" type="line"/>
      <point x="-54" y="-12" type="line"/>
      <point x="42" y="-12" type="line"/>
    </contour>
  </outline>
</glyph>
<glyph name="Euro" format="1">
  <advance width="538"/>
  <unicode hex="20AC"/>
  <outline>
    <contour>
      <point x="409" y="372" type="line"/>
      <point x="426" y="434" type="line"/>
      <point x="226" y="434" type="line"/>
      <point x="241" y="579"/>
      <point x="299" y="612"/>
      <point x="351" y="612" type="curve" smooth="yes"/>
      <point x="400" y="612"/>
      <point x="426" y="594"/>
      <point x="426" y="595" type="curve" smooth="yes"/>
      <point x="426" y="595"/>
      <point x="436" y="519"/>
      <point x="439" y="488" type="curve"/>
      <point x="522" y="488" type="line"/>
      <point x="526" y="644" type="line"/>
      <point x="473" y="670"/>
      <point x="393" y="682"/>
      <point x="342" y="682" type="curve" smooth="yes"/>
      <point x="217" y="682"/>
      <point x="122" y="609"/>
      <point x="93" y="434" type="curve"/>
      <point x="32" y="434" type="line"/>
      <point x="15" y="372" type="line"/>
    </contour>
    <contour>
      <point x="530" y="41" type="curve"/>
      <point x="530" y="192" type="line"/>
      <point x="452" y="192" type="line"/>
      <point x="452" y="192"/>
      <point x="435" y="72"/>
      <point x="435" y="72" type="curve" smooth="yes"/>
      <point x="435" y="72"/>
      <point x="387" y="53"/>
      <point x="342" y="56" type="curve" smooth="yes"/>
      <point x="264" y="61"/>
      <point x="231" y="115"/>
      <point x="224" y="243" type="curve"/>
      <point x="391" y="243" type="line"/>
      <point x="407" y="305" type="line"/>
      <point x="32" y="305" type="line"/>
      <point x="15" y="243" type="line"/>
      <point x="88" y="243" type="line"/>
      <point x="102" y="57"/>
      <point x="204" y="-14"/>
      <point x="333" y="-14" type="curve" smooth="yes"/>
      <point x="421" y="-14"/>
      <point x="496" y="12"/>
    </contour>
  </outline>
</glyph>
<glyph name="trademark" format="1">
  <advance width="1148"/>
  <unicode hex="2122"/>
  <outline>
    <contour>
      <point x="1108" y="165" type="line"/>
      <point x="1106" y="210" type="line"/>
      <point x="1077" y="212"/>
      <point x="1059" y="219"/>
      <point x="1047" y="238" type="curve"/>
      <point x="1040" y="336"/>
      <point x="1034" y="454"/>
      <point x="1034" y="548" type="curve"/>
      <point x="1046" y="565"/>
      <point x="1063" y="575"/>
      <point x="1097" y="577" type="curve"/>
      <point x="1095" y="623" type="line"/>
      <point x="933" y="623" type="line"/>
      <point x="885" y="532"/>
      <point x="822" y="405"/>
      <point x="776" y="296" type="curve"/>
      <point x="731" y="412"/>
      <point x="679" y="528"/>
      <point x="632" y="623" type="curve"/>
      <point x="460" y="623" type="line"/>
      <point x="457" y="577" type="line"/>
      <point x="481" y="575"/>
      <point x="512" y="561"/>
      <point x="523" y="548" type="curve"/>
      <point x="523" y="472"/>
      <point x="514" y="342"/>
      <point x="508" y="238" type="curve"/>
      <point x="497" y="219"/>
      <point x="481" y="212"/>
      <point x="454" y="210" type="curve"/>
      <point x="452" y="165" type="line"/>
      <point x="626" y="165" type="line"/>
      <point x="624" y="210" type="line"/>
      <point x="596" y="212"/>
      <point x="578" y="219"/>
      <point x="566" y="238" type="curve"/>
      <point x="570" y="287"/>
      <point x="574" y="449"/>
      <point x="577" y="492" type="curve"/>
      <point x="624" y="398"/>
      <point x="679" y="272"/>
      <point x="721" y="165" type="curve"/>
      <point x="788" y="165" type="line"/>
      <point x="819" y="249"/>
      <point x="904" y="447"/>
      <point x="933" y="486" type="curve"/>
      <point x="933" y="408"/>
      <point x="937" y="318"/>
      <point x="943" y="238" type="curve"/>
      <point x="930" y="219"/>
      <point x="910" y="212"/>
      <point x="880" y="210" type="curve"/>
      <point x="878" y="165" type="line"/>
    </contour>
    <contour>
      <point x="407" y="624" type="line"/>
      <point x="199" y="624" type="line"/>
      <point x="10" y="624" type="line"/>
      <point x="10" y="489" type="line"/>
      <point x="53" y="485" type="line"/>
      <point x="57" y="515"/>
      <point x="65" y="542"/>
      <point x="77" y="565" type="curve"/>
      <point x="85" y="567"/>
      <point x="95" y="568"/>
      <point x="105" y="568" type="curve" smooth="yes"/>
      <point x="108" y="568"/>
      <point x="110" y="568"/>
      <point x="113" y="568" type="curve" smooth="yes"/>
      <point x="157" y="567" type="line"/>
      <point x="157" y="238" type="line"/>
      <point x="145" y="219"/>
      <point x="127" y="212"/>
      <point x="98" y="210" type="curve"/>
      <point x="96" y="165" type="line"/>
      <point x="324" y="165" type="line"/>
      <point x="322" y="210" type="line"/>
      <point x="293" y="212"/>
      <point x="275" y="219"/>
      <point x="263" y="238" type="curve"/>
      <point x="263" y="567" type="line"/>
      <point x="328" y="570" type="line"/>
      <point x="350" y="552"/>
      <point x="360" y="520"/>
      <point x="364" y="485" type="curve"/>
      <point x="407" y="489" type="line"/>
    </contour>
  </outline>
</glyph>
<glyph name="product" format="1">
  <advance width="700"/>
  <unicode hex="220F"/>
  <outline>
    <contour>
      <point x="672" y="669" type="line"/>
      <point x="25" y="669" type="line"/>
      <point x="25" y="639" type="line"/>
      <point x="110" y="632"/>
      <point x="117" y="625"/>
      <point x="117" y="556" type="curve" smooth="yes"/>
      <point x="117" y="38" type="line" smooth="yes"/>
      <point x="117" y="-36"/>
      <point x="109" y="-45"/>
      <point x="28" y="-51" type="curve"/>
      <point x="28" y="-81" type="line"/>
      <point x="301" y="-81" type="line"/>
      <point x="301" y="-51" type="line"/>
      <point x="231" y="-45"/>
      <point x="231" y="-35"/>
      <point x="231" y="38" type="curve" smooth="yes"/>
      <point x="231" y="600" type="line" smooth="yes"/>
      <point x="231" y="627"/>
      <point x="235" y="631"/>
      <point x="264" y="631" type="curve" smooth="yes"/>
      <point x="432" y="631" type="line" smooth="yes"/>
      <point x="463" y="631"/>
      <point x="469" y="627"/>
      <point x="469" y="596" type="curve" smooth="yes"/>
      <point x="469" y="38" type="line" smooth="yes"/>
      <point x="469" y="-40"/>
      <point x="464" y="-45"/>
      <point x="391" y="-51" type="curve"/>
      <point x="391" y="-81" type="line"/>
      <point x="671" y="-81" type="line"/>
      <point x="671" y="-51" type="line"/>
      <point x="589" y="-44"/>
      <point x="582" y="-36"/>
      <point x="582" y="39" type="curve" smooth="yes"/>
      <point x="582" y="556" type="line" smooth="yes"/>
      <point x="582" y="624"/>
      <point x="587" y="632"/>
      <point x="672" y="639" type="curve"/>
    </contour>
  </outline>
</glyph>
